<svg width="112" height="112" viewBox="0 0 112 112" fill="none" xmlns="http://www.w3.org/2000/svg">
<path d="M32 33H62.5858L74 44.4142V87H32V33Z" fill="white" stroke="#445BFD" stroke-width="2"/>
<path d="M36 29H66.5858L78 40.4142V83H36V29Z" fill="white" stroke="#445BFD" stroke-width="2"/>
<path d="M78 41H66V29V29" stroke="#445BFD" stroke-width="2"/>
<rect x="42.5" y="29.5" width="1" height="4" fill="#9FC8FF" stroke="#445BFD"/>
<rect x="69.5" y="78.5" width="1" height="3" fill="#9FC8FF" stroke="#445BFD"/>
<rect x="69.5" y="75.5" width="1" height="1" fill="#9FC8FF" stroke="#445BFD"/>
<rect x="42.5" y="36.5" width="1" height="1" fill="#9FC8FF" stroke="#445BFD"/>
<path fill-rule="evenodd" clip-rule="evenodd" d="M57 72C63.6274 72 69 66.6274 69 60C69 53.3726 63.6274 48 57 48C50.3726 48 45 53.3726 45 60C45 66.6274 50.3726 72 57 72Z" fill="#435BFD"/>
<path fill-rule="evenodd" clip-rule="evenodd" d="M54.2603 59.1747C54.2603 59.5003 53.9964 59.7643 53.6707 59.7643C52.7593 59.7643 51.8853 60.1264 51.2408 60.7708L51.1693 60.8424C49.7878 62.2239 49.7878 64.4637 51.1693 65.8453C52.5508 67.2268 54.7907 67.2268 56.1722 65.8453L56.2437 65.7737C56.8882 65.1293 57.2502 64.2552 57.2502 63.3438C57.2502 63.0182 57.5142 62.7542 57.8398 62.7542C58.1654 62.7542 58.4294 63.0182 58.4294 63.3438C58.4294 64.5679 57.9431 65.7419 57.0775 66.6075L57.006 66.6791C55.164 68.5211 52.1775 68.5211 50.3355 66.6791C48.4934 64.8371 48.4934 61.8506 50.3355 60.0085L50.407 59.937C51.2726 59.0714 52.4466 58.5851 53.6707 58.5851C53.9964 58.5851 54.2603 58.8491 54.2603 59.1747Z" fill="white"/>
<path fill-rule="evenodd" clip-rule="evenodd" d="M56.1725 57.2601C56.4981 57.2601 56.7621 56.9961 56.7621 56.6705C56.7621 55.7591 57.1242 54.885 57.7686 54.2406L57.8402 54.169C59.2217 52.7875 61.4615 52.7875 62.8431 54.169C64.2246 55.5505 64.2246 57.7904 62.8431 59.1719L62.7715 59.2435C62.1271 59.8879 61.253 60.25 60.3416 60.25C60.016 60.25 59.752 60.5139 59.752 60.8396C59.752 61.1652 60.016 61.4292 60.3416 61.4292C61.5657 61.4292 62.7397 60.9429 63.6053 60.0773L63.6769 60.0058C65.5189 58.1637 65.5189 55.1772 63.6769 53.3352C61.8349 51.4932 58.8484 51.4932 57.0063 53.3352L56.9348 53.4067C56.0692 54.2723 55.5829 55.4463 55.5829 56.6705C55.5829 56.9961 55.8469 57.2601 56.1725 57.2601Z" fill="white"/>
<path d="M59.0899 57.0929C59.3202 56.8627 59.6935 56.8627 59.9237 57.0929C60.154 57.3232 60.154 57.6965 59.9237 57.9268L54.087 63.7635C53.8568 63.9937 53.4835 63.9937 53.2532 63.7635C53.023 63.5332 53.023 63.1599 53.2532 62.9297L59.0899 57.0929Z" fill="white"/>
</svg>
