<svg width="228" height="228" viewBox="0 0 228 228" fill="none" xmlns="http://www.w3.org/2000/svg">
<path d="M113.999 0C176.961 0 228 51.0397 228 114C228 176.957 176.961 228 113.999 228C51.0395 228 0 176.957 0 114C0 51.0397 51.0395 0 113.999 0Z" fill="#157E85"/>
<path d="M149.065 90.138V79.471C149.065 60.7964 133.653 45.6001 114.713 45.6001C95.762 45.6001 80.3501 60.7964 80.3501 79.471V90.138H72.7135V158.853H156.702V90.138H149.065ZM95.6128 79.471C95.6128 69.3843 104.367 60.8682 114.713 60.8682C125.049 60.8682 133.792 69.3843 133.792 79.471V90.138H95.6128V79.471ZM114.713 146.295C102.885 146.295 93.2902 136.706 93.2902 124.878C93.2902 113.049 102.885 103.46 114.713 103.46C126.536 103.46 136.131 113.049 136.131 124.878C136.131 136.706 126.536 146.295 114.713 146.295Z" fill="white"/>
<path d="M111.849 126.492L105.158 121.559L102.459 124.462L110.732 134.079L112.181 135.776L113.701 134.134L129.224 117.362L126.492 114.464L111.849 126.492Z" fill="white"/>
<path d="M73.4493 189.577C72.8999 189.577 72.3799 189.537 71.8893 189.457C71.3986 189.377 70.9746 189.281 70.6173 189.169C70.2599 189.057 70.0066 188.955 69.8573 188.865L70.2333 186.881C70.4306 186.998 70.6893 187.115 71.0093 187.233C71.3346 187.345 71.6919 187.441 72.0813 187.521C72.4706 187.595 72.8626 187.633 73.2573 187.633C73.8919 187.633 74.3639 187.534 74.6733 187.337C74.9826 187.139 75.1373 186.822 75.1373 186.385C75.1373 186.075 75.0519 185.817 74.8813 185.609C74.7106 185.395 74.4413 185.187 74.0733 184.985C73.7106 184.782 73.2386 184.542 72.6573 184.265C72.1613 184.025 71.6946 183.739 71.2573 183.409C70.8199 183.078 70.4653 182.683 70.1933 182.225C69.9213 181.766 69.7853 181.23 69.7853 180.617C69.7853 180.062 69.8919 179.585 70.1053 179.185C70.3239 178.779 70.6226 178.449 71.0013 178.193C71.3799 177.931 71.8173 177.739 72.3133 177.617C72.8146 177.494 73.3506 177.433 73.9213 177.433C74.7426 177.433 75.4173 177.51 75.9453 177.665C76.4733 177.819 76.8413 177.963 77.0493 178.097L76.6253 180.001C76.3746 179.819 76.0279 179.657 75.5853 179.513C75.1426 179.363 74.6359 179.289 74.0653 179.289C73.6866 179.289 73.3559 179.334 73.0733 179.425C72.7959 179.515 72.5799 179.649 72.4253 179.825C72.2706 179.995 72.1933 180.206 72.1933 180.457C72.1933 180.755 72.2653 181.011 72.4093 181.225C72.5586 181.433 72.7933 181.635 73.1133 181.833C73.4333 182.025 73.8493 182.246 74.3613 182.497C74.8253 182.715 75.2546 182.945 75.6493 183.185C76.0439 183.419 76.3906 183.678 76.6893 183.961C76.9879 184.243 77.2199 184.566 77.3853 184.929C77.5506 185.291 77.6333 185.707 77.6333 186.177C77.6333 186.891 77.4653 187.505 77.1293 188.017C76.7933 188.523 76.3106 188.91 75.6813 189.177C75.0573 189.443 74.3133 189.577 73.4493 189.577ZM82.8086 189.577C82.2593 189.577 81.7393 189.537 81.2486 189.457C80.758 189.377 80.334 189.281 79.9766 189.169C79.6193 189.057 79.366 188.955 79.2166 188.865L79.5926 186.881C79.79 186.998 80.0486 187.115 80.3686 187.233C80.694 187.345 81.0513 187.441 81.4406 187.521C81.83 187.595 82.222 187.633 82.6166 187.633C83.2513 187.633 83.7233 187.534 84.0326 187.337C84.342 187.139 84.4966 186.822 84.4966 186.385C84.4966 186.075 84.4113 185.817 84.2406 185.609C84.07 185.395 83.8006 185.187 83.4326 184.985C83.07 184.782 82.598 184.542 82.0166 184.265C81.5206 184.025 81.054 183.739 80.6166 183.409C80.1793 183.078 79.8246 182.683 79.5526 182.225C79.2806 181.766 79.1446 181.23 79.1446 180.617C79.1446 180.062 79.2513 179.585 79.4646 179.185C79.6833 178.779 79.982 178.449 80.3606 178.193C80.7393 177.931 81.1766 177.739 81.6726 177.617C82.174 177.494 82.71 177.433 83.2806 177.433C84.102 177.433 84.7766 177.51 85.3046 177.665C85.8326 177.819 86.2006 177.963 86.4086 178.097L85.9846 180.001C85.734 179.819 85.3873 179.657 84.9446 179.513C84.502 179.363 83.9953 179.289 83.4246 179.289C83.046 179.289 82.7153 179.334 82.4326 179.425C82.1553 179.515 81.9393 179.649 81.7846 179.825C81.63 179.995 81.5526 180.206 81.5526 180.457C81.5526 180.755 81.6246 181.011 81.7686 181.225C81.918 181.433 82.1526 181.635 82.4726 181.833C82.7926 182.025 83.2086 182.246 83.7206 182.497C84.1846 182.715 84.614 182.945 85.0086 183.185C85.4033 183.419 85.75 183.678 86.0486 183.961C86.3473 184.243 86.5793 184.566 86.7446 184.929C86.91 185.291 86.9926 185.707 86.9926 186.177C86.9926 186.891 86.8246 187.505 86.4886 188.017C86.1526 188.523 85.67 188.91 85.0406 189.177C84.4166 189.443 83.6726 189.577 82.8086 189.577ZM88.96 189.449V177.561H91.44V187.441H95.736V189.449H88.96ZM103.293 189.577C102.744 189.577 102.224 189.537 101.733 189.457C101.242 189.377 100.818 189.281 100.461 189.169C100.104 189.057 99.8504 188.955 99.701 188.865L100.077 186.881C100.274 186.998 100.533 187.115 100.853 187.233C101.178 187.345 101.536 187.441 101.925 187.521C102.314 187.595 102.706 187.633 103.101 187.633C103.736 187.633 104.208 187.534 104.517 187.337C104.826 187.139 104.981 186.822 104.981 186.385C104.981 186.075 104.896 185.817 104.725 185.609C104.554 185.395 104.285 185.187 103.917 184.985C103.554 184.782 103.082 184.542 102.501 184.265C102.005 184.025 101.538 183.739 101.101 183.409C100.664 183.078 100.309 182.683 100.037 182.225C99.765 181.766 99.629 181.23 99.629 180.617C99.629 180.062 99.7357 179.585 99.949 179.185C100.168 178.779 100.466 178.449 100.845 178.193C101.224 177.931 101.661 177.739 102.157 177.617C102.658 177.494 103.194 177.433 103.765 177.433C104.586 177.433 105.261 177.51 105.789 177.665C106.317 177.819 106.685 177.963 106.893 178.097L106.469 180.001C106.218 179.819 105.872 179.657 105.429 179.513C104.986 179.363 104.48 179.289 103.909 179.289C103.53 179.289 103.2 179.334 102.917 179.425C102.64 179.515 102.424 179.649 102.269 179.825C102.114 179.995 102.037 180.206 102.037 180.457C102.037 180.755 102.109 181.011 102.253 181.225C102.402 181.433 102.637 181.635 102.957 181.833C103.277 182.025 103.693 182.246 104.205 182.497C104.669 182.715 105.098 182.945 105.493 183.185C105.888 183.419 106.234 183.678 106.533 183.961C106.832 184.243 107.064 184.566 107.229 184.929C107.394 185.291 107.477 185.707 107.477 186.177C107.477 186.891 107.309 187.505 106.973 188.017C106.637 188.523 106.154 188.91 105.525 189.177C104.901 189.443 104.157 189.577 103.293 189.577ZM109.444 189.449V177.561H116.7V179.449H111.94V182.433H115.548V184.281H111.94V187.521H117.204V189.449H109.444ZM118.141 183.537C118.141 182.539 118.293 181.662 118.597 180.905C118.901 180.142 119.322 179.505 119.861 178.993C120.399 178.475 121.021 178.086 121.725 177.825C122.434 177.563 123.191 177.433 123.997 177.433C124.567 177.433 125.045 177.465 125.429 177.529C125.818 177.587 126.143 177.654 126.405 177.729C126.671 177.798 126.909 177.854 127.117 177.897L126.781 180.073C126.679 180.009 126.525 179.926 126.317 179.825C126.114 179.718 125.837 179.625 125.485 179.545C125.138 179.459 124.703 179.417 124.181 179.417C123.503 179.417 122.903 179.574 122.381 179.889C121.858 180.203 121.447 180.657 121.149 181.249C120.85 181.841 120.701 182.555 120.701 183.393C120.701 184.23 120.837 184.966 121.109 185.601C121.386 186.235 121.791 186.734 122.325 187.097C122.858 187.454 123.509 187.633 124.277 187.633C124.634 187.633 124.997 187.593 125.365 187.513C125.733 187.433 126.061 187.337 126.349 187.225C126.637 187.107 126.85 186.993 126.989 186.881V188.953C126.775 189.038 126.53 189.129 126.253 189.225C125.975 189.321 125.655 189.403 125.293 189.473C124.935 189.542 124.519 189.577 124.045 189.577C122.807 189.577 121.749 189.329 120.869 188.833C119.989 188.331 119.314 187.627 118.845 186.721C118.375 185.814 118.141 184.753 118.141 183.537ZM133.686 189.577C132.512 189.577 131.571 189.369 130.862 188.953C130.152 188.531 129.638 187.939 129.318 187.177C129.003 186.409 128.846 185.505 128.846 184.465L128.87 177.561H131.366L131.334 184.105C131.334 185.038 131.422 185.758 131.598 186.265C131.779 186.766 132.043 187.115 132.39 187.313C132.742 187.505 133.171 187.601 133.678 187.601C134.163 187.601 134.574 187.502 134.91 187.305C135.246 187.102 135.499 186.747 135.67 186.241C135.846 185.734 135.934 185.022 135.934 184.105V177.561H138.406V184.505C138.406 186.11 138.024 187.358 137.262 188.249C136.499 189.134 135.307 189.577 133.686 189.577ZM143.37 189.449H140.866V177.561C140.973 177.561 141.077 177.561 141.178 177.561C141.285 177.561 141.389 177.561 141.49 177.561C141.597 177.561 141.704 177.561 141.81 177.561C142.216 177.561 142.688 177.539 143.226 177.497C143.765 177.454 144.41 177.433 145.162 177.433C145.717 177.433 146.25 177.494 146.762 177.617C147.274 177.734 147.73 177.931 148.13 178.209C148.536 178.481 148.856 178.849 149.09 179.313C149.325 179.777 149.442 180.353 149.442 181.041C149.442 181.814 149.314 182.457 149.058 182.969C148.802 183.475 148.442 183.873 147.978 184.161C147.52 184.443 146.981 184.633 146.362 184.729C146.149 184.761 145.933 184.793 145.714 184.825C145.496 184.851 145.208 184.875 144.85 184.897C144.493 184.913 144 184.921 143.37 184.921V189.449ZM143.37 183.161C143.482 183.177 143.64 183.19 143.842 183.201C144.045 183.211 144.25 183.217 144.458 183.217C144.672 183.217 144.842 183.217 144.97 183.217C145.648 183.217 146.154 183.027 146.49 182.649C146.832 182.265 147.002 181.75 147.002 181.105C147.002 180.742 146.938 180.419 146.81 180.137C146.688 179.849 146.469 179.625 146.154 179.465C145.84 179.299 145.4 179.217 144.834 179.217C144.584 179.217 144.33 179.23 144.074 179.257C143.818 179.278 143.584 179.313 143.37 179.361V183.161ZM147.482 189.449C147.413 189.358 147.352 189.257 147.298 189.145C147.25 189.027 147.168 188.841 147.05 188.585C146.885 188.227 146.73 187.841 146.586 187.425C146.448 187.009 146.301 186.611 146.146 186.233C145.992 185.854 145.813 185.539 145.61 185.289C145.408 185.038 145.162 184.902 144.874 184.881L145.578 184.329L147.138 184.225C147.442 184.358 147.709 184.587 147.938 184.913C148.173 185.233 148.386 185.603 148.578 186.025C148.776 186.446 148.968 186.881 149.154 187.329C149.346 187.777 149.552 188.193 149.77 188.577C149.85 188.726 149.93 188.873 150.01 189.017C150.096 189.161 150.178 189.305 150.258 189.449H147.482ZM151.976 189.449V177.561H159.232V179.449H154.472V182.433H158.08V184.281H154.472V187.521H159.736V189.449H151.976Z" fill="white"/>
</svg>
