<svg width="470" height="362" viewBox="0 0 470 362" fill="none" xmlns="http://www.w3.org/2000/svg">
<path d="M214.734 67.6064C214.734 67.6064 189.5 141.607 99.5967 127.262C15.8122 113.886 -25.8695 266.537 101.646 359.197H314.433C314.433 359.197 487.84 216.879 411.718 69.0777C346.515 -57.5568 233.904 21.3933 214.734 67.6064Z" fill="#E9EEFF"/>
<path d="M44.168 61.0251H337.386" stroke="#B8D3FF" stroke-width="1.47891"/>
<path d="M333.814 205.324H47.7394C46.1803 205.324 44.9075 204.052 44.9075 202.498V38.2739C44.9075 36.7002 46.1772 35.4472 47.7394 35.4472H333.814C335.374 35.4472 336.646 36.7197 336.646 38.2739V202.475C336.646 204.055 335.37 205.324 333.814 205.324Z" stroke="#B8D3FF" stroke-width="1.47891"/>
<path opacity="0.72" d="M58.3632 181.01H21.3154C20.1852 181.01 19.2585 180.085 19.2585 178.956C19.2585 177.828 20.1852 176.902 21.3154 176.902H58.3406C59.4708 176.902 60.3976 177.828 60.3976 178.956C60.3976 180.107 59.4934 181.01 58.3632 181.01Z" fill="#646EDD"/>
<path d="M209.786 17.5019H149.389C148.258 17.5019 147.332 16.5765 147.332 15.448C147.332 14.3194 148.258 13.394 149.389 13.394H209.786C210.916 13.394 211.843 14.3194 211.843 15.448C211.843 16.5765 210.916 17.5019 209.786 17.5019Z" fill="#C3C9ED"/>
<path d="M361.979 171.892H357.187C355.921 171.892 354.904 170.876 354.904 169.612V165.098C354.904 163.834 355.921 162.818 357.187 162.818H361.979C363.245 162.818 364.262 163.834 364.262 165.098V169.612C364.262 170.876 363.245 171.892 361.979 171.892Z" fill="#646EDD"/>
<path d="M112.952 9.18056H108.16C106.894 9.18056 105.877 8.16489 105.877 6.90093V2.38681C105.877 1.12286 106.894 0.107178 108.16 0.107178H112.952C114.217 0.107178 115.235 1.12286 115.235 2.38681V6.90093C115.235 8.14232 114.217 9.18056 112.952 9.18056Z" fill="#646EDD"/>
<path d="M74.3668 87.4328H3.27757C1.46925 87.4328 0 85.9657 0 84.1601V16.2451C0 14.4395 1.46925 12.9724 3.27757 12.9724H74.3442C76.1525 12.9724 77.6218 14.4395 77.6218 16.2451V84.1375C77.6444 85.9657 76.1751 87.4328 74.3668 87.4328Z" fill="white"/>
<path d="M76.8823 84.1375L76.8824 84.1467C76.8999 85.5599 75.7662 86.6934 74.3668 86.6934H3.27757C1.87661 86.6934 0.739454 85.5563 0.739454 84.1601V16.2451C0.739454 14.8489 1.87661 13.7119 3.27757 13.7119H74.3442C75.7452 13.7119 76.8823 14.8489 76.8823 16.2451L76.8823 84.1375Z" stroke="#B8D3FF" stroke-width="1.47891"/>
<path d="M95.8857 104.587H24.8191C23.0108 104.587 21.5415 103.119 21.5415 101.314V33.4214C21.5415 31.6158 23.0108 30.1487 24.8191 30.1487H95.8857C97.694 30.1487 99.1633 31.6158 99.1633 33.4214V101.314C99.1859 103.119 97.694 104.587 95.8857 104.587Z" fill="#2778FF"/>
<rect x="309.275" width="156.185" height="91.7134" rx="1.81611" fill="#BFCEFF"/>
<rect x="313.815" y="3.63232" width="156.185" height="91.7134" rx="1.81611" fill="#646464"/>
<path d="M313.815 5.44843C313.815 4.44542 314.628 3.63232 315.631 3.63232H468.184C469.187 3.63232 470 4.44542 470 5.44843V10.8967H313.815V5.44843Z" fill="white"/>
<rect x="317.447" y="6.35645" width="7.26442" height="2.72416" fill="#878787"/>
<rect x="327.436" y="6.35645" width="60.8396" height="2.72416" fill="#878787"/>
<rect x="323.803" y="19.0693" width="109.874" height="3.63221" fill="#BDBDBD"/>
<rect x="323.803" y="37.23" width="44.4946" height="3.63221" fill="#BDBDBD"/>
<rect x="375.562" y="37.23" width="44.4946" height="3.63221" fill="#BDBDBD"/>
<rect x="323.803" y="44.4949" width="44.4946" height="3.63221" fill="#BDBDBD"/>
<rect x="375.562" y="44.4949" width="44.4946" height="3.63221" fill="#BDBDBD"/>
<rect x="323.803" y="51.759" width="44.4946" height="3.63221" fill="#BDBDBD"/>
<rect x="375.562" y="51.759" width="44.4946" height="3.63221" fill="#BDBDBD"/>
<rect x="323.803" y="29.0579" width="134.392" height="3.63221" fill="#BDBDBD"/>
<rect x="323.803" y="62.6555" width="76.2765" height="3.63221" fill="#BDBDBD"/>
<rect x="381.919" y="75.3684" width="76.2765" height="3.63221" fill="#BDBDBD"/>
<path d="M321.196 60.01C321.655 60.6193 334.678 60.0292 338.56 67.0894C343.462 76.0329 336.569 89.3185 326.383 97.0604L321.196 60.01Z" fill="#20120C"/>
<path d="M330.851 61.6442C330.851 61.6442 329.448 50.8667 316.313 51.8731C310.193 52.3422 307.468 57.0482 299.375 57.225C291.551 57.3952 285.787 60.989 287.008 67.4177C288.338 74.4749 295.063 75.2498 306.813 75.233L330.851 61.6442Z" fill="#20120C"/>
<path d="M304.307 86.875C304.619 90.1709 302.289 93.1025 299.097 93.4338C295.903 93.7536 292.427 91.3478 292.103 88.0536C291.792 84.7577 294.122 81.8261 297.314 81.4949C300.519 81.1733 303.995 83.5791 304.307 86.875Z" fill="#FF9D82"/>
<path d="M307.859 102.412L308.272 116.734C308.408 121.771 311.489 124.355 316.29 124.173C320.389 124.006 326.098 123.155 325.786 118.721L322.812 94.9507L307.859 102.412Z" fill="#FCB39F"/>
<path d="M308.07 111.873C308.07 111.873 319.311 109.87 321.694 100.84C322.787 96.68 307.786 100.957 307.786 100.957L308.07 111.873Z" fill="#1D0300"/>
<path d="M312.282 106.455C304.085 106.718 297.137 100.263 296.688 93.3622L295.848 78.9417C295.295 70.3087 301.483 62.7768 309.837 61.9375C318.389 61.0794 329.868 67.3473 330.709 76.1703L328.874 87.4387C329.354 97.5732 322.061 105.476 312.282 106.455Z" fill="#FCB39F"/>
<path d="M325.52 88.0885L323.67 84.1981C322.031 80.3806 323.986 77.2256 324.641 75.6923C325.377 73.9235 325.152 70.3559 322.053 68.2554C317.519 65.1689 309.306 63.9679 301.463 67.4971C299.245 68.4986 297.481 70.3097 296.623 72.5786C296.239 73.5887 295.96 74.6647 295.97 75.6371L295.916 73.4746C295.736 65.2765 302.292 59.1309 310.499 59.0068C313.371 58.9599 316.642 58.5342 320.304 59.0336C329.549 60.2974 336.912 68.589 334.49 77.5899L331.847 83.6562L325.52 88.0885Z" fill="#20120C"/>
<path d="M337.62 86.9258C337.938 90.1855 334.995 93.1066 331.824 93.4229C328.653 93.7391 325.837 91.3482 325.519 88.0884C325.201 84.8286 328.767 81.9047 331.938 81.5885C335.107 81.2608 337.3 83.6545 337.62 86.9258Z" fill="#FCB39F"/>
<path d="M329.439 89.7211C329.439 89.7211 329.95 85.1358 334.314 85.6905" stroke="black" stroke-width="0.806005" stroke-miterlimit="10" stroke-linecap="round" stroke-linejoin="round"/>
<path d="M301.677 84.7727C301.506 85.562 300.737 86.057 299.946 85.8863C299.156 85.7156 298.661 84.9476 298.832 84.1583C299.003 83.369 299.773 82.874 300.563 83.0447C301.353 83.2154 301.849 83.9834 301.677 84.7727Z" fill="#20120C"/>
<path d="M314.423 84.4371C314.252 85.2264 313.482 85.7213 312.692 85.5506C311.902 85.38 311.406 84.612 311.578 83.8226C311.749 83.0333 312.518 82.5384 313.309 82.709C314.088 82.8815 314.594 83.6477 314.423 84.4371Z" fill="#20120C"/>
<path d="M305.349 87.0776L304.158 89.6213C303.939 90.0307 304.111 90.5321 304.529 90.7254L305.949 91.3967" stroke="black" stroke-width="0.806005" stroke-miterlimit="10" stroke-linecap="round" stroke-linejoin="round"/>
<path d="M313.842 74.7168C313.842 74.7168 309.231 74.0831 309.154 76.5359C309.154 76.5359 309.131 78.2058 313.162 78.6596C317.181 79.1153 318.768 78.8923 319.149 77.3312C319.531 75.7816 316.005 74.7918 313.842 74.7168Z" fill="#20120C"/>
<path d="M297.697 75.4865C297.697 75.4865 301.933 74.5356 302.33 76.9383C302.33 76.9383 302.573 78.5786 298.864 79.2951C296.161 79.8204 295.218 79.2744 295.036 78.1762C294.81 76.8735 296.108 75.6979 297.697 75.4865Z" fill="#20120C"/>
<path d="M313.044 93.1936C313.044 93.1936 310.059 95.8397 306.073 94.7687" stroke="black" stroke-width="0.806005" stroke-miterlimit="10" stroke-linecap="round" stroke-linejoin="round"/>
<path d="M322.051 68.2439C322.051 68.2439 317.362 64.7592 312.538 67.9019C307.704 71.0579 293.512 75.4788 292.658 67.5499C291.803 59.6209 312.359 60.7715 312.359 60.7715L323.271 63.0792L322.051 68.2439Z" fill="#20120C"/>
<path d="M303.077 125.608V118.953L330.437 107.861L361.494 207.687L291.985 206.948V170.715L303.077 125.608Z" fill="#2778FF"/>
<path d="M302.868 130.814L328.958 119.692" stroke="white" stroke-width="1.47891"/>
<path d="M317.126 167.248L337.831 171.684L340.789 156.895C341.528 152.459 340.493 142.994 330.437 140.627C316.831 138.852 311.95 147.775 311.211 152.458L308.992 166.508" stroke="white" stroke-width="1.47891"/>
<path d="M260.47 162.765L291.527 169.42L293.745 176.075C282.407 180.758 258.843 190.421 255.294 191.604C251.744 192.787 250.364 191.111 250.117 190.125L248.639 187.906L246.42 190.864C246.42 192.836 245.533 196.78 241.983 196.78C238.434 196.78 238.533 191.85 239.026 189.385C240.751 183.963 244.793 171.934 247.16 167.202C249.526 162.469 257.019 162.272 260.47 162.765Z" fill="#E57858"/>
<path d="M331.457 196.041L337.092 172.194L309.732 166.278L306.316 177.554C292.513 175.336 261.505 169.716 247.899 164.984C234.293 160.251 227.441 167.942 225.715 172.378L223.497 184.21C222.018 188.153 220.096 196.189 224.237 196.78C229.413 197.52 229.413 190.865 230.892 188.646C231.631 192.343 234.589 193.822 235.328 193.822C236.068 193.822 238.286 190.865 239.026 188.646C239.765 190.125 241.244 192.343 243.462 193.083C245.237 193.675 246.667 190.865 247.16 189.386C260.963 193.329 292.71 202.252 309.274 206.393C325.837 210.534 330.964 201.217 331.457 196.041Z" fill="#FCB39F"/>
<path d="M230.892 178.294C230.399 181.252 229.856 187.315 231.631 187.907M250.117 183.47L239.674 180.859C238.9 180.666 238.109 181.12 237.953 181.903C237.58 183.768 237.364 186.245 238.286 187.167" stroke="black" stroke-width="1.47891" stroke-linecap="round"/>
<path d="M307.514 339.31C306.035 336.106 302.337 329.697 299.38 329.697C296.422 329.697 300.119 339.556 302.337 344.486M306.774 340.789C303.323 338.324 295.978 334.134 294.203 337.092C292.429 340.049 296.915 343.254 299.38 344.486" stroke="#19243D" stroke-width="0.739454"/>
<path d="M350.402 328.5V355H267L272.656 348.347C275.554 344.938 279.728 342.874 284.195 342.639L305.295 341.528L308.253 328.5H350.402Z" fill="#0D1526"/>
<path d="M350.5 355H268V356.542C268 358.176 269.324 359.5 270.958 359.5H347.542C349.176 359.5 350.5 358.176 350.5 356.542V355Z" fill="#BAB9B9"/>
<circle r="5.91563" transform="matrix(-1 0 0 1 336.352 340.789)" stroke="white" stroke-width="1.47891"/>
<path d="M342.268 320.084L305 320.304L310.5 328.5H347L342.268 320.084Z" fill="#FFAA91"/>
<path d="M335.971 254.152C361.997 244.854 364.914 218.541 362.233 206.948C331.354 206.948 283.913 212.864 261.976 212.864C240.04 212.864 239.496 232.582 241.967 242.442L301 320.804L343.747 320.084L294.585 256.491C299.238 257.155 293.902 256.628 317.565 256.513C323.783 256.482 330.115 256.244 335.971 254.152Z" fill="#0A1328"/>
<path d="M337.561 250.518C363.253 241.773 365.167 218.527 362.495 206.948H242.704C220.816 206.948 220.274 226.667 222.739 236.526L260.451 323.782H307.514L275.24 250.576C279.916 251.244 291.595 252.516 319.111 252.755C325.343 252.809 331.662 252.526 337.561 250.518Z" fill="#19243D"/>
<path d="M362.973 218.779H351.881C348.923 225.681 344.486 240.223 350.402 243.181" stroke="white" stroke-width="1.47891" stroke-linecap="round"/>
<path d="M313.429 211.385L305.295 215.821H283.851" stroke="white" stroke-width="1.47891" stroke-linecap="round"/>
<path d="M266.104 343.747C264.625 340.542 260.928 334.134 257.97 334.134C255.012 334.134 258.71 343.993 260.928 348.923M265.365 345.226C261.914 342.761 254.569 338.571 252.794 341.528C251.019 344.486 255.505 347.69 257.97 348.923" stroke="#19243D" stroke-width="0.739454"/>
<path d="M308.992 331.176V357.057H226.174L231.372 351.858C234.214 349.016 238.007 347.327 242.02 347.116L263.886 345.965L266.844 331.176H308.992Z" fill="#19243D"/>
<path d="M308.992 357.057H226.174V358.536C226.174 360.169 227.498 361.494 229.131 361.494H306.035C307.668 361.494 308.992 360.169 308.992 358.536V357.057Z" fill="#C4C4C4"/>
<circle r="5.91563" transform="matrix(-1 0 0 1 294.943 345.226)" stroke="white" stroke-width="1.47891"/>
<path d="M304.556 323.781H267.583V331.176H305.295L304.556 323.781Z" fill="#FCB39F"/>
<rect x="115.256" y="196.595" width="134.581" height="10.3524" fill="#FF6767"/>
<rect x="309.739" y="256.739" width="82.5211" height="103.521" stroke="#B8D3FF" stroke-width="1.47891"/>
<line x1="241.702" y1="206.948" x2="241.702" y2="359.276" stroke="#B8D3FF" stroke-width="1.47891"/>
<line x1="126.347" y1="206.948" x2="126.347" y2="359.276" stroke="#B8D3FF" stroke-width="1.47891"/>
<circle cx="90.5923" cy="332.135" r="27.3598" fill="#2778FF"/>
<circle cx="117.213" cy="259.668" r="21.4442" fill="#499658"/>
<circle cx="66.1903" cy="281.113" r="14.7891" fill="#72DD87"/>
<circle cx="66.1903" cy="229.351" r="16.268" fill="#60C274"/>
<ellipse cx="89.8528" cy="306.254" rx="10.3524" ry="1.47891" fill="#231661"/>
<path d="M62.493 272.239C68.9016 274.951 81.7188 285.549 81.7188 306.254" stroke="black" stroke-width="0.739454" stroke-linecap="round"/>
<path d="M120.91 258.929C113.022 262.701 97.2473 277.447 97.2473 306.254" stroke="black" stroke-width="0.739454" stroke-linecap="round"/>
<path d="M61.7536 223.435C71.12 231.816 89.8528 256.711 89.8528 289.247C89.8528 299.303 89.8528 304.775 89.8528 306.254" stroke="black" stroke-width="0.739454"/>
<path d="M210.463 152.476C210.237 151.052 209.017 149.998 207.576 149.982L148.673 149.312C146.785 149.291 145.361 151.019 145.742 152.868L154.613 195.856L217.466 196.596L210.463 152.476Z" fill="#C4C4C4"/>
<path d="M238.171 194.377C238.171 193.152 237.178 192.159 235.953 192.159H213.03V196.595H235.953C237.178 196.595 238.171 195.602 238.171 194.377Z" fill="#C4C4C4"/>
<circle cx="177.536" cy="171.454" r="6.65508" stroke="white" stroke-width="1.47891"/>
<path d="M38.6528 66.7443C38.6522 65.2727 38.7939 63.8044 39.0758 62.3599C40.3258 62.2149 41.5222 61.7707 42.5633 61.065C43.6044 60.3592 44.4592 59.4129 45.0552 58.3064C45.6888 57.1512 46.0458 55.8652 46.0984 54.5492C46.1509 53.2332 45.8975 51.9229 45.3581 50.7209C47.5714 48.5697 50.2403 46.9422 53.1679 45.9585C53.8524 47.0406 54.7988 47.9331 55.9199 48.5537C57.041 49.1744 58.3006 49.5031 59.5825 49.5096C60.8644 49.5161 62.1273 49.2001 63.2547 48.5909C64.382 47.9816 65.3375 47.0987 66.0329 46.0237C68.9598 47.0409 71.62 48.7025 73.8166 50.8852C73.3141 52.0706 73.0868 53.3542 73.1514 54.6398C73.2161 55.9254 73.5711 57.1798 74.19 58.3091C74.7667 59.3805 75.5866 60.3022 76.5841 61.0007C77.5816 61.6991 78.7289 62.1547 79.9344 62.3312C80.5555 65.4994 80.5004 68.7627 79.7725 71.9082C78.5988 72.1074 77.486 72.571 76.5187 73.2639C75.5513 73.9568 74.7549 74.8607 74.19 75.9069C73.6158 76.9533 73.268 78.1083 73.169 79.2973C73.0701 80.4863 73.2222 81.6828 73.6155 82.8094C71.348 85.0008 68.6075 86.6443 65.6046 87.6136C64.8894 86.7035 63.9753 85.9685 62.9322 85.4649C61.889 84.9612 60.7444 84.7021 59.5857 84.7074C58.427 84.7127 57.2847 84.9822 56.2463 85.4953C55.2078 86.0085 54.3004 86.7517 53.5936 87.6683C50.5966 86.7349 47.853 85.13 45.5722 82.9763C45.9967 81.8301 46.1698 80.6063 46.0797 79.3876C45.9896 78.1689 45.6384 76.9837 45.05 75.9121C44.4669 74.8293 43.6358 73.8994 42.6244 73.1981C41.6129 72.4969 40.4498 72.0442 39.2299 71.8769C38.8438 70.1934 38.6502 68.4715 38.6528 66.7443ZM59.5077 75.7479C61.2793 75.751 63.012 75.2293 64.4865 74.2489C65.961 73.2685 67.1111 71.8735 67.7911 70.2403C68.4711 68.6072 68.6505 66.8093 68.3065 65.0744C67.9626 63.3394 67.1109 61.7453 65.8591 60.4937C64.6073 59.2422 63.0117 58.3896 61.2743 58.0437C59.5369 57.6979 57.7357 57.8743 56.0988 58.5508C54.4619 59.2272 53.0629 60.3733 52.0787 61.8439C51.0944 63.3145 50.5694 65.0435 50.5699 66.8121C50.5685 69.1802 51.5093 71.4519 53.1854 73.1276C54.8615 74.8033 57.1356 75.7458 59.5077 75.7479Z" fill="#AFC5EA"/>
<path d="M37.7462 65.8376C37.7456 64.3659 37.8872 62.8976 38.1692 61.4531C39.4191 61.3082 40.6156 60.864 41.6566 60.1582C42.6977 59.4525 43.5526 58.5062 44.1486 57.3997C44.7821 56.2445 45.1392 54.9585 45.1917 53.6424C45.2443 52.3264 44.9909 51.0161 44.4515 49.8142C46.6647 47.663 49.3337 46.0354 52.2613 45.0518C52.9457 46.1338 53.8922 47.0264 55.0133 47.647C56.1344 48.2676 57.394 48.5963 58.6759 48.6028C59.9578 48.6093 61.2207 48.2934 62.348 47.6841C63.4753 47.0749 64.4308 46.192 65.1262 45.1169C68.0531 46.1342 70.7134 47.7957 72.9099 49.9784C72.4075 51.1639 72.1801 52.4475 72.2448 53.7331C72.3094 55.0187 72.6645 56.273 73.2833 57.4023C73.8601 58.4737 74.68 59.3955 75.6774 60.0939C76.6749 60.7923 77.8223 61.248 79.0278 61.4245C79.6489 64.5927 79.5937 67.856 78.8659 71.0015C77.6921 71.2007 76.5793 71.6643 75.612 72.3572C74.6447 73.0501 73.8483 73.9539 73.2833 75.0002C72.7092 76.0465 72.3614 77.2016 72.2624 78.3906C72.1634 79.5796 72.3156 80.7761 72.7089 81.9027C70.4413 84.0941 67.7009 85.7375 64.698 86.7069C63.9828 85.7967 63.0687 85.0618 62.0255 84.5581C60.9824 84.0544 59.8378 83.7954 58.679 83.8006C57.5203 83.8059 56.3781 84.0754 55.3396 84.5886C54.3011 85.1018 53.3938 85.845 52.6869 86.7616C49.6899 85.8282 46.9463 84.2233 44.6656 82.0695C45.0901 80.9233 45.2631 79.6995 45.173 78.4808C45.0829 77.2621 44.7318 76.0769 44.1434 75.0054C43.5603 73.9226 42.7292 72.9926 41.7177 72.2914C40.7063 71.5902 39.5432 71.1375 38.3232 70.9702C37.9371 69.2866 37.7435 67.5647 37.7462 65.8376ZM58.6011 74.8412C60.3727 74.8442 62.1054 74.3226 63.5799 73.3422C65.0544 72.3618 66.2044 70.9667 66.8844 69.3336C67.5644 67.7004 67.7438 65.9026 67.3999 64.1676C67.056 62.4326 66.2042 60.8385 64.9524 59.587C63.7006 58.3355 62.105 57.4828 60.3676 57.137C58.6302 56.7911 56.8291 56.9676 55.1922 57.644C53.5553 58.3205 52.1562 59.4666 51.172 60.9371C50.1878 62.4077 49.6627 64.1368 49.6632 65.9054C49.6619 68.2735 50.6027 70.5451 52.2787 72.2208C53.9548 73.8966 56.229 74.8391 58.6011 74.8412Z" fill="#EFF5FF"/>
<rect x="21.9171" y="136.373" width="66.9689" height="28.0052" rx="2.43523" fill="#8F97E6"/>
<path d="M41.1339 148.593C43.5136 148.593 44.7034 149.96 44.7034 152.695V158.808H42.2383V152.813C42.2383 152.024 42.0871 151.452 41.7847 151.097C41.4823 150.729 41.0155 150.545 40.3844 150.545C39.635 150.545 39.0302 150.788 38.5701 151.275C38.1099 151.748 37.8798 152.379 37.8798 153.168V158.808H35.4343V144.293H37.8798V150.289C38.2216 149.75 38.6752 149.335 39.2406 149.046C39.8059 148.744 40.437 148.593 41.1339 148.593ZM50.453 150.703V155.16C50.453 156.33 50.9987 156.915 52.0899 156.915C52.3923 156.915 52.721 156.862 53.076 156.757V158.71C52.6421 158.868 52.1162 158.946 51.4983 158.946C50.3676 158.946 49.4998 158.631 48.895 158C48.2903 157.369 47.9879 156.461 47.9879 155.278V150.703H46.0749V148.849H47.9879V146.423L50.453 145.595V148.849H53.0957V150.703H50.453ZM66.544 148.593C67.6747 148.593 68.5161 148.934 69.0683 149.618C69.6205 150.289 69.8966 151.314 69.8966 152.695V158.808H67.4314V152.774C67.4314 151.985 67.3 151.419 67.037 151.078C66.7872 150.723 66.3665 150.545 65.7748 150.545C65.0912 150.545 64.5521 150.788 64.1577 151.275C63.7764 151.748 63.5857 152.405 63.5857 153.247V158.808H61.1205V152.774C61.1205 151.998 60.9825 151.432 60.7064 151.078C60.4434 150.723 60.0227 150.545 59.4442 150.545C58.7605 150.545 58.2215 150.788 57.8271 151.275C57.4326 151.748 57.2354 152.405 57.2354 153.247V158.808H54.7899V151.669C54.7899 150.617 54.7373 149.677 54.6322 148.849H56.9396L57.1171 150.427C57.4063 149.835 57.8205 149.381 58.3595 149.066C58.9117 148.75 59.5428 148.593 60.2528 148.593C61.7779 148.593 62.7706 149.224 63.2308 150.486C63.5463 149.894 63.9933 149.434 64.5718 149.105C65.1635 148.764 65.8208 148.593 66.544 148.593ZM72.5278 158.808V144.293H74.9732V158.808H72.5278Z" fill="white"/>
<path d="M123.651 72.788V74.1907L118.07 76.5285L123.651 78.881V80.2837L116.463 77.2299V75.8272L123.651 72.788ZM129.256 81.6133H127.722L131.507 69.7488H133.07L129.256 81.6133ZM137.138 72.788L144.327 75.8272V77.2299L137.138 80.2837V78.881L142.72 76.5285L137.138 74.1907V72.788Z" fill="#2778FF"/>
<path d="M197.205 135.188H195.671L199.455 123.324H201.019L197.205 135.188ZM205.087 126.363L212.276 129.402V130.805L205.087 133.859V132.456L210.669 130.104L205.087 127.766V126.363Z" fill="#2778FF"/>
<path d="M123.651 116.622V118.025L118.07 120.363L123.651 122.715V124.118L116.463 121.064V119.661L123.651 116.622Z" fill="#2778FF"/>
<rect x="131.503" y="85.2332" width="80.3627" height="2.43523" fill="#2778FF"/>
<rect x="131.503" y="97.4094" width="80.3627" height="2.43523" fill="#2778FF"/>
<rect x="131.503" y="118.109" width="80.3627" height="2.43523" fill="#2778FF"/>
<rect x="131.503" y="126.632" width="62.0984" height="2.43523" fill="#2778FF"/>
<rect x="131.503" y="91.3213" width="26.7876" height="2.43523" fill="#BBD5FF"/>
<rect x="165.596" y="91.3213" width="57.228" height="2.43523" fill="#2778FF"/>
<line x1="18" y1="361" x2="428" y2="361" stroke="#19243D" stroke-width="2" stroke-linecap="round"/>
</svg>
