<svg width="449" height="187" viewBox="0 0 449 187" fill="none" xmlns="http://www.w3.org/2000/svg">
<rect width="449" height="187" fill="white"/>
<line x1="55.521" y1="180.915" x2="149.577" y2="180.915" stroke="#445BFD" stroke-width="2"/>
<line x1="398.028" y1="180.915" x2="414" y2="180.915" stroke="#445BFD" stroke-width="2"/>
<line x1="167.324" y1="180.915" x2="387.38" y2="180.915" stroke="#445BFD" stroke-width="2"/>
<path d="M321.719 29.2949H319.679H135.381C128.52 29.2949 122.958 34.8567 122.958 41.7175V165.943H317.454H334.141V41.7175C334.141 34.8567 328.58 29.2949 321.719 29.2949Z" fill="white" stroke="#445BFD" stroke-width="2"/>
<path d="M321.718 45.2668H309.781H137.155V165.943H307.945H321.718V45.2668Z" fill="#E7F2FF" stroke="#445BFD" stroke-width="2"/>
<path d="M325.354 37.2892L291.079 28.9296L267.156 121.722L301.444 132.596L325.354 37.2892Z" fill="white"/>
<path d="M259.606 165.943H91.0142V173.041C91.0142 177.942 94.9869 181.915 99.8874 181.915H272.916L259.606 165.943Z" fill="white" stroke="#445BFD" stroke-width="2"/>
<path d="M134.959 76.7118L165.665 71.3835L209.886 65.8627L215.686 117.779L217.861 135.178L146.307 145.92L134.959 76.7118Z" fill="white"/>
<rect x="164.216" y="9.35632" width="126.981" height="109.345" fill="white" stroke="#445BFD" stroke-width="2"/>
<path d="M164.216 94.9075L195.57 66.1378C196.923 64.8958 199.003 64.9006 200.351 66.1488L249.479 111.647M226.387 83.1899L247.12 64.4026C248.46 63.1885 250.501 63.1842 251.846 64.3927L287.669 96.5815" stroke="#445BFD" stroke-width="2"/>
<circle cx="259.452" cy="34.0467" r="14.109" fill="#C1DDFF"/>
<path d="M163.775 167.717H195.718C195.718 170.658 193.335 173.041 190.394 173.041H169.099C166.158 173.041 163.775 170.658 163.775 167.717Z" fill="#445BFD"/>
<path d="M250.732 165.943H334.141V167.717C334.141 175.558 327.784 181.915 319.943 181.915H264.929C257.088 181.915 250.732 175.558 250.732 167.717V165.943Z" fill="white" stroke="#445BFD" stroke-width="2"/>
<path fill-rule="evenodd" clip-rule="evenodd" d="M328.994 16.3398C330.759 16.3398 332.189 14.9096 332.189 13.1454C332.189 11.3812 330.759 9.95105 328.994 9.95105C327.23 9.95105 325.8 11.3812 325.8 13.1454C325.8 14.9096 327.23 16.3398 328.994 16.3398Z" fill="#C1DDFF"/>
<path fill-rule="evenodd" clip-rule="evenodd" d="M376.289 143.316L376.289 149.971H380.282V143.316H385.606V139.323H380.282V133.999L376.289 133.999L376.289 139.323H369.634V143.316H376.289Z" fill="#435BFD"/>
<path fill-rule="evenodd" clip-rule="evenodd" d="M83.9155 15.4533C83.9155 8.98454 89.1595 3.7406 95.6282 3.7406C102.097 3.7406 107.341 8.98454 107.341 15.4533C107.341 21.922 102.097 27.166 95.6282 27.166C89.1595 27.166 83.9155 21.922 83.9155 15.4533ZM95.6282 7.99976C91.5117 7.99976 88.1747 11.3368 88.1747 15.4533C88.1747 19.5697 91.5117 22.9068 95.6282 22.9068C99.7447 22.9068 103.082 19.5697 103.082 15.4533C103.082 11.3368 99.7447 7.99976 95.6282 7.99976Z" fill="#C1DDFF"/>
<path fill-rule="evenodd" clip-rule="evenodd" d="M376.377 55.2046C378.142 55.2046 379.572 53.7745 379.572 52.0103C379.572 50.2461 378.142 48.8159 376.377 48.8159C374.613 48.8159 373.183 50.2461 373.183 52.0103C373.183 53.7745 374.613 55.2046 376.377 55.2046Z" fill="#435BFD"/>
<path fill-rule="evenodd" clip-rule="evenodd" d="M104.501 147.842C106.266 147.842 107.696 146.412 107.696 144.647C107.696 142.883 106.266 141.453 104.501 141.453C102.737 141.453 101.307 142.883 101.307 144.647C101.307 146.412 102.737 147.842 104.501 147.842Z" fill="#435BFD"/>
<path fill-rule="evenodd" clip-rule="evenodd" d="M74.3463 78.118H58.3745V74.125H74.3463V78.118Z" fill="#435BFD"/>
<path fill-rule="evenodd" clip-rule="evenodd" d="M65.0295 84.773L65.0295 68.8011L69.0225 68.8011L69.0225 84.773L65.0295 84.773Z" fill="#435BFD"/>
<path d="M306.926 65.9014C313.305 51.2093 309.584 38.5149 306.926 34.0042L325.152 37.8705L309.928 102.148C307.27 96.671 300.547 80.5935 306.926 65.9014Z" fill="#C1E1FF"/>
<path d="M291.805 28.9296L326.079 37.2892L304.344 134.046L259.182 118.822" stroke="#445BFD" stroke-width="2"/>
<path d="M152.546 143.286C153.11 113.955 141.97 89.2306 136.329 80.5347L133.509 81.2397L145.495 144.697L152.546 143.286Z" fill="#C1E1FF"/>
<path d="M164.215 70.976L133.508 76.3043L144.857 145.513L216.411 134.77L214.236 117.372" stroke="#445BFD" stroke-width="2"/>
<mask id="mask0" mask-type="alpha" maskUnits="userSpaceOnUse" x="213" y="11" width="159" height="139">
<path d="M292.658 64.72L294.252 11.3511H371.517V149.951H213.8V81.9586L292.658 64.72Z" fill="#C4C4C4"/>
</mask>
<g mask="url(#mask0)">
<circle r="15.5885" transform="matrix(-0.739115 0.673579 0.673579 0.739115 350.233 41.4087)" fill="white" stroke="#445BFD" stroke-width="2"/>
<circle r="15.5885" transform="matrix(-0.739115 0.673579 0.673579 0.739115 347.99 102.285)" fill="white" stroke="#445BFD" stroke-width="2"/>
<path d="M294.62 29.3733C285.299 19.1444 269.604 18.1848 259.116 27.0319L313.572 86.7865L331.802 70.1728L294.62 29.3733Z" fill="white" stroke="#445BFD" stroke-width="2"/>
<mask id="path-29-inside-1" fill="white">
<path d="M291.07 108.647C280.52 118.261 264.174 117.502 254.56 106.953L315.807 51.1366L333.215 70.2382L291.07 108.647Z"/>
</mask>
<path d="M291.07 108.647C280.52 118.261 264.174 117.502 254.56 106.953L315.807 51.1366L333.215 70.2382L291.07 108.647Z" fill="white"/>
<path d="M315.807 51.1366L317.285 49.7894C316.541 48.973 315.276 48.9143 314.46 49.6583L315.807 51.1366ZM333.215 70.2382L334.562 71.7165C335.379 70.9724 335.437 69.7075 334.693 68.8911L333.215 70.2382ZM255.907 108.431L317.154 52.6148L314.46 49.6583L253.213 105.475L255.907 108.431ZM314.329 52.4837L331.737 71.5854L334.693 68.8911L317.285 49.7894L314.329 52.4837ZM331.868 68.76L289.723 107.168L292.417 110.125L334.562 71.7165L331.868 68.76ZM253.082 108.3C263.44 119.666 281.051 120.483 292.417 110.125L289.723 107.168C279.989 116.039 264.908 115.339 256.038 105.606L253.082 108.3Z" fill="#445BFD" mask="url(#path-29-inside-1)"/>
<line y1="-1" x2="16.409" y2="-1" transform="matrix(-0.739115 0.673579 0.673579 0.739115 338.159 51.3025)" stroke="#445BFD" stroke-width="2"/>
<line y1="-1" x2="17.581" y2="-1" transform="matrix(-0.673579 -0.739115 -0.739115 0.673579 336.629 89.6451)" stroke="#445BFD" stroke-width="2"/>
</g>
</svg>
