<svg width="449" height="187" viewBox="0 0 449 187" fill="none" xmlns="http://www.w3.org/2000/svg">
<rect width="449" height="187" fill="white"/>
<line x1="81.5227" y1="184.578" x2="161.131" y2="184.578" stroke="#445BFD" stroke-width="2"/>
<line x1="371.418" y1="184.578" x2="384.937" y2="184.578" stroke="#445BFD" stroke-width="2"/>
<line x1="176.152" y1="184.578" x2="362.406" y2="184.578" stroke="#445BFD" stroke-width="2"/>
<path d="M306.83 55.4019H305.104H149.115C143.308 55.4019 138.601 60.1093 138.601 65.9162V171.06H303.221H317.344V65.9162C317.344 60.1093 312.637 55.4019 306.83 55.4019Z" fill="white" stroke="#445BFD" stroke-width="2"/>
<path d="M306.83 68.9203H296.727H150.617V171.06H295.172H306.83V68.9203Z" fill="#E7F2FF" stroke="#445BFD" stroke-width="2"/>
<path d="M296.316 36.6263H324.855C326.357 26.3623 325.155 5.83429 311.336 5.83429" stroke="#445BFD" stroke-width="2"/>
<path d="M294.814 20.7868C294.814 10.021 305.578 6.33271 311.336 5.83429H177.654C166.839 5.83429 163.134 12.8121 162.633 16.3011V171.06H292.561C292.561 162.619 292.638 152.524 292.764 141.608C292.847 134.323 292.953 126.673 293.072 118.905C293.187 111.373 293.314 103.731 293.447 96.2027C293.512 92.4841 293.578 88.7936 293.645 85.1582C294.222 53.6595 294.814 26.3045 294.814 20.7868Z" fill="white" stroke="#445BFD" stroke-width="2"/>
<rect x="286.42" y="97.4299" width="8.59015" height="52.7681" fill="white"/>
<path d="M254.258 171.06H111.564V177.068C111.564 181.216 114.926 184.578 119.074 184.578H265.524L254.258 171.06Z" fill="white" stroke="#445BFD" stroke-width="2"/>
<path d="M175.975 88.8397H279.057" stroke="#9BC8FF" stroke-width="2" stroke-linecap="round"/>
<path d="M228.743 123.2H260.649" stroke="#9BC8FF" stroke-width="2" stroke-linecap="round"/>
<path d="M175.975 38.5259H217.698" stroke="#445BFD" stroke-width="2" stroke-linecap="round"/>
<path d="M175.975 104.793H279.057" stroke="#9BC8FF" stroke-width="2" stroke-linecap="round"/>
<path d="M228.743 139.153H248.378" stroke="#9BC8FF" stroke-width="2" stroke-linecap="round"/>
<path d="M175.975 59.3877H217.698" stroke="#445BFD" stroke-width="2" stroke-linecap="round"/>
<path d="M176.885 130.305C178.217 130.305 179.373 130.529 180.355 130.978C181.336 131.412 182.093 132.043 182.626 132.87C183.158 133.683 183.425 134.644 183.425 135.751C183.425 136.859 183.158 137.819 182.626 138.632C182.093 139.445 181.336 140.076 180.355 140.525C179.373 140.959 178.217 141.177 176.885 141.177H174.319V145.025H170.156V130.305H176.885ZM176.632 137.896C177.488 137.896 178.133 137.714 178.567 137.349C179.002 136.971 179.219 136.438 179.219 135.751C179.219 135.064 179.002 134.532 178.567 134.153C178.133 133.775 177.488 133.585 176.632 133.585H174.319V137.896H176.632ZM185.455 130.305H192.415C194.028 130.305 195.457 130.606 196.705 131.209C197.953 131.812 198.92 132.667 199.607 133.775C200.294 134.882 200.638 136.179 200.638 137.665C200.638 139.151 200.294 140.448 199.607 141.555C198.92 142.663 197.953 143.518 196.705 144.121C195.457 144.723 194.028 145.025 192.415 145.025H185.455V130.305ZM192.247 141.702C193.509 141.702 194.518 141.345 195.275 140.63C196.046 139.915 196.432 138.927 196.432 137.665C196.432 136.403 196.046 135.415 195.275 134.7C194.518 133.985 193.509 133.627 192.247 133.627H189.619V141.702H192.247ZM206.992 133.522V136.761H213.49V139.978H206.992V145.025H202.828V130.305H214.373V133.522H206.992Z" fill="#445BFD"/>
<rect x="162.476" y="119.519" width="55.5758" height="34.5471" stroke="#445BFD" stroke-width="2"/>
<rect x="225.062" y="22.5728" width="54.0738" height="46.5635" fill="white" stroke="#445BFD" stroke-width="2"/>
<path d="M225.062 59.0038L238.413 46.7525C238.99 46.2236 239.876 46.2257 240.45 46.7572L261.37 66.1322M251.536 54.014L260.366 46.0136C260.936 45.4966 261.805 45.4947 262.378 46.0094L277.633 59.7167" stroke="#445BFD" stroke-width="2"/>
<circle cx="265.617" cy="33.0871" r="6.0082" fill="#C1DDFF"/>
<path d="M173.148 172.562H200.185C200.185 175.05 198.167 177.068 195.679 177.068H177.654C175.165 177.068 173.148 175.05 173.148 172.562Z" fill="#445BFD"/>
<path d="M246.748 171.06H317.344V172.562C317.344 179.198 311.964 184.578 305.328 184.578H258.764C252.128 184.578 246.748 179.198 246.748 172.562V171.06Z" fill="white" stroke="#445BFD" stroke-width="2"/>
<path fill-rule="evenodd" clip-rule="evenodd" d="M366.933 54.7481C371.413 54.7481 375.044 51.1167 375.044 46.6371C375.044 42.1574 371.413 38.526 366.933 38.526C362.454 38.526 358.822 42.1574 358.822 46.6371C358.822 51.1167 362.454 54.7481 366.933 54.7481Z" stroke="#435BFD" stroke-width="2"/>
<path fill-rule="evenodd" clip-rule="evenodd" d="M350.389 33.7724C351.883 33.7724 353.093 32.5619 353.093 31.0687C353.093 29.5755 351.883 28.3651 350.389 28.3651C348.896 28.3651 347.686 29.5755 347.686 31.0687C347.686 32.5619 348.896 33.7724 350.389 33.7724Z" fill="#C1DDFF"/>
<path fill-rule="evenodd" clip-rule="evenodd" d="M353.018 151.909V157.541H356.398V151.909H360.904V148.529H356.398V144.023L353.018 144.023V148.529H347.385V151.909H353.018Z" fill="#435BFD"/>
<path fill-rule="evenodd" clip-rule="evenodd" d="M99.9324 79.5578C99.9324 74.0827 104.371 69.6442 109.846 69.6442C115.321 69.6442 119.759 74.0827 119.759 79.5578C119.759 85.0328 115.321 89.4713 109.846 89.4713C104.371 89.4713 99.9324 85.0328 99.9324 79.5578ZM109.846 73.2491C106.362 73.2491 103.537 76.0736 103.537 79.5578C103.537 83.0419 106.362 85.8664 109.846 85.8664C113.33 85.8664 116.155 83.0419 116.155 79.5578C116.155 76.0736 113.33 73.2491 109.846 73.2491Z" fill="#C1DDFF"/>
<path fill-rule="evenodd" clip-rule="evenodd" d="M387.296 89.3385C388.79 89.3385 390 88.128 390 86.6348C390 85.1416 388.79 83.9312 387.296 83.9312C385.803 83.9312 384.593 85.1416 384.593 86.6348C384.593 88.128 385.803 89.3385 387.296 89.3385Z" fill="#435BFD"/>
<path fill-rule="evenodd" clip-rule="evenodd" d="M122.979 155.739C124.472 155.739 125.683 154.529 125.683 153.035C125.683 151.542 124.472 150.332 122.979 150.332C121.486 150.332 120.275 151.542 120.275 153.035C120.275 154.529 121.486 155.739 122.979 155.739Z" fill="#435BFD"/>
<path fill-rule="evenodd" clip-rule="evenodd" d="M119.759 39.077H106.241V35.6974H119.759V39.077Z" fill="#435BFD"/>
<path fill-rule="evenodd" clip-rule="evenodd" d="M111.874 44.7097L111.874 31.1912L115.253 31.1912L115.253 44.7097L111.874 44.7097Z" fill="#435BFD"/>
<mask id="mask0" mask-type="alpha" maskUnits="userSpaceOnUse" x="225" y="47" width="139" height="122">
<path d="M294.396 93.8965L295.792 47.1161H363.519V168.605H225.273V109.007L294.396 93.8965Z" fill="#C4C4C4"/>
</mask>
<g mask="url(#mask0)">
<circle r="13.6641" transform="matrix(-0.739115 0.673579 0.673579 0.739115 344.863 73.463)" fill="white" stroke="#445BFD" stroke-width="2"/>
<circle r="13.6641" transform="matrix(-0.739115 0.673579 0.673579 0.739115 342.897 126.824)" fill="white" stroke="#445BFD" stroke-width="2"/>
<path d="M296.024 62.9967C287.927 54.1117 274.314 53.2494 265.172 60.8731L312.736 113.064L328.533 98.6681L296.024 62.9967Z" fill="white" stroke="#445BFD" stroke-width="2"/>
<mask id="path-35-inside-1" fill="white">
<path d="M293.003 132.4C283.756 140.827 269.428 140.163 261.001 130.916L314.687 81.99L329.946 98.7335L293.003 132.4Z"/>
</mask>
<path d="M293.003 132.4C283.756 140.827 269.428 140.163 261.001 130.916L314.687 81.99L329.946 98.7335L293.003 132.4Z" fill="white"/>
<path d="M314.687 81.99L316.165 80.6428C315.421 79.8264 314.156 79.7677 313.34 80.5118L314.687 81.99ZM329.946 98.7335L331.293 100.212C332.109 99.4677 332.168 98.2027 331.424 97.3863L329.946 98.7335ZM262.348 132.394L316.034 83.4682L313.34 80.5118L259.654 129.437L262.348 132.394ZM313.208 83.3371L328.467 100.081L331.424 97.3863L316.165 80.6428L313.208 83.3371ZM328.598 97.2552L291.656 130.922L294.35 133.878L331.293 100.212L328.598 97.2552ZM259.523 132.263C268.694 142.326 284.287 143.05 294.35 133.878L291.656 130.922C283.225 138.605 270.162 137.999 262.479 129.568L259.523 132.263Z" fill="#445BFD" mask="url(#path-35-inside-1)"/>
<line y1="-1" x2="14.3832" y2="-1" transform="matrix(-0.739115 0.673579 0.673579 0.739115 334.279 82.1354)" stroke="#445BFD" stroke-width="2"/>
<line y1="-1" x2="15.4106" y2="-1" transform="matrix(-0.673579 -0.739115 -0.739115 0.673579 332.938 115.745)" stroke="#445BFD" stroke-width="2"/>
</g>
</svg>
