<svg width="449" height="187" viewBox="0 0 449 187" fill="none" xmlns="http://www.w3.org/2000/svg">
<rect width="449" height="187" fill="white"/>
<line x1="46.8499" y1="182.103" x2="137.672" y2="182.103" stroke="#445BFD" stroke-width="2"/>
<line x1="377.577" y1="182.103" x2="393" y2="182.103" stroke="#445BFD" stroke-width="2"/>
<line x1="154.807" y1="182.103" x2="367.296" y2="182.103" stroke="#445BFD" stroke-width="2"/>
<path d="M303.893 35.7324H301.923H123.963C117.338 35.7324 111.968 41.1029 111.968 47.7277V167.681H299.775H315.888V47.7277C315.888 41.1029 310.517 35.7324 303.893 35.7324Z" fill="white" stroke="#445BFD" stroke-width="2"/>
<path d="M303.892 51.155H292.366H125.676V167.681H290.592H303.892V51.155Z" fill="#E7F2FF" stroke="#445BFD" stroke-width="2"/>
<path d="M243.916 167.681H81.1226V174.535C81.1226 179.267 84.9586 183.103 89.6907 183.103H256.768L243.916 167.681Z" fill="white" stroke="#445BFD" stroke-width="2"/>
<rect x="138.852" y="19.2964" width="151.408" height="130.379" fill="white" stroke="#445BFD" stroke-width="2"/>
<path d="M138.852 121.305L177.432 85.9042C178.371 85.0427 179.814 85.0461 180.749 85.9119L240.517 141.264M212.982 107.333L238.881 83.8658C239.81 83.0236 241.226 83.0207 242.159 83.8589L286.054 123.301" stroke="#445BFD" stroke-width="2"/>
<circle cx="252.408" cy="48.7366" r="16.8231" fill="#C1DDFF"/>
<rect x="138.852" y="80.2906" width="81.1112" height="69.8457" fill="white" stroke="#445BFD" stroke-width="2" stroke-dasharray="5.41 5.41"/>
<path d="M138.852 134.938L158.749 116.681C159.687 115.82 161.13 115.823 162.065 116.689L193.315 145.63M178.565 127.453L191.679 115.569C192.609 114.727 194.024 114.724 194.957 115.563L217.71 136.007" stroke="#445BFD" stroke-width="2"/>
<circle cx="199.685" cy="96.0623" r="9.01235" fill="#C1DDFF"/>
<path d="M151.38 169.394H182.225C182.225 172.234 179.924 174.535 177.085 174.535H156.521C153.682 174.535 151.38 172.234 151.38 169.394Z" fill="#445BFD"/>
<path d="M235.347 167.681H315.887V169.394C315.887 176.966 309.75 183.103 302.178 183.103H249.056C241.485 183.103 235.347 176.966 235.347 169.394V167.681Z" fill="white" stroke="#445BFD" stroke-width="2"/>
<path fill-rule="evenodd" clip-rule="evenodd" d="M325.198 32.8572C330.309 32.8572 334.452 28.7142 334.452 23.6036C334.452 18.493 330.309 14.3501 325.198 14.3501C320.088 14.3501 315.945 18.493 315.945 23.6036C315.945 28.7142 320.088 32.8572 325.198 32.8572Z" stroke="#435BFD" stroke-width="2"/>
<path fill-rule="evenodd" clip-rule="evenodd" d="M353.587 11.0562C355.291 11.0562 356.672 9.67524 356.672 7.97172C356.672 6.26819 355.291 4.88721 353.587 4.88721C351.884 4.88721 350.503 6.26819 350.503 7.97172C350.503 9.67524 351.884 11.0562 353.587 11.0562Z" fill="#C1DDFF"/>
<path fill-rule="evenodd" clip-rule="evenodd" d="M356.586 145.832L356.586 152.258H360.441V145.832H365.582V141.977H360.441V136.836H356.586L356.586 141.977H350.16V145.832H356.586Z" fill="#435BFD"/>
<path fill-rule="evenodd" clip-rule="evenodd" d="M74.2676 22.3669C74.2676 16.1206 79.3312 11.057 85.5774 11.057C91.8237 11.057 96.8873 16.1206 96.8873 22.3669C96.8873 28.6131 91.8237 33.6767 85.5774 33.6767C79.3312 33.6767 74.2676 28.6131 74.2676 22.3669ZM85.5774 15.1697C81.6025 15.1697 78.3803 18.392 78.3803 22.3669C78.3803 26.3418 81.6025 29.5641 85.5774 29.5641C89.5523 29.5641 92.7746 26.3418 92.7746 22.3669C92.7746 18.392 89.5523 15.1697 85.5774 15.1697Z" fill="#C1DDFF"/>
<path fill-rule="evenodd" clip-rule="evenodd" d="M356.671 60.7512C358.375 60.7512 359.756 59.3702 359.756 57.6667C359.756 55.9631 358.375 54.5822 356.671 54.5822C354.968 54.5822 353.587 55.9631 353.587 57.6667C353.587 59.3702 354.968 60.7512 356.671 60.7512Z" fill="#435BFD"/>
<path fill-rule="evenodd" clip-rule="evenodd" d="M94.1455 150.202C95.8491 150.202 97.2301 148.821 97.2301 147.118C97.2301 145.414 95.8491 144.033 94.1455 144.033C92.442 144.033 91.061 145.414 91.061 147.118C91.061 148.821 92.442 150.202 94.1455 150.202Z" fill="#435BFD"/>
<path fill-rule="evenodd" clip-rule="evenodd" d="M65.0278 82.8764H49.6052V79.0208H65.0278V82.8764Z" fill="#435BFD"/>
<path fill-rule="evenodd" clip-rule="evenodd" d="M56.0308 89.3027L56.0308 73.8801L59.8865 73.8801L59.8865 89.3027L56.0308 89.3027Z" fill="#435BFD"/>
</svg>
