<svg width="449" height="187" viewBox="0 0 449 187" fill="none" xmlns="http://www.w3.org/2000/svg">
<rect width="449" height="187" fill="white"/>
<line x1="49.1409" y1="184.521" x2="146.183" y2="184.521" stroke="#445BFD" stroke-width="2"/>
<line x1="402.521" y1="184.521" x2="419" y2="184.521" stroke="#445BFD" stroke-width="2"/>
<line x1="164.493" y1="184.521" x2="391.535" y2="184.521" stroke="#445BFD" stroke-width="2"/>
<path d="M323.789 26.906H321.685H131.535C124.457 26.906 118.719 32.6443 118.719 39.7229V167.892H319.389H336.606V39.7229C336.606 32.6443 330.868 26.906 323.789 26.906Z" fill="white" stroke="#445BFD" stroke-width="2"/>
<path d="M323.789 43.385H311.473H133.366V167.892H309.578H323.789V43.385Z" fill="#E7F2FF" stroke="#445BFD" stroke-width="2"/>
<path d="M327.54 35.1541L292.177 26.5291L267.495 122.267L302.871 133.486L327.54 35.1541Z" fill="white"/>
<path d="M259.704 167.892H85.7605V175.216C85.7605 180.272 89.8593 184.371 94.9154 184.371H273.437L259.704 167.892Z" fill="white" stroke="#445BFD" stroke-width="2"/>
<path d="M160.831 169.723H193.789C193.789 172.757 191.329 175.216 188.296 175.216H166.324C163.29 175.216 160.831 172.757 160.831 169.723Z" fill="#445BFD"/>
<path d="M250.549 167.892H336.606V169.723C336.606 177.813 330.047 184.371 321.958 184.371H265.197C257.107 184.371 250.549 177.813 250.549 169.723V167.892Z" fill="white" stroke="#445BFD" stroke-width="2"/>
<path fill-rule="evenodd" clip-rule="evenodd" d="M359.657 42.5639C365.118 42.5639 369.544 38.1372 369.544 32.6766C369.544 27.216 365.118 22.7893 359.657 22.7893C354.196 22.7893 349.77 27.216 349.77 32.6766C349.77 38.1372 354.196 42.5639 359.657 42.5639Z" stroke="#435BFD" stroke-width="2.99181"/>
<path fill-rule="evenodd" clip-rule="evenodd" d="M380.092 144.547V151.413H384.211V144.547H389.704V140.427H384.211V134.934L380.092 134.934V140.427H373.225V144.547H380.092Z" fill="#435BFD"/>
<path fill-rule="evenodd" clip-rule="evenodd" d="M79 18.0845C79 11.4104 84.4104 6 91.0845 6C97.7586 6 103.169 11.4104 103.169 18.0845C103.169 24.7586 97.7586 30.169 91.0845 30.169C84.4104 30.169 79 24.7586 79 18.0845ZM91.0845 10.3944C86.8374 10.3944 83.3944 13.8374 83.3944 18.0845C83.3944 22.3317 86.8374 25.7746 91.0845 25.7746C95.3317 25.7746 98.7746 22.3317 98.7746 18.0845C98.7746 13.8374 95.3317 10.3944 91.0845 10.3944Z" fill="#C1DDFF"/>
<path fill-rule="evenodd" clip-rule="evenodd" d="M380.183 53.6384C382.003 53.6384 383.479 52.1629 383.479 50.3426C383.479 48.5224 382.003 47.0469 380.183 47.0469C378.363 47.0469 376.887 48.5224 376.887 50.3426C376.887 52.1629 378.363 53.6384 380.183 53.6384Z" fill="#435BFD"/>
<path fill-rule="evenodd" clip-rule="evenodd" d="M99.676 149.216C101.496 149.216 102.972 147.741 102.972 145.921C102.972 144.1 101.496 142.625 99.676 142.625C97.8558 142.625 96.3802 144.1 96.3802 145.921C96.3802 147.741 97.8558 149.216 99.676 149.216Z" fill="#435BFD"/>
<path fill-rule="evenodd" clip-rule="evenodd" d="M68.5637 77.2791H52.0848V73.1594H68.5637V77.2791Z" fill="#435BFD"/>
<path fill-rule="evenodd" clip-rule="evenodd" d="M58.951 84.1454L58.951 67.6665L63.0707 67.6665L63.0707 84.1454L58.951 84.1454Z" fill="#435BFD"/>
<path d="M131.099 75.828L162.781 70.3306L208.406 64.6345L214.39 118.199L216.633 136.15L142.808 147.234L131.099 75.828Z" fill="white"/>
<rect x="161.286" y="6.33435" width="131.012" height="112.816" fill="white" stroke="#445BFD" stroke-width="2"/>
<path d="M161.286 94.6015L193.635 64.9184C195.032 63.637 197.178 63.642 198.569 64.9298L249.256 111.872M225.43 82.5119L246.822 63.1282C248.205 61.8755 250.31 61.8711 251.698 63.118L288.659 96.3286" stroke="#445BFD" stroke-width="2"/>
<circle cx="259.544" cy="31.8087" r="14.5569" fill="#C1DDFF"/>
<path d="M308.527 64.6746C315.108 49.5162 311.269 36.4187 308.527 31.7648L327.331 35.7538L311.624 102.072C308.882 96.421 301.945 79.8331 308.527 64.6746Z" fill="#C1E1FF"/>
<path d="M292.925 26.5291L328.288 35.1541L305.863 134.982L259.267 119.275" stroke="#445BFD" stroke-width="2"/>
<path d="M149.246 144.516C149.828 114.254 138.334 88.7445 132.514 79.7725L129.605 80.4999L141.971 145.971L149.246 144.516Z" fill="#C1E1FF"/>
<path d="M161.286 69.9103L129.604 75.4077L141.313 146.813L215.138 135.73L212.894 117.779" stroke="#445BFD" stroke-width="2"/>
<path d="M193.666 19.948H186.444V26.4479H193.667V32.9469H186.444V39.4468H193.667V58.9482H179.222V45.9485H186.444V39.4486H179.222V32.9469H186.444V26.4479H179.222V19.948H186.444V13.4481H179.222V6.94824H186.444V13.4481H193.667L193.666 19.948Z" fill="#445BFD"/>
<rect x="277.444" y="92.1704" width="65" height="63.5555" fill="white" stroke="#445BFD" stroke-width="2"/>
<path d="M289.96 118.82H331.152" stroke="#445BFD" stroke-width="2"/>
<path d="M289.96 127.647H331.152" stroke="#445BFD" stroke-width="2"/>
<path d="M317.838 108.522L310.556 115.804L303.275 108.522" stroke="#445BFD" stroke-width="2"/>
<path d="M303.274 137.945L310.556 130.663L317.838 137.945" stroke="#445BFD" stroke-width="2"/>
<path d="M310.556 99.6952L310.556 114.407" stroke="#445BFD" stroke-width="2"/>
<path d="M310.556 146.772L310.556 132.06" stroke="#445BFD" stroke-width="2"/>
<path fill-rule="evenodd" clip-rule="evenodd" d="M383.296 16.5915C385.116 16.5915 386.592 15.116 386.592 13.2958C386.592 11.4756 385.116 10 383.296 10C381.476 10 380 11.4756 380 13.2958C380 15.116 381.476 16.5915 383.296 16.5915Z" fill="#C1DDFF"/>
</svg>
