<svg width="449" height="187" viewBox="0 0 449 187" fill="none" xmlns="http://www.w3.org/2000/svg">
<rect width="449" height="187" fill="white"/>
<line x1="50.4644" y1="161.016" x2="115.336" y2="161.016" stroke="#445BFD" stroke-width="2"/>
<line x1="376" y1="161" x2="394" y2="161" stroke="#445BFD" stroke-width="2"/>
<line x1="128" y1="161" x2="365" y2="161" stroke="#445BFD" stroke-width="2"/>
<path d="M364.615 81.6176H363.548H267.195C263.608 81.6176 260.701 84.5253 260.701 88.1122V153.059H362.385H371.109V88.1122C371.109 84.5253 368.202 81.6176 364.615 81.6176Z" fill="white" stroke="#445BFD" stroke-width="1.51602"/>
<path d="M364.615 89.9678H358.374H268.123V153.059H357.414H364.615V89.9678Z" fill="#E7F2FF" stroke="#445BFD" stroke-width="1.51602"/>
<path d="M358.12 70.02H375.748C376.676 63.68 375.934 51 367.398 51" stroke="#445BFD" stroke-width="1.51602"/>
<path d="M357.192 60.2361C357.192 53.5861 363.842 51.3079 367.398 51H284.823C278.143 51 275.855 55.3102 275.545 57.4652V153.059H355.801C355.801 147.845 355.848 141.609 355.926 134.866C355.978 130.367 356.043 125.641 356.116 120.843C356.187 116.191 356.266 111.47 356.348 106.82C356.388 104.523 356.429 102.243 356.47 99.9978C356.827 80.5413 357.192 63.6443 357.192 60.2361Z" fill="white" stroke="#445BFD" stroke-width="1.51602"/>
<path d="M332.141 153.059H244V156.77C244 159.332 246.077 161.409 248.639 161.409H339.1L332.141 153.059Z" fill="white" stroke="#445BFD" stroke-width="1.51602"/>
<path d="M330.9 127.913C331.723 127.913 332.437 128.052 333.043 128.329C333.65 128.597 334.117 128.987 334.446 129.498C334.775 130 334.94 130.593 334.94 131.277C334.94 131.961 334.775 132.555 334.446 133.057C334.117 133.559 333.65 133.949 333.043 134.226C332.437 134.494 331.723 134.628 330.9 134.628H329.316V137.005H326.744V127.913H330.9ZM330.744 132.602C331.273 132.602 331.671 132.49 331.939 132.264C332.208 132.031 332.342 131.702 332.342 131.277C332.342 130.853 332.208 130.524 331.939 130.29C331.671 130.056 331.273 129.939 330.744 129.939H329.316V132.602H330.744ZM336.194 127.913H340.493C341.489 127.913 342.372 128.099 343.143 128.472C343.914 128.844 344.511 129.372 344.936 130.056C345.36 130.74 345.572 131.541 345.572 132.459C345.572 133.377 345.36 134.178 344.936 134.862C344.511 135.546 343.914 136.075 343.143 136.447C342.372 136.819 341.489 137.005 340.493 137.005H336.194V127.913ZM340.389 134.953C341.169 134.953 341.792 134.732 342.26 134.291C342.736 133.849 342.974 133.239 342.974 132.459C342.974 131.68 342.736 131.069 342.26 130.628C341.792 130.186 341.169 129.965 340.389 129.965H338.766V134.953H340.389ZM349.497 129.9V131.901H353.511V133.888H349.497V137.005H346.925V127.913H354.056V129.9H349.497Z" fill="#445BFD"/>
<rect x="322" y="121.222" width="34.3288" height="21.3395" stroke="#445BFD" stroke-width="1.51602"/>
<path d="M282.04 153.986H298.741C298.741 155.524 297.494 156.77 295.957 156.77H284.823C283.286 156.77 282.04 155.524 282.04 153.986Z" fill="#445BFD"/>
<path d="M327.503 153.059H371.11V153.986C371.11 158.086 367.786 161.409 363.687 161.409H334.925C330.826 161.409 327.503 158.086 327.503 153.986V153.059Z" fill="white" stroke="#445BFD" stroke-width="1.51602"/>
<path fill-rule="evenodd" clip-rule="evenodd" d="M205.61 40.2192C209.26 40.2192 212.219 37.26 212.219 33.6096C212.219 29.9592 209.26 27 205.61 27C201.959 27 199 29.9592 199 33.6096C199 37.26 201.959 40.2192 205.61 40.2192Z" stroke="#435BFD" stroke-width="2"/>
<path fill-rule="evenodd" clip-rule="evenodd" d="M226.36 40.4064C227.577 40.4064 228.563 39.42 228.563 38.2032C228.563 36.9864 227.577 36 226.36 36C225.143 36 224.157 36.9864 224.157 38.2032C224.157 39.42 225.143 40.4064 226.36 40.4064Z" fill="#C1DDFF"/>
<path fill-rule="evenodd" clip-rule="evenodd" d="M213.59 146.426L213.59 151.016H216.344V146.426H220.016V143.672H216.344V140L213.59 140L213.59 143.672H209V146.426H213.59Z" fill="#435BFD"/>
<path fill-rule="evenodd" clip-rule="evenodd" d="M34 92.4132C34 87.9517 37.6168 84.3348 42.0784 84.3348C46.54 84.3348 50.1568 87.9517 50.1568 92.4132C50.1568 96.8748 46.54 100.492 42.0784 100.492C37.6168 100.492 34 96.8748 34 92.4132ZM42.0784 87.2724C39.2392 87.2724 36.9376 89.5741 36.9376 92.4132C36.9376 95.2524 39.2392 97.554 42.0784 97.554C44.9176 97.554 47.2192 95.2524 47.2192 92.4132C47.2192 89.5741 44.9176 87.2724 42.0784 87.2724Z" fill="#C1DDFF"/>
<path fill-rule="evenodd" clip-rule="evenodd" d="M228.563 75.9024C229.78 75.9024 230.766 74.916 230.766 73.6992C230.766 72.4824 229.78 71.496 228.563 71.496C227.346 71.496 226.36 72.4824 226.36 73.6992C226.36 74.916 227.346 75.9024 228.563 75.9024Z" fill="#435BFD"/>
<path fill-rule="evenodd" clip-rule="evenodd" d="M55.2467 134.515C56.4635 134.515 57.4499 133.529 57.4499 132.312C57.4499 131.095 56.4635 130.109 55.2467 130.109C54.0299 130.109 53.0435 131.095 53.0435 132.312C53.0435 133.529 54.0299 134.515 55.2467 134.515Z" fill="#435BFD"/>
<path fill-rule="evenodd" clip-rule="evenodd" d="M50.1566 59.426H39.1406V56.672H50.1566V59.426Z" fill="#435BFD"/>
<path fill-rule="evenodd" clip-rule="evenodd" d="M43.7304 64.016L43.7304 53L46.4844 53L46.4844 64.016L43.7304 64.016Z" fill="#435BFD"/>
<path fill-rule="evenodd" clip-rule="evenodd" d="M92.6114 68.7708L92.5508 68.8293H161.132L161.184 68.7678C164.161 65.2445 163.765 60.8089 160.788 57.2853" fill="#D7E9FF"/>
<path d="M92.5508 68.8293L92.0884 68.3503L90.9023 69.4951H92.5508V68.8293ZM161.132 68.8293V69.4951H161.441L161.641 69.2592L161.132 68.8293ZM161.184 68.7678L161.693 69.1977L161.693 69.1975L161.184 68.7678ZM161.296 56.8556C161.059 56.5748 160.639 56.5394 160.358 56.7768C160.077 57.0141 160.042 57.4342 160.279 57.715L161.296 56.8556ZM92.149 68.2918L92.0884 68.3503L93.0132 69.3084L93.0738 69.2499L92.149 68.2918ZM92.5508 69.4951H161.132V68.1635H92.5508V69.4951ZM161.641 69.2592L161.693 69.1977L160.676 68.3379L160.624 68.3995L161.641 69.2592ZM161.693 69.1975C164.916 65.3832 164.445 60.5818 161.296 56.8556L160.279 57.715C163.085 61.0359 163.407 65.1058 160.676 68.3381L161.693 69.1975Z" fill="#445BFD"/>
<path fill-rule="evenodd" clip-rule="evenodd" d="M148.424 149.6H85.6667V64.2273C85.6667 60.2434 88.9069 57.0135 92.9038 57.0135H154.301C154.301 57.0135 160.916 56.9083 160.788 57.2852C156.317 57.3725 156.303 69.4594 156.303 69.4594V141.747C156.303 146.084 152.775 149.6 148.424 149.6Z" fill="white" stroke="#445BFD" stroke-width="1.3316"/>
<path fill-rule="evenodd" clip-rule="evenodd" d="M148.196 149.6H79.7347L79.6829 149.537C76.7112 145.935 76.7112 140.704 79.6829 137.102L79.7347 137.04H148.196L147.857 137.408C144.681 140.86 144.141 146.751 148.196 149.6C150.984 149.6 148.196 149.6 148.196 149.6Z" fill="#E7F2FF"/>
<path d="M148.196 149.6H79.7347L79.6829 149.537C76.7112 145.935 76.7112 140.704 79.6829 137.102L79.7347 137.04H148.196L147.857 137.408C144.681 140.86 144.141 146.751 148.196 149.6C148.196 149.6 150.984 149.6 148.196 149.6" stroke="#445BFD" stroke-width="1.3316"/>
<path fill-rule="evenodd" clip-rule="evenodd" d="M101.126 74.2374H143.638V70.8557H101.126V74.2374Z" fill="#445BFD"/>
<path fill-rule="evenodd" clip-rule="evenodd" d="M130.594 132.692H149.435V131.726H130.594V132.692Z" fill="#445BFD"/>
<path fill-rule="evenodd" clip-rule="evenodd" d="M94.8452 82.45H149.435V81.0007H94.8452V82.45Z" fill="#9BC8FF"/>
<path fill-rule="evenodd" clip-rule="evenodd" d="M94.8452 89.6964H149.435V88.2471H94.8452V89.6964Z" fill="#9BC8FF"/>
<path fill-rule="evenodd" clip-rule="evenodd" d="M94.8452 96.4597H149.435V95.0104H94.8452V96.4597Z" fill="#9BC8FF"/>
<path fill-rule="evenodd" clip-rule="evenodd" d="M94.8452 103.706H149.435V102.257H94.8452V103.706Z" fill="#9BC8FF"/>
<path fill-rule="evenodd" clip-rule="evenodd" d="M94.8452 110.952H149.435V109.503H94.8452V110.952Z" fill="#E6E6E6"/>
<path fill-rule="evenodd" clip-rule="evenodd" d="M94.8452 125.445H149.435V123.996H94.8452V125.445Z" fill="#9BC8FF"/>
<path fill-rule="evenodd" clip-rule="evenodd" d="M94.8452 118.199H149.435V116.75H94.8452V118.199Z" fill="#9BC8FF"/>
<rect x="69" y="108.9" width="104.469" height="3.01934" fill="#445BFD"/>
<rect x="101" y="104" width="41" height="13" fill="#445BFD"/>
<path d="M111.667 115.779C110.705 115.779 109.865 115.574 109.147 115.163C108.437 114.743 107.887 114.15 107.495 113.385C107.112 112.61 106.921 111.7 106.921 110.655C106.921 109.619 107.112 108.718 107.495 107.953C107.877 107.178 108.423 106.586 109.133 106.175C109.851 105.764 110.696 105.559 111.667 105.559C112.637 105.559 113.477 105.764 114.187 106.175C114.905 106.586 115.451 107.178 115.825 107.953C116.207 108.718 116.399 109.619 116.399 110.655C116.399 111.7 116.207 112.61 115.825 113.385C115.442 114.15 114.896 114.743 114.187 115.163C113.477 115.574 112.637 115.779 111.667 115.779ZM111.667 114.337C112.591 114.337 113.309 114.02 113.823 113.385C114.336 112.75 114.593 111.84 114.593 110.655C114.593 109.479 114.336 108.578 113.823 107.953C113.309 107.318 112.591 107.001 111.667 107.001C110.743 107.001 110.024 107.314 109.511 107.939C108.997 108.564 108.741 109.47 108.741 110.655C108.741 111.84 108.997 112.75 109.511 113.385C110.024 114.02 110.743 114.337 111.667 114.337ZM122.77 115.779C121.79 115.779 120.932 115.569 120.194 115.149C119.466 114.729 118.906 114.136 118.514 113.371C118.122 112.596 117.926 111.691 117.926 110.655C117.926 109.628 118.122 108.732 118.514 107.967C118.906 107.192 119.466 106.6 120.194 106.189C120.932 105.769 121.79 105.559 122.77 105.559C123.442 105.559 124.072 105.666 124.66 105.881C125.258 106.086 125.752 106.376 126.144 106.749L125.556 108.065C125.108 107.701 124.66 107.44 124.212 107.281C123.774 107.113 123.302 107.029 122.798 107.029C121.837 107.029 121.09 107.342 120.558 107.967C120.036 108.592 119.774 109.488 119.774 110.655C119.774 111.831 120.036 112.736 120.558 113.371C121.081 113.996 121.828 114.309 122.798 114.309C123.302 114.309 123.774 114.23 124.212 114.071C124.66 113.903 125.108 113.637 125.556 113.273L126.144 114.589C125.752 114.962 125.258 115.256 124.66 115.471C124.072 115.676 123.442 115.779 122.77 115.779ZM136.036 115.653H134.132L132.858 112.335C132.746 112.027 132.574 111.812 132.34 111.691C132.107 111.57 131.804 111.509 131.43 111.509H129.624V115.653H127.832V105.685H132.102C133.232 105.685 134.09 105.932 134.678 106.427C135.266 106.922 135.56 107.631 135.56 108.555C135.56 109.218 135.383 109.782 135.028 110.249C134.683 110.706 134.188 111.033 133.544 111.229C134.132 111.35 134.557 111.761 134.818 112.461L136.036 115.653ZM131.85 110.109C132.532 110.109 133.036 109.983 133.362 109.731C133.689 109.479 133.852 109.096 133.852 108.583C133.852 108.079 133.689 107.706 133.362 107.463C133.045 107.211 132.541 107.085 131.85 107.085H129.596V110.109H131.85Z" fill="white"/>
<rect x="184" y="82.374" width="8.83597" height="8.83597" fill="#D1D7FF"/>
<rect x="184" y="102.255" width="8.83597" height="8.83597" fill="#D1D7FF"/>
<rect x="207.804" y="82.4989" width="8.83597" height="8.83597" fill="#8897FF"/>
<rect x="207.804" y="102.38" width="8.83597" height="8.83597" fill="#8897FF"/>
<rect x="231.154" y="82.4989" width="8.83597" height="8.83597" fill="#445BFD"/>
<rect x="231.154" y="102.38" width="8.83597" height="8.83597" fill="#445BFD"/>
<line x1="289" y1="138" x2="310" y2="138" stroke="#9BC8FF" stroke-width="2" stroke-linecap="round"/>
<path d="M289 127H310" stroke="#9BC8FF" stroke-width="2" stroke-linecap="round"/>
<path d="M288 106H343" stroke="#445BFD" stroke-width="2" stroke-linecap="round"/>
<path d="M288 115H343" stroke="#445BFD" stroke-width="2" stroke-linecap="round"/>
<rect x="288" y="65" width="36" height="31" fill="white" stroke="#445BFD" stroke-width="2"/>
<path d="M288 89.2542L296.889 81.0978C297.273 80.7457 297.863 80.7471 298.245 81.101L312.173 94M305.626 85.9322L311.504 80.6059C311.884 80.2617 312.463 80.2605 312.844 80.6031L323 89.7288" stroke="#445BFD" stroke-width="2"/>
<circle cx="315" cy="72" r="4" fill="#C1DDFF"/>
</svg>
