<svg width="449" height="187" viewBox="0 0 449 187" fill="none" xmlns="http://www.w3.org/2000/svg">
<rect width="449" height="187" fill="white"/>
<rect x="161.997" y="126.881" width="30.1018" height="40.1357" fill="#99A6FF"/>
<path fill-rule="evenodd" clip-rule="evenodd" d="M192.099 134.634C185.298 134.634 179.784 140.147 179.784 146.948C179.784 153.75 185.298 159.263 192.099 159.263C198.9 159.263 204.413 153.75 204.413 146.948C204.413 140.147 198.9 134.634 192.099 134.634ZM177.656 146.948C177.656 138.972 184.122 132.506 192.099 132.506C200.075 132.506 206.541 138.972 206.541 146.948C206.541 154.925 200.075 161.391 192.099 161.391C184.122 161.391 177.656 154.925 177.656 146.948Z" fill="#99A6FF"/>
<path d="M27.1965 151.769H186.067C186.067 160.081 179.329 166.82 171.016 166.82H42.2474C33.935 166.82 27.1965 160.081 27.1965 151.769Z" fill="#F6FBFF"/>
<path d="M28.8687 160.13H182.722C181.739 164.062 178.207 166.82 174.155 166.82H40.9378C36.0306 166.82 31.4695 164.292 28.8687 160.13Z" fill="#C1DDFF"/>
<path d="M42.2473 49.7571H172.688V151.769H42.2473V49.7571Z" fill="#DDECFF"/>
<path d="M41.4113 143.407V48.921H62.3153M150.112 48.921H173.525V149.26M35.5581 165.983C32.7709 164.869 27.1965 160.298 27.1965 150.933C34.5547 150.933 64.2663 150.933 78.2023 150.933M89.9086 150.933H186.903C186.067 155.95 182.555 165.983 175.197 165.983" stroke="#445BFD" stroke-width="2.12809" stroke-linecap="round"/>
<line x1="11.9668" y1="167.207" x2="445.033" y2="167.207" stroke="#445BFD" stroke-width="2.12809"/>
<rect x="48.9368" y="59.7911" width="118.735" height="83.6161" fill="white"/>
<rect x="62.3152" y="86.5482" width="88.633" height="11.7062" rx="5.85312" fill="#F6FBFF"/>
<rect x="62.3152" y="86.5482" width="48.4973" height="11.7062" rx="5.85312" fill="#435BFD"/>
<path d="M70.6768 54.7741C70.6768 64.1391 80.1532 67.5952 84.8915 68.1527L134.225 69.825L140.078 66.4803L144.259 57.2826L141.75 48.921L135.061 43.0679C134.225 40.8381 130.713 35.7096 123.355 33.0339C119.341 25.0068 111.091 23 107.468 23C96.5977 23 95.7616 30.5254 91.5808 33.8701C82.8847 36.5458 82.383 42.2317 83.2192 44.7402C79.0384 44.1827 70.6768 45.4091 70.6768 54.7741Z" fill="white"/>
<path d="M135.695 67.5365C139.909 49.2378 123.612 38.2005 117.15 36.1673V34.4246L121.365 32.6818H126.422L129.794 35.2959L135.695 42.2669L141.595 47.4951L144.124 56.2088C144.686 58.242 143.787 65.4453 135.695 67.5365Z" fill="#C1E1FF"/>
<path d="M119.086 60.4952L111.341 60.4952L111.341 77.2184L103.595 77.2184L103.595 60.4952L95.8497 60.4952L107.898 48.1728L119.086 60.4952Z" fill="#435BFD"/>
<path d="M91.9768 44.3001H79.5518C76.5934 44.5767 70.6768 47.2877 70.6768 55.9183C70.6768 64.549 80.1435 67.2599 84.8768 67.5366" stroke="#445BFD" stroke-width="2.12809" stroke-linecap="round"/>
<path d="M82.2952 44.0443C82.5137 41.5573 84.0166 37.1463 88.1376 35.2762C90.6352 34.1427 93.2234 32.8712 94.6531 30.5305C97.2949 26.205 100.44 23 107.715 23C117.036 23 123.814 30.8916 123.814 33.5222M114.494 37.9064C117.448 35.1269 124.745 31.2902 131.283 36.9529C131.973 37.5507 132.46 38.3411 132.89 39.1466C134.116 41.4443 136.458 44.7764 139.698 46.9683C141.356 48.0897 142.971 49.443 143.515 51.3692C145.872 59.7184 142.548 67.4546 134.671 69.3264C134.217 69.4345 133.747 69.4729 133.279 69.4729C130.959 69.4729 129.413 69.4729 128.898 69.4729" stroke="#445BFD" stroke-width="2.12809" stroke-linecap="round"/>
<line x1="63.9875" y1="113.382" x2="152.621" y2="113.382" stroke="#435BFD" stroke-width="3.19214"/>
<path d="M65.6597 126.684L101.615 126.684" stroke="#9BC8FF" stroke-width="3.19214"/>
<rect x="211.152" y="81.5247" width="9.40187" height="9.40187" fill="#D1D7FF"/>
<rect x="211.152" y="102.679" width="9.40187" height="9.40187" fill="#D1D7FF"/>
<rect x="236.48" y="81.6576" width="9.40187" height="9.40187" fill="#8897FF"/>
<rect x="236.48" y="102.812" width="9.40187" height="9.40187" fill="#8897FF"/>
<rect x="261.325" y="81.6576" width="9.40187" height="9.40187" fill="#445BFD"/>
<rect x="261.325" y="102.812" width="9.40187" height="9.40187" fill="#445BFD"/>
<path fill-rule="evenodd" clip-rule="evenodd" d="M17.2871 62.187C17.2871 58.3085 20.4313 55.1643 24.3098 55.1643C28.1883 55.1643 31.3325 58.3085 31.3325 62.187C31.3325 66.0655 28.1883 69.2097 24.3098 69.2097C20.4313 69.2097 17.2871 66.0655 17.2871 62.187ZM24.3098 57.718C21.8417 57.718 19.8408 59.7189 19.8408 62.187C19.8408 64.6552 21.8417 66.656 24.3098 66.656C26.778 66.656 28.7788 64.6552 28.7788 62.187C28.7788 59.7189 26.778 57.718 24.3098 57.718Z" fill="#C1DDFF"/>
<path fill-rule="evenodd" clip-rule="evenodd" d="M189.024 63.4637C192.197 63.4637 194.77 60.8912 194.77 57.7178C194.77 54.5445 192.197 51.972 189.024 51.972C185.851 51.972 183.278 54.5445 183.278 57.7178C183.278 60.8912 185.851 63.4637 189.024 63.4637Z" stroke="#435BFD" stroke-width="2.55371"/>
<path fill-rule="evenodd" clip-rule="evenodd" d="M39.6318 42.3955C40.6896 42.3955 41.5471 41.538 41.5471 40.4802C41.5471 39.4224 40.6896 38.5649 39.6318 38.5649C38.5741 38.5649 37.7166 39.4224 37.7166 40.4802C37.7166 41.538 38.5741 42.3955 39.6318 42.3955Z" fill="#435BFD"/>
<path fill-rule="evenodd" clip-rule="evenodd" d="M199.239 39.2033C200.297 39.2033 201.154 38.3458 201.154 37.2881C201.154 36.2303 200.297 35.3728 199.239 35.3728C198.181 35.3728 197.324 36.2303 197.324 37.2881C197.324 38.3458 198.181 39.2033 199.239 39.2033Z" fill="#C1DDFF"/>
<path fill-rule="evenodd" clip-rule="evenodd" d="M29.6301 141.565C30.6879 141.565 31.5454 140.707 31.5454 139.649C31.5454 138.592 30.6879 137.734 29.6301 137.734C28.5723 137.734 27.7148 138.592 27.7148 139.649C27.7148 140.707 28.5723 141.565 29.6301 141.565Z" fill="#435BFD"/>
<path fill-rule="evenodd" clip-rule="evenodd" d="M31.3323 33.5107H21.7559V31.1166L31.3323 31.1166V33.5107Z" fill="#435BFD"/>
<path fill-rule="evenodd" clip-rule="evenodd" d="M25.746 37.5009L25.746 27.9245L28.1401 27.9245L28.1401 37.5009L25.746 37.5009Z" fill="#435BFD"/>
<path fill-rule="evenodd" clip-rule="evenodd" d="M201.101 122.89L201.101 126.881H203.495V122.89H206.687V120.496H203.495V117.304H201.101L201.101 120.496H197.111V122.89H201.101Z" fill="#435BFD"/>
<path d="M307.083 166.284H388.515V109.125V71.5405L367.374 51.9654H352.301H337.228H322.155H307.083V166.284Z" fill="white" stroke="#445BFD" stroke-width="2.18669"/>
<path d="M306.214 64.0414L288.864 65.6515L306.575 140.522" stroke="#445BFD" stroke-width="2.18669" stroke-linecap="round"/>
<path d="M389.258 86.9576L401.268 88.4805L388.897 163.438" stroke="#445BFD" stroke-width="2.18669" stroke-linecap="round"/>
<path d="M307.783 159.039H387.484V165.479H307.783L307.783 159.039Z" fill="#C1DDFF"/>
<line x1="343.32" y1="93.9472" x2="379.401" y2="93.9472" stroke="#9BC8FF" stroke-width="2.18669" stroke-linecap="round"/>
<line x1="314.894" y1="146.428" x2="329.107" y2="146.428" stroke="#9BC8FF" stroke-width="2.18669" stroke-linecap="round"/>
<path d="M343.321 83.0138H378.308" stroke="#9BC8FF" stroke-width="2.18669" stroke-linecap="round"/>
<path d="M314.894 136.588H329.107" stroke="#9BC8FF" stroke-width="2.18669" stroke-linecap="round"/>
<path d="M314.894 127.841H329.107" stroke="#9BC8FF" stroke-width="2.18669" stroke-linecap="round"/>
<path d="M313.8 104.881H380.494" stroke="#445BFD" stroke-width="2.18669" stroke-linecap="round"/>
<path d="M313.8 114.721H380.494" stroke="#445BFD" stroke-width="2.18669" stroke-linecap="round"/>
<path d="M366.15 52.7704L366.15 75.3122L388.691 75.3121" stroke="#445BFD" stroke-width="2.18669"/>
<path d="M329.455 64.2387L330.212 82.6786C330.375 86.6526 327.187 89.9581 323.209 89.9382V89.9382C319.358 89.9189 316.251 86.7811 316.271 82.9297L316.444 48.3471C316.465 44.1207 319.908 40.7117 324.135 40.7328V40.7328C327.937 40.7518 331.148 43.5597 331.675 47.3253L332.085 50.259" stroke="#445BFD" stroke-width="2.18669" stroke-linecap="round"/>
<path d="M359.993 147.214H357.535L356.18 143.684C356.071 143.406 355.902 143.212 355.673 143.103C355.455 142.994 355.177 142.939 354.839 142.939H353.335V147.214H351.041V136.608H355.763C356.994 136.608 357.928 136.876 358.563 137.412C359.199 137.949 359.517 138.718 359.517 139.721C359.517 140.426 359.328 141.032 358.951 141.539C358.583 142.045 358.052 142.408 357.357 142.626C357.982 142.755 358.434 143.187 358.712 143.922L359.993 147.214ZM355.42 141.166C356.086 141.166 356.572 141.057 356.88 140.838C357.188 140.61 357.342 140.257 357.342 139.781C357.342 139.304 357.188 138.957 356.88 138.738C356.572 138.51 356.086 138.395 355.42 138.395H353.305V141.166H355.42ZM363.74 147.214V138.5H360.418V136.608H369.415V138.5H366.093V147.214H363.74ZM370.651 147.214V136.608H377.801V138.44H372.945V140.898H377.503V142.745H372.945V147.214H370.651Z" fill="#445BFD"/>
<rect x="336.761" y="127.841" width="51.3871" height="25.1469" stroke="#445BFD" stroke-width="2.18669"/>
<path fill-rule="evenodd" clip-rule="evenodd" d="M396.895 65.6835C396.895 61.6982 400.125 58.4674 404.111 58.4674C408.096 58.4674 411.327 61.6982 411.327 65.6835C411.327 69.6688 408.096 72.8995 404.111 72.8995C400.125 72.8995 396.895 69.6688 396.895 65.6835ZM404.111 61.0914C401.574 61.0914 399.519 63.1474 399.519 65.6835C399.519 68.2196 401.574 70.2755 404.111 70.2755C406.647 70.2755 408.703 68.2196 408.703 65.6835C408.703 63.1474 406.647 61.0914 404.111 61.0914Z" fill="#9BC8FF"/>
<path fill-rule="evenodd" clip-rule="evenodd" d="M291.933 131.777C293.02 131.777 293.901 130.896 293.901 129.809C293.901 128.722 293.02 127.841 291.933 127.841C290.846 127.841 289.965 128.722 289.965 129.809C289.965 130.896 290.846 131.777 291.933 131.777Z" fill="#435BFD"/>
<path fill-rule="evenodd" clip-rule="evenodd" d="M304.507 39.28C305.412 39.28 306.147 38.5458 306.147 37.64C306.147 36.7343 305.412 36 304.507 36C303.601 36 302.867 36.7343 302.867 37.64C302.867 38.5458 303.601 39.28 304.507 39.28Z" fill="#435BFD"/>
<path fill-rule="evenodd" clip-rule="evenodd" d="M414.607 46.6592C415.694 46.6592 416.575 45.7781 416.575 44.6912C416.575 43.6043 415.694 42.7232 414.607 42.7232C413.52 42.7232 412.639 43.6043 412.639 44.6912C412.639 45.7781 413.52 46.6592 414.607 46.6592Z" fill="#435BFD"/>
<path fill-rule="evenodd" clip-rule="evenodd" d="M290.84 152.168H281V149.708H290.84V152.168Z" fill="#9BC8FF"/>
<path fill-rule="evenodd" clip-rule="evenodd" d="M285.1 156.268L285.1 146.428L287.56 146.428L287.56 156.268L285.1 156.268Z" fill="#9BC8FF"/>
<path fill-rule="evenodd" clip-rule="evenodd" d="M416.52 132.651V136.751L418.98 136.751V132.651H422.26V130.191H418.98V126.911L416.52 126.911V130.191H412.42V132.651H416.52Z" fill="#435BFD"/>
</svg>
