<svg width="449" height="187" viewBox="0 0 449 187" fill="none" xmlns="http://www.w3.org/2000/svg">
<rect width="449" height="187" fill="white"/>
<rect x="166.335" y="128.601" width="31.7595" height="42.346" fill="#99A6FF"/>
<path fill-rule="evenodd" clip-rule="evenodd" d="M198.094 136.782C190.919 136.782 185.101 142.599 185.101 149.774C185.101 156.95 190.919 162.767 198.094 162.767C205.27 162.767 211.087 156.95 211.087 149.774C211.087 142.599 205.27 136.782 198.094 136.782ZM182.856 149.774C182.856 141.359 189.678 134.536 198.094 134.536C206.51 134.536 213.332 141.359 213.332 149.774C213.332 158.19 206.51 165.012 198.094 165.012C189.678 165.012 182.856 158.19 182.856 149.774Z" fill="#99A6FF"/>
<path d="M24.1108 154.86H191.73C191.73 163.63 184.621 170.74 175.851 170.74H39.9906C31.2204 170.74 24.1108 163.63 24.1108 154.86Z" fill="#F6FBFF"/>
<path d="M25.875 163.682H188.201C187.164 167.83 183.437 170.74 179.162 170.74H38.6088C33.4313 170.74 28.619 168.073 25.875 163.682Z" fill="#C1DDFF"/>
<path d="M39.9905 47.2307H177.615V154.86H39.9905V47.2307Z" fill="#DDECFF"/>
<path d="M39.1084 146.038V46.3484H61.1636M153.795 46.3484H178.497V152.213M32.9329 169.858C29.9922 168.681 24.1108 163.859 24.1108 153.978C31.8743 153.978 63.222 153.978 77.9255 153.978M90.2764 153.978H192.612C191.73 159.271 188.025 169.858 180.262 169.858" stroke="#445BFD" stroke-width="2.24528" stroke-linecap="round"/>
<line x1="8" y1="170.877" x2="442" y2="170.877" stroke="#445BFD" stroke-width="2.24528"/>
<rect x="47.0481" y="57.8171" width="125.273" height="88.2208" fill="white"/>
<rect x="61.1633" y="86.0477" width="93.514" height="12.3509" rx="6.17545" fill="#F6FBFF"/>
<rect x="61.1633" y="86.0477" width="51.168" height="12.3509" rx="6.17545" fill="#435BFD"/>
<path d="M69.9856 52.5239C69.9856 62.4046 79.9839 66.0511 84.9831 66.6392L137.033 68.4036L143.209 64.8748L147.62 55.1705L144.973 46.3484L137.916 40.173C137.033 37.8204 133.328 32.4096 125.565 29.5865C121.33 21.1173 112.626 19 108.803 19C97.334 19 96.4518 26.9399 92.0408 30.4687C82.8658 33.2918 82.3365 39.2908 83.2187 41.9374C78.8077 41.3493 69.9856 42.6432 69.9856 52.5239Z" fill="white"/>
<path d="M138.584 65.9892C143.031 46.6827 125.836 35.0376 119.018 32.8924V31.0537L123.465 29.215H128.801L132.358 31.9731L138.584 39.3279L144.809 44.844L147.478 54.0376C148.07 56.1827 147.122 63.7827 138.584 65.9892Z" fill="#C1E1FF"/>
<path d="M121.061 58.56L112.889 58.56L112.889 76.2042L104.717 76.2042L104.717 58.56L96.5447 58.56L109.257 45.5591L121.061 58.56Z" fill="#435BFD"/>
<path d="M92.4587 41.4731H79.3494C76.2281 41.765 69.9856 44.6252 69.9856 53.7311C69.9856 62.8371 79.9736 65.6973 84.9676 65.9892" stroke="#445BFD" stroke-width="2.24528" stroke-linecap="round"/>
<path d="M82.2437 41.2032C82.4742 38.5792 84.0599 33.9254 88.4078 31.9522C91.043 30.7564 93.7737 29.4148 95.2821 26.9452C98.0694 22.3815 101.388 19 109.063 19C118.897 19 126.049 27.3262 126.049 30.1016M116.215 34.7273C119.333 31.7948 127.031 27.7468 133.929 33.7213C134.657 34.352 135.171 35.1859 135.624 36.0358C136.919 38.46 139.389 41.9756 142.808 44.2882C144.557 45.4714 146.261 46.8992 146.835 48.9315C149.322 57.7405 145.815 65.9027 137.504 67.8776C137.025 67.9916 136.529 68.0322 136.036 68.0322C133.587 68.0322 131.956 68.0322 131.413 68.0322" stroke="#445BFD" stroke-width="2.24528" stroke-linecap="round"/>
<line x1="62.928" y1="114.359" x2="156.442" y2="114.359" stroke="#435BFD" stroke-width="3.36793"/>
<path d="M64.6921 128.394L102.627 128.394" stroke="#9BC8FF" stroke-width="3.36793"/>
<rect x="218.196" y="80.7476" width="9.91963" height="9.91963" fill="#D1D7FF"/>
<rect x="218.196" y="103.067" width="9.91963" height="9.91963" fill="#D1D7FF"/>
<rect x="244.92" y="80.8878" width="9.91963" height="9.91963" fill="#8897FF"/>
<rect x="244.92" y="103.207" width="9.91963" height="9.91963" fill="#8897FF"/>
<rect x="271.133" y="80.8878" width="9.91963" height="9.91963" fill="#445BFD"/>
<rect x="271.133" y="103.207" width="9.91963" height="9.91963" fill="#445BFD"/>
<path fill-rule="evenodd" clip-rule="evenodd" d="M13.6555 60.345C13.6555 56.2529 16.9728 52.9356 21.065 52.9356C25.1571 52.9356 28.4744 56.2529 28.4744 60.345C28.4744 64.4371 25.1571 67.7544 21.065 67.7544C16.9728 67.7544 13.6555 64.4371 13.6555 60.345ZM21.065 55.6299C18.4609 55.6299 16.3499 57.7409 16.3499 60.345C16.3499 62.9491 18.4609 65.0601 21.065 65.0601C23.669 65.0601 25.78 62.9491 25.78 60.345C25.78 57.7409 23.669 55.6299 21.065 55.6299Z" fill="#C1DDFF"/>
<path fill-rule="evenodd" clip-rule="evenodd" d="M194.85 61.692C198.198 61.692 200.912 58.9778 200.912 55.6297C200.912 52.2816 198.198 49.5675 194.85 49.5675C191.502 49.5675 188.788 52.2816 188.788 55.6297C188.788 58.9778 191.502 61.692 194.85 61.692Z" stroke="#435BFD" stroke-width="2.69434"/>
<path fill-rule="evenodd" clip-rule="evenodd" d="M37.231 39.4636C38.347 39.4636 39.2517 38.5588 39.2517 37.4428C39.2517 36.3268 38.347 35.4221 37.231 35.4221C36.1149 35.4221 35.2102 36.3268 35.2102 37.4428C35.2102 38.5588 36.1149 39.4636 37.231 39.4636Z" fill="#435BFD"/>
<path fill-rule="evenodd" clip-rule="evenodd" d="M205.627 36.0956C206.743 36.0956 207.648 35.1909 207.648 34.0749C207.648 32.9589 206.743 32.0541 205.627 32.0541C204.511 32.0541 203.607 32.9589 203.607 34.0749C203.607 35.1909 204.511 36.0956 205.627 36.0956Z" fill="#C1DDFF"/>
<path fill-rule="evenodd" clip-rule="evenodd" d="M26.6782 144.094C27.7943 144.094 28.699 143.189 28.699 142.073C28.699 140.957 27.7943 140.052 26.6782 140.052C25.5622 140.052 24.6575 140.957 24.6575 142.073C24.6575 143.189 25.5622 144.094 26.6782 144.094Z" fill="#435BFD"/>
<path fill-rule="evenodd" clip-rule="evenodd" d="M28.4744 30.0895L18.3706 30.0895V27.5636L28.4744 27.5636V30.0895Z" fill="#435BFD"/>
<path fill-rule="evenodd" clip-rule="evenodd" d="M22.5805 34.2994L22.5805 24.1956L25.1064 24.1956L25.1064 34.2994L22.5805 34.2994Z" fill="#435BFD"/>
<path fill-rule="evenodd" clip-rule="evenodd" d="M207.592 124.391V128.601H210.118V124.391H213.486V121.865H210.118V118.498H207.592V121.865H203.382V124.391H207.592Z" fill="#435BFD"/>
<path d="M318.852 169.198H402.467V110.506V71.915L380.759 51.8153H365.283H349.806H334.329H318.852V169.198Z" fill="white" stroke="#435BFD" stroke-width="2.24528"/>
<path d="M317.961 64.2149L300.145 65.8681L318.331 142.745" stroke="#435BFD" stroke-width="2.24528" stroke-linecap="round"/>
<path d="M403.23 87.7452L415.561 89.3089L402.859 166.275" stroke="#435BFD" stroke-width="2.24528" stroke-linecap="round"/>
<path d="M319.571 161.758H401.408V168.371H319.571L319.571 161.758Z" fill="#9BC8FF"/>
<line x1="329.373" y1="141.623" x2="353.58" y2="141.623" stroke="#9BC8FF" stroke-width="2.24528" stroke-linecap="round"/>
<path d="M329.904 129.519H353.05" stroke="#9BC8FF" stroke-width="2.24528" stroke-linecap="round"/>
<path d="M328.251 116.293H391.075" stroke="#9BC8FF" stroke-width="2.24528" stroke-linecap="round"/>
<path d="M379.502 52.6418L379.502 75.7877L402.648 75.7876" stroke="#435BFD" stroke-width="2.24528"/>
<rect x="362.797" y="126.356" width="31.4121" height="26.4523" fill="white" stroke="#435BFD" stroke-width="2.24528" stroke-linecap="round"/>
<path fill-rule="evenodd" clip-rule="evenodd" d="M411.071 65.901C411.071 61.8088 414.388 58.4915 418.48 58.4915C422.572 58.4915 425.89 61.8088 425.89 65.901C425.89 69.9931 422.572 73.3104 418.48 73.3104C414.388 73.3104 411.071 69.9931 411.071 65.901ZM418.48 61.1859C415.876 61.1859 413.765 63.2969 413.765 65.901C413.765 68.505 415.876 70.6161 418.48 70.6161C421.084 70.6161 423.195 68.505 423.195 65.901C423.195 63.2969 421.084 61.1859 418.48 61.1859Z" fill="#9BC8FF"/>
<path fill-rule="evenodd" clip-rule="evenodd" d="M303.297 133.765C304.413 133.765 305.318 132.861 305.318 131.745C305.318 130.629 304.413 129.724 303.297 129.724C302.181 129.724 301.276 130.629 301.276 131.745C301.276 132.861 302.181 133.765 303.297 133.765Z" fill="#435BFD"/>
<path fill-rule="evenodd" clip-rule="evenodd" d="M316.208 38.79C317.138 38.79 317.892 38.036 317.892 37.106C317.892 36.176 317.138 35.4221 316.208 35.4221C315.278 35.4221 314.524 36.176 314.524 37.106C314.524 38.036 315.278 38.79 316.208 38.79Z" fill="#435BFD"/>
<path fill-rule="evenodd" clip-rule="evenodd" d="M429.258 46.3669C430.374 46.3669 431.279 45.4622 431.279 44.3461C431.279 43.2301 430.374 42.3254 429.258 42.3254C428.142 42.3254 427.237 43.2301 427.237 44.3461C427.237 45.4622 428.142 46.3669 429.258 46.3669Z" fill="#435BFD"/>
<path fill-rule="evenodd" clip-rule="evenodd" d="M302.175 154.703H292.071V152.177H302.175V154.703Z" fill="#9BC8FF"/>
<path fill-rule="evenodd" clip-rule="evenodd" d="M296.281 158.913L296.281 148.809L298.807 148.809L298.807 158.913L296.281 158.913Z" fill="#9BC8FF"/>
<path fill-rule="evenodd" clip-rule="evenodd" d="M431.222 134.663V138.873H433.748V134.663H437.116V132.137H433.748V128.769H431.222V132.137H427.012V134.663H431.222Z" fill="#435BFD"/>
<path d="M358.323 63.4881C363.623 63.895 368.597 66.282 372.314 70.2018C376.031 74.1216 378.235 79.3054 378.514 84.7819C371.784 84.8638 365.053 84.7819 358.307 84.7819C358.323 77.6567 358.323 70.5969 358.323 63.4881Z" fill="#9BC8FF"/>
<path d="M354.377 109.516C365.848 109.516 375.146 99.9666 375.146 88.1862H354.377V66.856C342.907 66.856 333.608 76.4059 333.608 88.1862C333.608 99.9666 342.907 109.516 354.377 109.516Z" fill="#9BC8FF"/>
<path d="M379.355 131.031C380.821 131.031 382.094 131.278 383.174 131.772C384.254 132.25 385.087 132.945 385.674 133.855C386.26 134.75 386.553 135.807 386.553 137.026C386.553 138.245 386.26 139.302 385.674 140.197C385.087 141.092 384.254 141.786 383.174 142.28C382.094 142.759 380.821 142.998 379.355 142.998H376.531V147.233H371.948V131.031H379.355ZM379.077 139.387C380.018 139.387 380.728 139.186 381.207 138.785C381.685 138.369 381.924 137.782 381.924 137.026C381.924 136.27 381.685 135.684 381.207 135.267C380.728 134.85 380.018 134.642 379.077 134.642H376.531V139.387H379.077Z" fill="#435BFD"/>
</svg>
