<svg width="449" height="187" viewBox="0 0 449 187" fill="none" xmlns="http://www.w3.org/2000/svg">
<rect width="449" height="187" fill="white"/>
<rect x="166" y="125" width="28.2899" height="37.7199" fill="#99A6FF"/>
<path fill-rule="evenodd" clip-rule="evenodd" d="M194.29 132.287C187.898 132.287 182.717 137.468 182.717 143.86C182.717 150.252 187.898 155.433 194.29 155.433C200.682 155.433 205.863 150.252 205.863 143.86C205.863 137.468 200.682 132.287 194.29 132.287ZM180.717 143.86C180.717 136.364 186.794 130.287 194.29 130.287C201.786 130.287 207.863 136.364 207.863 143.86C207.863 151.356 201.786 157.433 194.29 157.433C186.794 157.433 180.717 151.356 180.717 143.86Z" fill="#99A6FF"/>
<path d="M39.313 148.39H188.621C188.621 156.202 182.288 162.535 174.476 162.535H53.458C45.6459 162.535 39.313 156.202 39.313 148.39Z" fill="#F6FBFF"/>
<path d="M40.8845 156.248H185.478C184.554 159.943 181.234 162.535 177.426 162.535H52.2272C47.6154 162.535 43.3288 160.159 40.8845 156.248Z" fill="#C1DDFF"/>
<path d="M53.458 52.5186H176.048V148.39H53.458V52.5186Z" fill="#DDECFF"/>
<path d="M52.6721 140.532V51.7327H72.3179M154.83 51.7327H176.834V146.033M47.1713 161.749C44.5519 160.701 39.313 156.406 39.313 147.604C46.2283 147.604 74.1515 147.604 87.2487 147.604M98.2504 147.604H189.407C188.621 152.319 185.321 161.749 178.405 161.749" stroke="#445BFD" stroke-width="2" stroke-linecap="round"/>
<line x1="25" y1="162.899" x2="432" y2="162.899" stroke="#445BFD" stroke-width="2"/>
<rect x="59.7446" y="61.9485" width="111.588" height="78.5832" fill="white"/>
<rect x="72.3179" y="87.0951" width="83.2982" height="11.0016" rx="5.50082" fill="#F6FBFF"/>
<rect x="72.3179" y="87.0951" width="45.5782" height="11.0016" rx="5.50082" fill="#435BFD"/>
<path d="M80.1763 57.2336C80.1763 66.0349 89.0824 69.283 93.5354 69.8069L139.899 71.3785L145.4 68.2352L149.329 59.5911L146.972 51.7327L140.685 46.2319C139.899 44.1364 136.599 39.3166 129.684 36.8019C125.912 29.2579 118.158 27.3719 114.753 27.3719C104.537 27.3719 103.751 34.4444 99.8221 37.5878C91.6494 40.1024 91.1779 45.4461 91.9637 47.8036C88.0346 47.2797 80.1763 48.4322 80.1763 57.2336Z" fill="white"/>
<path d="M141.281 69.2278C145.242 52.0305 129.926 41.6575 123.852 39.7467V38.1089L127.813 36.471H132.566L135.735 38.9278L141.281 45.4792L146.826 50.3927L149.203 58.5819C149.731 60.4927 148.886 67.2624 141.281 69.2278Z" fill="#C1E1FF"/>
<path d="M125.672 62.6103L118.393 62.6103L118.393 78.3269L111.113 78.3269L111.113 62.6103L103.834 62.6103L115.157 51.0296L125.672 62.6103Z" fill="#435BFD"/>
<path d="M100.194 47.39H88.5171C85.7368 47.65 80.1763 50.1977 80.1763 58.3089C80.1763 66.4201 89.0732 68.9679 93.5216 69.2279" stroke="#445BFD" stroke-width="2" stroke-linecap="round"/>
<path d="M91.0952 47.1496C91.3005 44.8123 92.7131 40.6668 96.586 38.9092C98.9333 37.844 101.366 36.649 102.709 34.4492C105.192 30.3841 108.148 27.3719 114.985 27.3719C123.745 27.3719 130.115 34.7886 130.115 37.2608M121.356 41.3811C124.132 38.769 130.99 35.1632 137.134 40.4851C137.783 41.0469 138.24 41.7897 138.644 42.5467C139.797 44.7061 141.998 47.8376 145.043 49.8976C146.601 50.9515 148.119 52.2233 148.63 54.0336C150.846 61.8803 147.722 69.1508 140.319 70.91C139.892 71.0115 139.45 71.0477 139.011 71.0477C136.83 71.0477 135.377 71.0477 134.893 71.0477" stroke="#445BFD" stroke-width="2" stroke-linecap="round"/>
<line x1="73.8896" y1="112.313" x2="157.188" y2="112.313" stroke="#435BFD" stroke-width="3"/>
<path d="M75.4612 124.815L109.252 124.815" stroke="#9BC8FF" stroke-width="3"/>
<rect x="212.196" y="82.374" width="8.83597" height="8.83597" fill="#D1D7FF"/>
<rect x="212.196" y="102.255" width="8.83597" height="8.83597" fill="#D1D7FF"/>
<rect x="236" y="82.4989" width="8.83597" height="8.83597" fill="#8897FF"/>
<rect x="236" y="102.38" width="8.83597" height="8.83597" fill="#8897FF"/>
<rect x="259.349" y="82.4989" width="8.83597" height="8.83597" fill="#445BFD"/>
<rect x="259.349" y="102.38" width="8.83597" height="8.83597" fill="#445BFD"/>
<path fill-rule="evenodd" clip-rule="evenodd" d="M30 64.2003C30 60.5552 32.9549 57.6003 36.6 57.6003C40.2451 57.6003 43.2 60.5552 43.2 64.2003C43.2 67.8454 40.2451 70.8003 36.6 70.8003C32.9549 70.8003 30 67.8454 30 64.2003ZM36.6 60.0003C34.2804 60.0003 32.4 61.8807 32.4 64.2003C32.4 66.5199 34.2804 68.4003 36.6 68.4003C38.9196 68.4003 40.8 66.5199 40.8 64.2003C40.8 61.8807 38.9196 60.0003 36.6 60.0003Z" fill="#C1DDFF"/>
<path fill-rule="evenodd" clip-rule="evenodd" d="M191.4 65.4001C194.382 65.4001 196.8 62.9824 196.8 60.0001C196.8 57.0178 194.382 54.6001 191.4 54.6001C188.418 54.6001 186 57.0178 186 60.0001C186 62.9824 188.418 65.4001 191.4 65.4001Z" stroke="#435BFD" stroke-width="2.4"/>
<path fill-rule="evenodd" clip-rule="evenodd" d="M51 45.6C51.9941 45.6 52.8 44.7941 52.8 43.8C52.8 42.8059 51.9941 42 51 42C50.0058 42 49.2 42.8059 49.2 43.8C49.2 44.7941 50.0058 45.6 51 45.6Z" fill="#435BFD"/>
<path fill-rule="evenodd" clip-rule="evenodd" d="M201 42.6C201.994 42.6 202.8 41.7941 202.8 40.8C202.8 39.8059 201.994 39 201 39C200.006 39 199.2 39.8059 199.2 40.8C199.2 41.7941 200.006 42.6 201 42.6Z" fill="#C1DDFF"/>
<path fill-rule="evenodd" clip-rule="evenodd" d="M41.6 138.8C42.5942 138.8 43.4 137.994 43.4 137C43.4 136.006 42.5942 135.2 41.6 135.2C40.6059 135.2 39.8 136.006 39.8 137C39.8 137.994 40.6059 138.8 41.6 138.8Z" fill="#435BFD"/>
<path fill-rule="evenodd" clip-rule="evenodd" d="M43.2 37.25H34.2V35H43.2V37.25Z" fill="#435BFD"/>
<path fill-rule="evenodd" clip-rule="evenodd" d="M37.95 41L37.95 32L40.2 32L40.2 41L37.95 41Z" fill="#435BFD"/>
<path fill-rule="evenodd" clip-rule="evenodd" d="M202.75 121.25L202.75 125H205V121.25H208V119H205V116H202.75L202.75 119H199V121.25H202.75Z" fill="#435BFD"/>
<rect x="304" y="47" width="89" height="115" stroke="#445BFD" stroke-width="2" stroke-linecap="round"/>
<rect x="310" y="54" width="77" height="85" stroke="#445BFD" stroke-width="2" stroke-linecap="round"/>
<circle cx="348.5" cy="150.5" r="3.5" fill="#445BFD"/>
<circle cx="349.5" cy="94.9848" r="20.5" stroke="#445BFD" stroke-width="2.48485" stroke-linecap="round"/>
<path d="M359.674 95.6752C359.674 95.9982 359.649 96.4579 359.6 97.0542H343.982C344.256 98.5203 344.964 99.6882 346.107 100.558C347.275 101.403 348.716 101.825 350.431 101.825C352.617 101.825 354.419 101.105 355.835 99.6633L358.332 102.533C357.438 103.602 356.307 104.409 354.941 104.956C353.574 105.503 352.033 105.776 350.319 105.776C348.132 105.776 346.206 105.341 344.541 104.472C342.877 103.602 341.584 102.397 340.665 100.856C339.771 99.2906 339.323 97.5264 339.323 95.5633C339.323 93.6252 339.758 91.8858 340.628 90.3452C341.522 88.7797 342.752 87.5621 344.318 86.6924C345.883 85.8227 347.648 85.3879 349.611 85.3879C351.549 85.3879 353.276 85.8227 354.791 86.6924C356.332 87.5373 357.525 88.7424 358.37 90.3079C359.239 91.8485 359.674 93.6376 359.674 95.6752ZM349.611 89.1152C348.12 89.1152 346.852 89.5624 345.809 90.457C344.79 91.3267 344.169 92.4945 343.945 93.9606H355.239C355.04 92.5194 354.431 91.3515 353.412 90.457C352.394 89.5624 351.126 89.1152 349.611 89.1152Z" fill="#445BFD"/>
<path fill-rule="evenodd" clip-rule="evenodd" d="M400 71.6C400 67.9549 402.955 65 406.6 65C410.245 65 413.2 67.9549 413.2 71.6C413.2 75.2451 410.245 78.2 406.6 78.2C402.955 78.2 400 75.2451 400 71.6ZM406.6 67.4C404.28 67.4 402.4 69.2804 402.4 71.6C402.4 73.9196 404.28 75.8 406.6 75.8C408.92 75.8 410.8 73.9196 410.8 71.6C410.8 69.2804 408.92 67.4 406.6 67.4Z" fill="#9BC8FF"/>
<path fill-rule="evenodd" clip-rule="evenodd" d="M290 129.6C290.994 129.6 291.8 128.794 291.8 127.8C291.8 126.806 290.994 126 290 126C289.006 126 288.2 126.806 288.2 127.8C288.2 128.794 289.006 129.6 290 129.6Z" fill="#435BFD"/>
<path fill-rule="evenodd" clip-rule="evenodd" d="M291.5 48C292.328 48 293 47.3284 293 46.5C293 45.6716 292.328 45 291.5 45C290.672 45 290 45.6716 290 46.5C290 47.3284 290.672 48 291.5 48Z" fill="#435BFD"/>
<path fill-rule="evenodd" clip-rule="evenodd" d="M402.2 51.7492C403.194 51.7492 404 50.9433 404 49.9492C404 48.9551 403.194 48.1492 402.2 48.1492C401.206 48.1492 400.4 48.9551 400.4 49.9492C400.4 50.9433 401.206 51.7492 402.2 51.7492Z" fill="#435BFD"/>
<path fill-rule="evenodd" clip-rule="evenodd" d="M289 148.25H280V146H289V148.25Z" fill="#9BC8FF"/>
<path fill-rule="evenodd" clip-rule="evenodd" d="M283.75 152L283.75 143L286 143L286 152L283.75 152Z" fill="#9BC8FF"/>
<path fill-rule="evenodd" clip-rule="evenodd" d="M403.95 130.399L403.95 134.149H406.2V130.399H409.2V128.149H406.2V125.149H403.95L403.95 128.149H400.2V130.399H403.95Z" fill="#435BFD"/>
</svg>
