<svg width="449" height="187" viewBox="0 0 449 187" fill="none" xmlns="http://www.w3.org/2000/svg">
<rect width="449" height="187" fill="white"/>
<rect x="166" y="125" width="28.2899" height="37.7199" fill="#99A6FF"/>
<path fill-rule="evenodd" clip-rule="evenodd" d="M194.29 132.287C187.898 132.287 182.717 137.468 182.717 143.86C182.717 150.252 187.898 155.433 194.29 155.433C200.682 155.433 205.863 150.252 205.863 143.86C205.863 137.468 200.682 132.287 194.29 132.287ZM180.717 143.86C180.717 136.364 186.794 130.287 194.29 130.287C201.786 130.287 207.863 136.364 207.863 143.86C207.863 151.356 201.786 157.433 194.29 157.433C186.794 157.433 180.717 151.356 180.717 143.86Z" fill="#99A6FF"/>
<path d="M39.313 148.39H188.621C188.621 156.202 182.288 162.535 174.476 162.535H53.458C45.6459 162.535 39.313 156.202 39.313 148.39Z" fill="#F6FBFF"/>
<path d="M40.8848 156.248H185.478C184.554 159.943 181.234 162.535 177.426 162.535H52.2275C47.6156 162.535 43.329 160.159 40.8848 156.248Z" fill="#C1DDFF"/>
<path d="M53.458 52.5186H176.048V148.39H53.458V52.5186Z" fill="#DDECFF"/>
<path d="M52.6721 140.532V51.7327H72.3179M154.83 51.7327H176.834V146.033M47.1713 161.749C44.5519 160.701 39.313 156.406 39.313 147.604C46.2283 147.604 74.1515 147.604 87.2487 147.604M98.2504 147.604H189.407C188.621 152.319 185.321 161.749 178.405 161.749" stroke="#445BFD" stroke-width="2" stroke-linecap="round"/>
<line x1="25" y1="162.899" x2="432" y2="162.899" stroke="#445BFD" stroke-width="2"/>
<rect x="59.7446" y="61.9485" width="111.588" height="78.5832" fill="white"/>
<rect x="72.3179" y="87.0951" width="83.2982" height="11.0016" rx="5.50082" fill="#F6FBFF"/>
<rect x="72.3179" y="87.0951" width="45.5782" height="11.0016" rx="5.50082" fill="#435BFD"/>
<path d="M80.1763 57.2336C80.1763 66.0349 89.0824 69.283 93.5354 69.8069L139.899 71.3785L145.4 68.2352L149.329 59.5911L146.972 51.7327L140.685 46.2319C139.899 44.1364 136.599 39.3166 129.684 36.8019C125.912 29.2579 118.158 27.3719 114.753 27.3719C104.537 27.3719 103.751 34.4444 99.8221 37.5878C91.6494 40.1024 91.1779 45.4461 91.9637 47.8036C88.0346 47.2797 80.1763 48.4322 80.1763 57.2336Z" fill="white"/>
<path d="M141.281 69.2278C145.242 52.0305 129.926 41.6575 123.852 39.7467V38.1089L127.813 36.471H132.566L135.735 38.9278L141.281 45.4792L146.826 50.3927L149.203 58.5819C149.731 60.4927 148.886 67.2624 141.281 69.2278Z" fill="#C1E1FF"/>
<path d="M125.672 62.6103L118.393 62.6103L118.393 78.3269L111.113 78.3269L111.113 62.6103L103.834 62.6103L115.157 51.0296L125.672 62.6103Z" fill="#435BFD"/>
<path d="M100.194 47.39H88.5171C85.7368 47.65 80.1763 50.1977 80.1763 58.3089C80.1763 66.4201 89.0732 68.9679 93.5216 69.2278" stroke="#445BFD" stroke-width="2" stroke-linecap="round"/>
<path d="M91.0952 47.1496C91.3005 44.8123 92.7131 40.6668 96.586 38.9092C98.9333 37.844 101.366 36.649 102.709 34.4492C105.192 30.3841 108.148 27.3719 114.985 27.3719C123.745 27.3719 130.115 34.7886 130.115 37.2608M121.356 41.3811C124.132 38.769 130.99 35.1632 137.134 40.4851C137.783 41.0469 138.24 41.7897 138.644 42.5466C139.797 44.7061 141.998 47.8376 145.043 49.8976C146.601 50.9515 148.119 52.2233 148.63 54.0336C150.846 61.8803 147.722 69.1508 140.319 70.91C139.892 71.0115 139.45 71.0477 139.011 71.0477C136.83 71.0477 135.377 71.0477 134.893 71.0477" stroke="#445BFD" stroke-width="2" stroke-linecap="round"/>
<line x1="73.8896" y1="112.313" x2="157.188" y2="112.313" stroke="#435BFD" stroke-width="3"/>
<path d="M75.4609 124.815L109.252 124.815" stroke="#9BC8FF" stroke-width="3"/>
<rect x="212.196" y="82.374" width="8.83597" height="8.83597" fill="#D1D7FF"/>
<rect x="212.196" y="102.255" width="8.83597" height="8.83597" fill="#D1D7FF"/>
<rect x="236" y="82.4989" width="8.83597" height="8.83597" fill="#8897FF"/>
<rect x="236" y="102.38" width="8.83597" height="8.83597" fill="#8897FF"/>
<rect x="259.35" y="82.4989" width="8.83597" height="8.83597" fill="#445BFD"/>
<rect x="259.35" y="102.38" width="8.83597" height="8.83597" fill="#445BFD"/>
<path fill-rule="evenodd" clip-rule="evenodd" d="M30 64.2003C30 60.5552 32.9549 57.6003 36.6 57.6003C40.2451 57.6003 43.2 60.5552 43.2 64.2003C43.2 67.8454 40.2451 70.8003 36.6 70.8003C32.9549 70.8003 30 67.8454 30 64.2003ZM36.6 60.0003C34.2804 60.0003 32.4 61.8807 32.4 64.2003C32.4 66.5199 34.2804 68.4003 36.6 68.4003C38.9196 68.4003 40.8 66.5199 40.8 64.2003C40.8 61.8807 38.9196 60.0003 36.6 60.0003Z" fill="#C1DDFF"/>
<path fill-rule="evenodd" clip-rule="evenodd" d="M191.4 65.4001C194.382 65.4001 196.8 62.9824 196.8 60.0001C196.8 57.0178 194.382 54.6001 191.4 54.6001C188.418 54.6001 186 57.0178 186 60.0001C186 62.9824 188.418 65.4001 191.4 65.4001Z" stroke="#435BFD" stroke-width="2.4"/>
<path fill-rule="evenodd" clip-rule="evenodd" d="M51.0002 45.6C51.9943 45.6 52.8002 44.7941 52.8002 43.8C52.8002 42.8059 51.9943 42 51.0002 42C50.0061 42 49.2002 42.8059 49.2002 43.8C49.2002 44.7941 50.0061 45.6 51.0002 45.6Z" fill="#435BFD"/>
<path fill-rule="evenodd" clip-rule="evenodd" d="M201 42.6C201.994 42.6 202.8 41.7941 202.8 40.8C202.8 39.8059 201.994 39 201 39C200.006 39 199.2 39.8059 199.2 40.8C199.2 41.7941 200.006 42.6 201 42.6Z" fill="#C1DDFF"/>
<path fill-rule="evenodd" clip-rule="evenodd" d="M41.5998 138.8C42.5939 138.8 43.3998 137.994 43.3998 137C43.3998 136.006 42.5939 135.2 41.5998 135.2C40.6057 135.2 39.7998 136.006 39.7998 137C39.7998 137.994 40.6057 138.8 41.5998 138.8Z" fill="#435BFD"/>
<path fill-rule="evenodd" clip-rule="evenodd" d="M43.2002 37.25H34.2002V35H43.2002V37.25Z" fill="#435BFD"/>
<path fill-rule="evenodd" clip-rule="evenodd" d="M37.9502 41L37.9502 32L40.2002 32L40.2002 41L37.9502 41Z" fill="#435BFD"/>
<path fill-rule="evenodd" clip-rule="evenodd" d="M202.75 121.25L202.75 125H205V121.25H208V119H205V116H202.75L202.75 119H199V121.25H202.75Z" fill="#435BFD"/>
<path d="M302.953 162.637H383.981V105.762V68.364L362.945 48.8861H347.947H332.949H317.951H302.953V162.637Z" fill="white" stroke="#445BFD" stroke-width="2.17582"/>
<path d="M302.089 60.9021L284.825 62.5042L302.448 137.003" stroke="#445BFD" stroke-width="2.17582" stroke-linecap="round"/>
<path d="M384.72 83.7045L396.67 85.2198L384.361 159.805" stroke="#445BFD" stroke-width="2.17582" stroke-linecap="round"/>
<path d="M303.65 155.427H382.955V161.836H303.65L303.65 155.427Z" fill="#C1DDFF"/>
<line x1="338.783" y1="91.0556" x2="371.854" y2="91.0556" stroke="#9BC8FF" stroke-width="2.17582" stroke-linecap="round"/>
<line x1="313.088" y1="135.912" x2="325.912" y2="135.912" stroke="#9BC8FF" stroke-width="2.17582" stroke-linecap="round"/>
<path d="M339.297 79.3265H371.339" stroke="#9BC8FF" stroke-width="2.17582" stroke-linecap="round"/>
<path d="M313 124H326" stroke="#9BC8FF" stroke-width="2.17582" stroke-linecap="round"/>
<path d="M312.061 101.756H372.942" stroke="#445BFD" stroke-width="2.17582" stroke-linecap="round"/>
<path d="M312.061 111.369H372.942" stroke="#445BFD" stroke-width="2.17582" stroke-linecap="round"/>
<path d="M361.727 49.6871L361.727 72.1169L384.157 72.1168" stroke="#445BFD" stroke-width="2.17582"/>
<path d="M325.214 61.0984L325.967 79.4467C326.13 83.401 322.957 86.6901 319 86.6703V86.6703C315.167 86.6511 312.076 83.5289 312.095 79.6966L312.268 45.2858C312.289 41.0804 315.715 37.6882 319.92 37.7093V37.7093C323.704 37.7282 326.899 40.5221 327.423 44.2691L327.832 47.1882" stroke="#445BFD" stroke-width="2.17582" stroke-linecap="round"/>
<path d="M341.085 129.821H336.262V126.299H350.326V129.821H345.526V142H341.085V129.821ZM361.215 142L357.963 137.133L354.755 142H349.686L355.406 134.06L349.933 126.299H354.935L358.075 130.83L361.17 126.299H365.97L360.498 133.88L366.329 142H361.215ZM370.502 129.821H365.679V126.299H379.743V129.821H374.943V142H370.502V129.821Z" fill="#445BFD"/>
<rect x="332" y="121" width="52" height="26" stroke="#445BFD" stroke-width="2.17582"/>
<path fill-rule="evenodd" clip-rule="evenodd" d="M392.319 62.536C392.319 58.5705 395.534 55.3558 399.499 55.3558C403.465 55.3558 406.679 58.5705 406.679 62.536C406.679 66.5016 403.465 69.7162 399.499 69.7162C395.534 69.7162 392.319 66.5016 392.319 62.536ZM399.499 57.9668C396.976 57.9668 394.93 60.0125 394.93 62.536C394.93 65.0595 396.976 67.1053 399.499 67.1053C402.023 67.1053 404.068 65.0595 404.068 62.536C404.068 60.0125 402.023 57.9668 399.499 57.9668Z" fill="#9BC8FF"/>
<path fill-rule="evenodd" clip-rule="evenodd" d="M287.879 128.301C288.961 128.301 289.837 127.424 289.837 126.343C289.837 125.261 288.961 124.385 287.879 124.385C286.798 124.385 285.921 125.261 285.921 126.343C285.921 127.424 286.798 128.301 287.879 128.301Z" fill="#435BFD"/>
<path fill-rule="evenodd" clip-rule="evenodd" d="M300.39 36.2637C301.291 36.2637 302.022 35.5331 302.022 34.6319C302.022 33.7306 301.291 33 300.39 33C299.489 33 298.758 33.7306 298.758 34.6319C298.758 35.5331 299.489 36.2637 300.39 36.2637Z" fill="#435BFD"/>
<path fill-rule="evenodd" clip-rule="evenodd" d="M409.943 43.6062C411.025 43.6062 411.901 42.7295 411.901 41.648C411.901 40.5665 411.025 39.6898 409.943 39.6898C408.862 39.6898 407.985 40.5665 407.985 41.648C407.985 42.7295 408.862 43.6062 409.943 43.6062Z" fill="#435BFD"/>
<path fill-rule="evenodd" clip-rule="evenodd" d="M286.791 148.591H277V146.143H286.791V148.591Z" fill="#9BC8FF"/>
<path fill-rule="evenodd" clip-rule="evenodd" d="M281.08 152.67L281.08 142.879L283.527 142.879L283.527 152.67L281.08 152.67Z" fill="#9BC8FF"/>
<path fill-rule="evenodd" clip-rule="evenodd" d="M411.847 129.171V133.25H414.295V129.171H417.558V126.723H414.295V123.459L411.847 123.459V126.723H407.767V129.171H411.847Z" fill="#435BFD"/>
</svg>
