<svg width="449" height="187" viewBox="0 0 449 187" fill="none" xmlns="http://www.w3.org/2000/svg">
<rect width="449" height="187" fill="white"/>
<rect x="160.166" y="127.741" width="30.9306" height="41.2408" fill="#99A6FF"/>
<path fill-rule="evenodd" clip-rule="evenodd" d="M191.097 135.708C184.108 135.708 178.443 141.373 178.443 148.361C178.443 155.35 184.108 161.015 191.097 161.015C198.085 161.015 203.75 155.35 203.75 148.361C203.75 141.373 198.085 135.708 191.097 135.708ZM176.256 148.361C176.256 140.165 182.901 133.521 191.097 133.521C199.293 133.521 205.937 140.165 205.937 148.361C205.937 156.557 199.293 163.202 191.097 163.202C182.901 163.202 176.256 156.557 176.256 148.361Z" fill="#99A6FF"/>
<path d="M21.6536 153.314H184.899C184.899 161.856 177.975 168.78 169.433 168.78H37.1189C28.5776 168.78 21.6536 161.856 21.6536 153.314Z" fill="#F6FBFF"/>
<path d="M23.3718 161.906H181.462C180.452 165.946 176.822 168.78 172.658 168.78H35.7733C30.7309 168.78 26.0443 166.182 23.3718 161.906Z" fill="#C1DDFF"/>
<path d="M37.1189 48.4939H171.152V153.314H37.1189V48.4939Z" fill="#DDECFF"/>
<path d="M36.2597 144.723V47.6347H57.7393M147.954 47.6347H172.011V150.737M30.2454 167.92C27.3815 166.775 21.6536 162.078 21.6536 152.455C29.2144 152.455 59.7441 152.455 74.0638 152.455M86.0924 152.455H185.758C184.899 157.61 181.29 167.92 173.729 167.92" stroke="#445BFD" stroke-width="2" stroke-linecap="round"/>
<line x1="6.00464" y1="169.271" x2="445" y2="169.271" stroke="#445BFD" stroke-width="2"/>
<rect x="43.9924" y="58.8041" width="122.004" height="85.9184" fill="white"/>
<rect x="57.7393" y="86.298" width="91.0735" height="12.0286" rx="6.01429" fill="#F6FBFF"/>
<rect x="57.7393" y="86.298" width="49.8327" height="12.0286" rx="6.01429" fill="#435BFD"/>
<path d="M66.3313 53.649C66.3313 63.2719 76.0687 66.8232 80.9374 67.3959L131.629 69.1143L137.644 65.6776L141.94 56.2265L139.362 47.6347L132.488 41.6204C131.629 39.3293 128.021 34.0596 120.46 31.3102C116.336 23.062 107.859 21 104.135 21C92.966 21 92.1068 28.7327 87.8109 32.1694C78.8754 34.9188 78.3599 40.7612 79.2191 43.3388C74.9231 42.766 66.3313 44.0261 66.3313 53.649Z" fill="white"/>
<path d="M133.139 66.7628C137.47 47.9603 120.724 36.619 114.084 34.5299V32.7391L118.415 30.9484H123.611L127.076 33.6345L133.139 40.7974L139.202 46.1696L141.801 55.1232C142.378 57.2123 141.454 64.614 133.139 66.7628Z" fill="#C1E1FF"/>
<path d="M116.073 59.5276L108.115 59.5276L108.115 76.7113L100.156 76.7113L100.156 59.5276L92.1972 59.5276L104.578 46.866L116.073 59.5276Z" fill="#435BFD"/>
<path d="M88.2179 42.8866H75.4507C72.4109 43.1708 66.3313 45.9564 66.3313 54.8247C66.3313 63.6931 76.0587 66.4786 80.9224 66.7629" stroke="#445BFD" stroke-width="2" stroke-linecap="round"/>
<path d="M78.2693 42.6238C78.4938 40.0682 80.0381 35.5359 84.2726 33.6142C86.839 32.4496 89.4985 31.143 90.9675 28.7378C93.682 24.2933 96.914 21 104.389 21C113.966 21 120.932 29.1089 120.932 31.8119M111.354 36.3169C114.39 33.4609 121.888 29.5185 128.606 35.3371C129.315 35.9514 129.815 36.7635 130.257 37.5912C131.517 39.9522 133.923 43.376 137.253 45.6283C138.957 46.7806 140.616 48.1711 141.175 50.1503C143.597 58.7294 140.182 66.6787 132.088 68.602C131.621 68.713 131.138 68.7525 130.657 68.7525C128.273 68.7525 126.684 68.7525 126.156 68.7525" stroke="#445BFD" stroke-width="2" stroke-linecap="round"/>
<line x1="59.4578" y1="114.01" x2="150.531" y2="114.01" stroke="#435BFD" stroke-width="3"/>
<path d="M61.176 127.539L98.1209 127.539" stroke="#9BC8FF" stroke-width="3"/>
<rect x="210.674" y="81.1362" width="9.66075" height="9.66075" fill="#D1D7FF"/>
<rect x="210.674" y="102.873" width="9.66075" height="9.66075" fill="#D1D7FF"/>
<rect x="236.7" y="81.2727" width="9.66075" height="9.66075" fill="#8897FF"/>
<rect x="236.7" y="103.009" width="9.66075" height="9.66075" fill="#8897FF"/>
<rect x="262.229" y="81.2727" width="9.66075" height="9.66075" fill="#445BFD"/>
<rect x="262.229" y="103.009" width="9.66075" height="9.66075" fill="#445BFD"/>
<path fill-rule="evenodd" clip-rule="evenodd" d="M11.4714 61.266C11.4714 57.2807 14.7022 54.0499 18.6875 54.0499C22.6728 54.0499 25.9036 57.2807 25.9036 61.266C25.9036 65.2513 22.6728 68.4821 18.6875 68.4821C14.7022 68.4821 11.4714 65.2513 11.4714 61.266ZM18.6875 56.674C16.1514 56.674 14.0955 58.7299 14.0955 61.266C14.0955 63.8021 16.1514 65.8581 18.6875 65.8581C21.2236 65.8581 23.2795 63.8021 23.2795 61.266C23.2795 58.7299 21.2236 56.674 18.6875 56.674Z" fill="#C1DDFF"/>
<path fill-rule="evenodd" clip-rule="evenodd" d="M187.937 62.5778C191.198 62.5778 193.841 59.9345 193.841 56.6738C193.841 53.4131 191.198 50.7697 187.937 50.7697C184.676 50.7697 182.033 53.4131 182.033 56.6738C182.033 59.9345 184.676 62.5778 187.937 62.5778Z" stroke="#435BFD" stroke-width="2"/>
<path fill-rule="evenodd" clip-rule="evenodd" d="M34.4314 40.9295C35.5183 40.9295 36.3994 40.0484 36.3994 38.9615C36.3994 37.8746 35.5183 36.9935 34.4314 36.9935C33.3445 36.9935 32.4634 37.8746 32.4634 38.9615C32.4634 40.0484 33.3445 40.9295 34.4314 40.9295Z" fill="#435BFD"/>
<path fill-rule="evenodd" clip-rule="evenodd" d="M198.433 37.6495C199.52 37.6495 200.401 36.7684 200.401 35.6815C200.401 34.5946 199.52 33.7135 198.433 33.7135C197.346 33.7135 196.465 34.5946 196.465 35.6815C196.465 36.7684 197.346 37.6495 198.433 37.6495Z" fill="#C1DDFF"/>
<path fill-rule="evenodd" clip-rule="evenodd" d="M24.1541 142.829C25.241 142.829 26.1221 141.948 26.1221 140.861C26.1221 139.774 25.241 138.893 24.1541 138.893C23.0671 138.893 22.186 139.774 22.186 140.861C22.186 141.948 23.0671 142.829 24.1541 142.829Z" fill="#435BFD"/>
<path fill-rule="evenodd" clip-rule="evenodd" d="M25.9033 31.8001L16.0632 31.8001V29.3401L25.9033 29.3401V31.8001Z" fill="#435BFD"/>
<path fill-rule="evenodd" clip-rule="evenodd" d="M20.1633 35.9001L20.1633 26.0601L22.6233 26.0601L22.6233 35.9001L20.1633 35.9001Z" fill="#435BFD"/>
<path fill-rule="evenodd" clip-rule="evenodd" d="M200.346 123.641V127.741H202.806V123.641H206.086V121.181H202.806V117.901L200.346 117.901V121.181H196.246V123.641H200.346Z" fill="#435BFD"/>
<circle cx="359.701" cy="155.621" r="3.8267" fill="#445BFD"/>
<path d="M315.263 168.371H396.696V111.212V73.6274L375.555 54.0522H360.482H345.409H330.336H315.263V168.371Z" fill="white" stroke="#445BFD" stroke-width="2"/>
<path d="M314.395 66.1282L297.044 67.7383L314.756 142.609" stroke="#445BFD" stroke-width="2" stroke-linecap="round"/>
<path d="M397.439 89.0445L409.448 90.5673L397.078 165.525" stroke="#445BFD" stroke-width="2" stroke-linecap="round"/>
<path d="M315.964 161.126H395.665V167.566H315.963L315.964 161.126Z" fill="#C1DDFF"/>
<path d="M374.33 54.8572L374.33 77.399L396.872 77.399" stroke="#445BFD" stroke-width="2"/>
<path d="M337.636 66.3255L338.393 84.7654C338.556 88.7395 335.367 92.0449 331.39 92.025V92.025C327.539 92.0057 324.432 88.868 324.451 85.0166L324.625 50.4339C324.646 46.2075 328.089 42.7985 332.315 42.8196V42.8196C336.118 42.8387 339.329 45.6465 339.856 49.4122L340.266 52.3459" stroke="#445BFD" stroke-width="2" stroke-linecap="round"/>
<path fill-rule="evenodd" clip-rule="evenodd" d="M405.075 67.7703C405.075 63.785 408.306 60.5542 412.291 60.5542C416.277 60.5542 419.507 63.785 419.507 67.7703C419.507 71.7556 416.277 74.9864 412.291 74.9864C408.306 74.9864 405.075 71.7556 405.075 67.7703ZM412.291 63.1783C409.755 63.1783 407.699 65.2342 407.699 67.7703C407.699 70.3064 409.755 72.3623 412.291 72.3623C414.827 72.3623 416.883 70.3064 416.883 67.7703C416.883 65.2342 414.827 63.1783 412.291 63.1783Z" fill="#9BC8FF"/>
<path fill-rule="evenodd" clip-rule="evenodd" d="M300.114 133.864C301.201 133.864 302.082 132.983 302.082 131.896C302.082 130.809 301.201 129.928 300.114 129.928C299.027 129.928 298.146 130.809 298.146 131.896C298.146 132.983 299.027 133.864 300.114 133.864Z" fill="#435BFD"/>
<path fill-rule="evenodd" clip-rule="evenodd" d="M312.688 41.3669C313.593 41.3669 314.328 40.6326 314.328 39.7268C314.328 38.8211 313.593 38.0868 312.688 38.0868C311.782 38.0868 311.048 38.8211 311.048 39.7268C311.048 40.6326 311.782 41.3669 312.688 41.3669Z" fill="#435BFD"/>
<path fill-rule="evenodd" clip-rule="evenodd" d="M422.787 48.746C423.874 48.746 424.755 47.8649 424.755 46.778C424.755 45.6911 423.874 44.81 422.787 44.81C421.7 44.81 420.819 45.6911 420.819 46.778C420.819 47.8649 421.7 48.746 422.787 48.746Z" fill="#435BFD"/>
<path fill-rule="evenodd" clip-rule="evenodd" d="M299.021 154.255H289.181V151.795H299.021V154.255Z" fill="#9BC8FF"/>
<path fill-rule="evenodd" clip-rule="evenodd" d="M293.281 158.355L293.281 148.515L295.741 148.515L295.741 158.355L293.281 158.355Z" fill="#9BC8FF"/>
<path fill-rule="evenodd" clip-rule="evenodd" d="M424.701 134.737V138.838L427.161 138.838V134.737H430.441V132.277H427.161V128.997L424.701 128.997V132.277H420.601V134.737H424.701Z" fill="#435BFD"/>
<path d="M328.541 131.649H366.804V133.677H328.541V131.649ZM374.446 131.649H389.756V133.677H374.446V131.649ZM369.611 98.2207H371.639V128.814H369.611V98.2207ZM369.611 136.484H371.639V151.795H369.611V136.484Z" fill="#445BFD"/>
<path d="M375.863 126.397H365.526C365.357 126.393 365.189 126.424 365.032 126.487C364.875 126.549 364.733 126.643 364.614 126.763C364.494 126.882 364.4 127.025 364.337 127.182C364.274 127.338 364.244 127.506 364.248 127.675V137.873C364.244 138.042 364.274 138.21 364.337 138.367C364.4 138.524 364.494 138.666 364.614 138.785C364.733 138.905 364.875 138.999 365.032 139.062C365.189 139.125 365.357 139.155 365.526 139.151H375.863C376.032 139.155 376.2 139.125 376.356 139.062C376.513 138.999 376.656 138.905 376.775 138.785C376.894 138.666 376.988 138.524 377.051 138.367C377.114 138.21 377.145 138.042 377.141 137.873V127.564C377.12 127.242 376.975 126.941 376.736 126.724C376.498 126.506 376.185 126.389 375.863 126.397ZM374.584 136.595H366.804V128.842H374.446L374.584 136.595Z" fill="#445BFD"/>
<path d="M337.126 119.684C336.034 119.684 335.044 119.45 334.156 118.98C333.279 118.501 332.585 117.843 332.075 117.006C331.575 116.159 331.325 115.205 331.325 114.143C331.325 113.082 331.575 112.133 332.075 111.296C332.585 110.449 333.279 109.791 334.156 109.322C335.044 108.842 336.039 108.602 337.141 108.602C338.07 108.602 338.906 108.766 339.651 109.092C340.407 109.419 341.039 109.888 341.549 110.5L339.958 111.97C339.233 111.133 338.335 110.715 337.264 110.715C336.6 110.715 336.008 110.863 335.488 111.159C334.968 111.444 334.559 111.847 334.263 112.368C333.978 112.888 333.835 113.48 333.835 114.143C333.835 114.807 333.978 115.399 334.263 115.919C334.559 116.439 334.968 116.848 335.488 117.143C336.008 117.429 336.6 117.572 337.264 117.572C338.335 117.572 339.233 117.149 339.958 116.302L341.549 117.771C341.039 118.394 340.407 118.868 339.651 119.195C338.896 119.521 338.054 119.684 337.126 119.684ZM350.071 117.205H345.096L344.147 119.501H341.606L346.382 108.786H348.831L353.622 119.501H351.02L350.071 117.205ZM349.291 115.322L347.591 111.22L345.892 115.322H349.291ZM354.734 108.786H359.602C360.765 108.786 361.79 109.01 362.678 109.459C363.576 109.898 364.27 110.521 364.76 111.327C365.26 112.133 365.51 113.072 365.51 114.143C365.51 115.215 365.26 116.154 364.76 116.96C364.27 117.766 363.576 118.394 362.678 118.843C361.79 119.281 360.765 119.501 359.602 119.501H354.734V108.786ZM359.479 117.465C360.551 117.465 361.403 117.169 362.035 116.577C362.678 115.975 363 115.164 363 114.143C363 113.123 362.678 112.317 362.035 111.725C361.403 111.123 360.551 110.822 359.479 110.822H357.214V117.465H359.479Z" fill="#445BFD"/>
</svg>
