<svg width="449" height="187" viewBox="0 0 449 187" fill="none" xmlns="http://www.w3.org/2000/svg">
<rect width="449" height="187" fill="white"/>
<rect x="164.4" y="129.533" width="30.1759" height="40.2346" fill="#99A6FF"/>
<path fill-rule="evenodd" clip-rule="evenodd" d="M194.576 137.306C187.758 137.306 182.231 142.833 182.231 149.651C182.231 156.468 187.758 161.995 194.576 161.995C201.394 161.995 206.921 156.468 206.921 149.651C206.921 142.833 201.394 137.306 194.576 137.306ZM180.098 149.651C180.098 141.654 186.58 135.172 194.576 135.172C202.572 135.172 209.054 141.654 209.054 149.651C209.054 157.647 202.572 164.129 194.576 164.129C186.58 164.129 180.098 157.647 180.098 149.651Z" fill="#99A6FF"/>
<path d="M29.2673 154.483H188.529C188.529 162.816 181.774 169.571 173.441 169.571H44.3553C36.0225 169.571 29.2673 162.816 29.2673 154.483Z" fill="#F6FBFF"/>
<path d="M30.9436 162.865H185.176C184.191 166.806 180.65 169.571 176.588 169.571H43.0425C38.1231 169.571 33.5508 167.036 30.9436 162.865Z" fill="#C1DDFF"/>
<path d="M44.3552 52.2198H175.118V154.483H44.3552V52.2198Z" fill="#DDECFF"/>
<path d="M43.5171 146.1V51.3816H64.4726M152.486 51.3816H175.956V151.968M37.6495 168.732C34.8555 167.615 29.2673 163.033 29.2673 153.644C36.6437 153.644 66.4284 153.644 80.3988 153.644M92.1339 153.644H189.367C188.529 158.674 185.009 168.732 177.632 168.732" stroke="#445BFD" stroke-width="2.13333" stroke-linecap="round"/>
<line x1="14.0029" y1="169.971" x2="430.003" y2="171.127" stroke="#445BFD" stroke-width="2.10961"/>
<rect x="51.061" y="62.2784" width="119.027" height="83.8221" fill="white"/>
<rect x="64.4724" y="129.533" width="88.8514" height="11.7351" rx="5.86754" fill="#F6FBFF"/>
<rect x="64.4724" y="129.533" width="48.6168" height="11.7351" rx="5.86754" fill="#435BFD"/>
<rect x="213.676" y="84.0656" width="9.42503" height="9.42503" fill="#D1D7FF"/>
<rect x="213.676" y="105.272" width="9.42503" height="9.42503" fill="#D1D7FF"/>
<rect x="239.067" y="84.1988" width="9.42503" height="9.42503" fill="#8897FF"/>
<rect x="239.067" y="105.405" width="9.42503" height="9.42503" fill="#8897FF"/>
<rect x="263.973" y="84.1988" width="9.42503" height="9.42503" fill="#445BFD"/>
<rect x="263.973" y="105.405" width="9.42503" height="9.42503" fill="#445BFD"/>
<path fill-rule="evenodd" clip-rule="evenodd" d="M19.3333 64.6803C19.3333 60.7922 22.4852 57.6403 26.3733 57.6403C30.2613 57.6403 33.4132 60.7922 33.4132 64.6803C33.4132 68.5684 30.2613 71.7203 26.3733 71.7203C22.4852 71.7203 19.3333 68.5684 19.3333 64.6803ZM26.3733 60.2003C23.899 60.2003 21.8933 62.2061 21.8933 64.6803C21.8933 67.1545 23.899 69.1603 26.3733 69.1603C28.8475 69.1603 30.8533 67.1545 30.8533 64.6803C30.8533 62.2061 28.8475 60.2003 26.3733 60.2003Z" fill="#C1DDFF"/>
<path fill-rule="evenodd" clip-rule="evenodd" d="M191.493 65.9601C194.675 65.9601 197.253 63.3813 197.253 60.2001C197.253 57.0189 194.675 54.4401 191.493 54.4401C188.312 54.4401 185.733 57.0189 185.733 60.2001C185.733 63.3813 188.312 65.9601 191.493 65.9601Z" stroke="#435BFD" stroke-width="2.56"/>
<path fill-rule="evenodd" clip-rule="evenodd" d="M41.7332 44.84C42.7936 44.84 43.6532 43.9804 43.6532 42.92C43.6532 41.8596 42.7936 41 41.7332 41C40.6728 41 39.8132 41.8596 39.8132 42.92C39.8132 43.9804 40.6728 44.84 41.7332 44.84Z" fill="#435BFD"/>
<path fill-rule="evenodd" clip-rule="evenodd" d="M201.733 41.64C202.794 41.64 203.653 40.7804 203.653 39.72C203.653 38.6596 202.794 37.8 201.733 37.8C200.673 37.8 199.813 38.6596 199.813 39.72C199.813 40.7804 200.673 41.64 201.733 41.64Z" fill="#C1DDFF"/>
<path fill-rule="evenodd" clip-rule="evenodd" d="M31.7069 144.254C32.7673 144.254 33.6269 143.394 33.6269 142.334C33.6269 141.273 32.7673 140.414 31.7069 140.414C30.6465 140.414 29.7869 141.273 29.7869 142.334C29.7869 143.394 30.6465 144.254 31.7069 144.254Z" fill="#435BFD"/>
<path fill-rule="evenodd" clip-rule="evenodd" d="M33.4132 35.9333H23.8132V33.5333H33.4132V35.9333Z" fill="#435BFD"/>
<path fill-rule="evenodd" clip-rule="evenodd" d="M27.8134 39.9333L27.8134 30.3333L30.2134 30.3333L30.2134 39.9333L27.8134 39.9333Z" fill="#435BFD"/>
<path fill-rule="evenodd" clip-rule="evenodd" d="M203.6 125.533L203.6 129.533H206V125.533H209.2V123.133H206V119.933L203.6 119.933L203.6 123.133H199.6V125.533H203.6Z" fill="#435BFD"/>
<path d="M69.4668 120.53H148.912V64.7648V28.0975L128.287 9H113.582H98.877H84.1719H69.4668V120.53Z" fill="white"/>
<path fill-rule="evenodd" clip-rule="evenodd" d="M68.4001 20.8534H128.705L149.979 43.0837V122.067H68.4001L68.4001 20.8534ZM70.5335 22.9868V119.933H147.846V44.0157L127.869 22.9868H70.5335Z" fill="#435BFD"/>
<path d="M70.1503 113.461H147.906V119.744H70.1499L70.1503 113.461Z" fill="#9BC8FF"/>
<path fill-rule="evenodd" clip-rule="evenodd" d="M78.397 102.584C78.397 101.995 78.8745 101.517 79.4636 101.517H102.464C103.053 101.517 103.53 101.995 103.53 102.584C103.53 103.173 103.053 103.65 102.464 103.65H79.4636C78.8745 103.65 78.397 103.173 78.397 102.584Z" fill="#9BC8FF"/>
<path fill-rule="evenodd" clip-rule="evenodd" d="M78.9011 91.0836C78.9011 90.4945 79.3787 90.017 79.9678 90.017H101.96C102.549 90.017 103.026 90.4945 103.026 91.0836C103.026 91.6727 102.549 92.1503 101.96 92.1503H79.9678C79.3787 92.1503 78.9011 91.6727 78.9011 91.0836Z" fill="#9BC8FF"/>
<path fill-rule="evenodd" clip-rule="evenodd" d="M77.3303 77.217C77.3303 76.6279 77.8079 76.1503 78.397 76.1503H138.089C138.678 76.1503 139.156 76.6279 139.156 77.217C139.156 77.8061 138.678 78.2837 138.089 78.2837H78.397C77.8079 78.2837 77.3303 77.8061 77.3303 77.217Z" fill="#9BC8FF"/>
<path fill-rule="evenodd" clip-rule="evenodd" d="M128.16 43.5105L128.16 22.5854L126.026 22.5854L126.026 45.6438L149.085 45.6438L149.085 43.5104L128.16 43.5105Z" fill="#435BFD"/>
<path d="M111.221 79.8242H141.067V104.958H111.221V79.8242Z" fill="white"/>
<path fill-rule="evenodd" clip-rule="evenodd" d="M110.154 82.5503H142.133V109.817H110.154V82.5503ZM112.287 84.6837V107.684H140V84.6837H112.287Z" fill="#435BFD"/>
<path d="M102.549 26.017C107.584 26.4036 112.311 28.6716 115.842 32.396C119.374 36.1203 121.468 41.0456 121.733 46.2491C115.338 46.3269 108.944 46.2491 102.533 46.2491C102.549 39.4791 102.549 32.7714 102.549 26.017Z" fill="#9BC8FF"/>
<path d="M98.8002 69.7503C109.699 69.7503 118.534 60.6766 118.534 49.4836H98.8002V29.217C87.9018 29.217 79.0669 38.2907 79.0669 49.4836C79.0669 60.6766 87.9018 69.7503 98.8002 69.7503Z" fill="#9BC8FF"/>
<path d="M126.953 88.4894C128.345 88.4894 129.555 88.724 130.581 89.1932C131.608 89.6477 132.399 90.3074 132.956 91.1724C133.514 92.0228 133.792 93.0271 133.792 94.1853C133.792 95.3435 133.514 96.3478 132.956 97.1982C132.399 98.0485 131.608 98.7083 130.581 99.1774C129.555 99.6319 128.345 99.8592 126.953 99.8592H124.27V103.884H119.915V88.4894H126.953ZM126.689 96.4285C127.583 96.4285 128.257 96.2379 128.712 95.8567C129.166 95.4608 129.394 94.9037 129.394 94.1853C129.394 93.4669 129.166 92.9098 128.712 92.5139C128.257 92.1181 127.583 91.9202 126.689 91.9202H124.27V96.4285H126.689Z" fill="#435BFD"/>
<path d="M315.713 169.172H395.158V113.407V76.74L374.533 57.6425H359.828H345.123H330.418H315.713V169.172Z" fill="white" stroke="#445BFD" stroke-width="2.13333"/>
<path d="M314.866 69.4239L297.939 70.9947L315.218 144.039" stroke="#445BFD" stroke-width="2.13333" stroke-linecap="round"/>
<path d="M395.883 91.7809L407.6 93.2666L395.531 166.396" stroke="#445BFD" stroke-width="2.13333" stroke-linecap="round"/>
<path d="M316.396 162.103H394.152V168.387H316.396L316.396 162.103Z" fill="#C1DDFF"/>
<line x1="326.533" y1="147.667" x2="348.933" y2="147.667" stroke="#9BC8FF" stroke-width="2.13333" stroke-linecap="round"/>
<path d="M326.533 135.933H348.933" stroke="#9BC8FF" stroke-width="2.13333" stroke-linecap="round"/>
<path d="M325.467 113.533H384.133" stroke="#445BFD" stroke-width="2.13333" stroke-linecap="round"/>
<path d="M325.467 123.133H384.133" stroke="#445BFD" stroke-width="2.13333" stroke-linecap="round"/>
<path d="M365.566 137.347C366.512 137.347 367.333 137.506 368.03 137.825C368.727 138.133 369.264 138.581 369.643 139.169C370.021 139.746 370.21 140.428 370.21 141.214C370.21 142.001 370.021 142.683 369.643 143.26C369.264 143.838 368.727 144.286 368.03 144.604C367.333 144.913 366.512 145.067 365.566 145.067H363.744V147.8H360.787V137.347H365.566ZM365.387 142.738C365.994 142.738 366.452 142.608 366.76 142.349C367.069 142.081 367.223 141.702 367.223 141.214C367.223 140.727 367.069 140.348 366.76 140.079C366.452 139.811 365.994 139.676 365.387 139.676H363.744V142.738H365.387ZM371.652 137.347H376.595C377.74 137.347 378.755 137.561 379.641 137.989C380.527 138.417 381.214 139.024 381.702 139.811C382.19 140.597 382.434 141.518 382.434 142.573C382.434 143.629 382.19 144.549 381.702 145.336C381.214 146.122 380.527 146.73 379.641 147.158C378.755 147.586 377.74 147.8 376.595 147.8H371.652V137.347ZM376.475 145.441C377.371 145.441 378.088 145.187 378.626 144.679C379.173 144.171 379.447 143.469 379.447 142.573C379.447 141.677 379.173 140.975 378.626 140.468C378.088 139.96 377.371 139.706 376.475 139.706H374.608V145.441H376.475ZM386.946 139.631V141.931H391.56V144.216H386.946V147.8H383.989V137.347H392.188V139.631H386.946Z" fill="#445BFD"/>
<rect x="355.333" y="130.6" width="39.4667" height="24.5333" stroke="#445BFD" stroke-width="2.13333"/>
<path fill-rule="evenodd" clip-rule="evenodd" d="M403.333 71.0259C403.333 67.1378 406.485 63.9859 410.373 63.9859C414.261 63.9859 417.413 67.1378 417.413 71.0259C417.413 74.914 414.261 78.0659 410.373 78.0659C406.485 78.0659 403.333 74.914 403.333 71.0259ZM410.373 66.5459C407.899 66.5459 405.893 68.5516 405.893 71.0259C405.893 73.5001 407.899 75.5059 410.373 75.5059C412.847 75.5059 414.853 73.5001 414.853 71.0259C414.853 68.5516 412.847 66.5459 410.373 66.5459Z" fill="#9BC8FF"/>
<path fill-rule="evenodd" clip-rule="evenodd" d="M300.933 135.507C301.994 135.507 302.853 134.647 302.853 133.587C302.853 132.526 301.994 131.667 300.933 131.667C299.873 131.667 299.013 132.526 299.013 133.587C299.013 134.647 299.873 135.507 300.933 135.507Z" fill="#435BFD"/>
<path fill-rule="evenodd" clip-rule="evenodd" d="M313.2 45.2666C314.084 45.2666 314.8 44.5503 314.8 43.6667C314.8 42.783 314.084 42.0667 313.2 42.0667C312.316 42.0667 311.6 42.783 311.6 43.6667C311.6 44.5503 312.316 45.2666 313.2 45.2666Z" fill="#435BFD"/>
<path fill-rule="evenodd" clip-rule="evenodd" d="M420.613 52.4658C421.674 52.4658 422.533 51.6061 422.533 50.5458C422.533 49.4854 421.674 48.6258 420.613 48.6258C419.553 48.6258 418.693 49.4854 418.693 50.5458C418.693 51.6061 419.553 52.4658 420.613 52.4658Z" fill="#435BFD"/>
<path fill-rule="evenodd" clip-rule="evenodd" d="M299.867 155.4H290.267V153H299.867V155.4Z" fill="#9BC8FF"/>
<path fill-rule="evenodd" clip-rule="evenodd" d="M294.267 159.4L294.267 149.8L296.667 149.8L296.667 159.4L294.267 159.4Z" fill="#9BC8FF"/>
<path fill-rule="evenodd" clip-rule="evenodd" d="M422.48 136.359L422.48 140.359H424.88V136.359H428.08V133.959H424.88V130.759L422.48 130.759L422.48 133.959H418.48V136.359H422.48Z" fill="#435BFD"/>
<rect x="325.467" y="69.8" width="38.4" height="33.0667" fill="white" stroke="#445BFD" stroke-width="2.13333"/>
<path d="M373.962 57.2833L373.962 77.8L395.333 77.8" stroke="#445BFD" stroke-width="2.13333"/>
<path d="M325.467 95.6712L334.948 86.971C335.358 86.5954 335.987 86.5969 336.394 86.9743L351.251 100.733M344.268 92.1277L350.537 86.4463C350.943 86.0791 351.56 86.0778 351.967 86.4433L362.8 96.1774" stroke="#445BFD" stroke-width="2.13333"/>
<circle cx="354.267" cy="77.2667" r="4.26667" fill="#C1DDFF"/>
</svg>
