<svg width="455" height="187" viewBox="0 0 455 187" fill="none" xmlns="http://www.w3.org/2000/svg">
<rect width="449" height="187" transform="translate(6)" fill="white"/>
<line x1="16.6367" y1="169.878" x2="96.791" y2="169.878" stroke="#445BFD" stroke-width="2.47115"/>
<line x1="247.116" y1="169.859" x2="257" y2="169.859" stroke="#445BFD" stroke-width="2.47115"/>
<line x1="112.438" y1="169.859" x2="240.938" y2="169.859" stroke="#445BFD" stroke-width="2.47115"/>
<path d="M194.745 71.7761H193.427H74.3758C69.9439 71.7761 66.3512 75.3688 66.3512 79.8007V160.047H191.99H202.77V79.8007C202.77 75.3688 199.177 71.7761 194.745 71.7761Z" fill="white" stroke="#445BFD" stroke-width="2"/>
<path d="M194.745 82.0933H187.034H75.5223V160.047H185.848H194.745V82.0933Z" fill="#E7F2FF" stroke="#445BFD" stroke-width="2"/>
<path d="M186.72 57.4464H208.501C209.647 49.6128 208.73 33.9457 198.183 33.9457" stroke="#445BFD" stroke-width="2"/>
<path d="M185.574 45.3576C185.574 37.1411 193.789 34.3261 198.184 33.9457H96.1566C87.9027 33.9457 85.075 39.2713 84.6929 41.934V160.047H183.854C183.854 153.605 183.913 145.9 184.009 137.569C184.073 132.009 184.154 126.171 184.244 120.242C184.332 114.494 184.429 108.661 184.53 102.915C184.58 100.077 184.631 97.2608 184.682 94.4862C185.122 70.4463 185.574 49.5687 185.574 45.3576Z" fill="white" stroke="#445BFD" stroke-width="2"/>
<path d="M154.622 160.047H45.7163V164.632C45.7163 167.798 48.2826 170.364 51.4482 170.364H163.22L154.622 160.047Z" fill="white" stroke="#445BFD" stroke-width="2"/>
<path d="M94.875 97.296H173.548" stroke="#9BC8FF" stroke-width="2" stroke-linecap="round"/>
<path d="M135.148 123.52H159.499" stroke="#9BC8FF" stroke-width="2" stroke-linecap="round"/>
<path d="M94.875 58.8963H126.719" stroke="#445BFD" stroke-width="2" stroke-linecap="round"/>
<path d="M94.875 109.472H173.548" stroke="#9BC8FF" stroke-width="2" stroke-linecap="round"/>
<path d="M135.148 135.696H150.134" stroke="#9BC8FF" stroke-width="2" stroke-linecap="round"/>
<path d="M94.875 74.8181H126.719" stroke="#445BFD" stroke-width="2" stroke-linecap="round"/>
<path d="M95.5692 128.915C96.5856 128.915 97.4683 129.086 98.2173 129.429C98.9662 129.76 99.544 130.242 99.9506 130.873C100.357 131.494 100.56 132.227 100.56 133.072C100.56 133.917 100.357 134.65 99.9506 135.271C99.544 135.891 98.9662 136.373 98.2173 136.715C97.4683 137.047 96.5856 137.213 95.5692 137.213H93.6112V140.15H90.4334V128.915H95.5692ZM95.3766 134.709C96.0292 134.709 96.5214 134.57 96.8531 134.292C97.1848 134.003 97.3506 133.596 97.3506 133.072C97.3506 132.548 97.1848 132.141 96.8531 131.852C96.5214 131.563 96.0292 131.419 95.3766 131.419H93.6112V134.709H95.3766ZM102.11 128.915H107.422C108.653 128.915 109.744 129.145 110.696 129.605C111.648 130.065 112.387 130.718 112.911 131.563C113.435 132.409 113.697 133.398 113.697 134.532C113.697 135.667 113.435 136.656 112.911 137.502C112.387 138.347 111.648 138.999 110.696 139.46C109.744 139.92 108.653 140.15 107.422 140.15H102.11V128.915ZM107.294 137.614C108.257 137.614 109.027 137.341 109.605 136.795C110.193 136.25 110.488 135.495 110.488 134.532C110.488 133.569 110.193 132.815 109.605 132.269C109.027 131.724 108.257 131.451 107.294 131.451H105.288V137.614H107.294ZM118.547 131.371V133.842H123.506V136.298H118.547V140.15H115.369V128.915H124.18V131.371H118.547Z" fill="#445BFD"/>
<rect x="84.5728" y="120.71" width="42.4158" height="26.3666" stroke="#445BFD" stroke-width="2"/>
<rect x="132.339" y="46.7208" width="41.2694" height="35.5376" fill="white" stroke="#445BFD" stroke-width="2"/>
<path d="M132.339 74.5251L142.529 65.1748C142.969 64.7712 143.645 64.7728 144.083 65.1784L160.05 79.9655M152.545 70.7168L159.283 64.6109C159.719 64.2163 160.382 64.2149 160.819 64.6077L172.462 75.0692" stroke="#445BFD" stroke-width="2"/>
<circle cx="163.291" cy="54.7453" r="4.58549" fill="#C1DDFF"/>
<path d="M92.7173 161.193H113.352C113.352 163.092 111.812 164.632 109.913 164.632H96.1564C94.257 164.632 92.7173 163.092 92.7173 161.193Z" fill="#445BFD"/>
<path d="M148.89 160.047H202.77V161.193C202.77 166.258 198.664 170.364 193.599 170.364H158.061C152.996 170.364 148.89 166.258 148.89 161.193V160.047Z" fill="white" stroke="#445BFD" stroke-width="2"/>
<path fill-rule="evenodd" clip-rule="evenodd" d="M219.45 34.3333C223.96 34.3333 227.617 30.677 227.617 26.1667C227.617 21.6563 223.96 18 219.45 18C214.94 18 211.283 21.6563 211.283 26.1667C211.283 30.677 214.94 34.3333 219.45 34.3333Z" stroke="#435BFD" stroke-width="2.47115"/>
<path fill-rule="evenodd" clip-rule="evenodd" d="M194.522 23.0432C195.914 23.0432 197.043 21.9143 197.043 20.5216C197.043 19.129 195.914 18 194.522 18C193.129 18 192 19.129 192 20.5216C192 21.9143 193.129 23.0432 194.522 23.0432Z" fill="#C1DDFF"/>
<path fill-rule="evenodd" clip-rule="evenodd" d="M218.19 151.852L218.19 157.523H221.593V151.852H226.13V148.449H221.593V143.912H218.19L218.19 148.449H212.519V151.852H218.19Z" fill="#435BFD"/>
<path fill-rule="evenodd" clip-rule="evenodd" d="M32.125 69.0523C32.125 63.5397 36.5939 59.0709 42.1065 59.0709C47.6191 59.0709 52.0879 63.5397 52.0879 69.0523C52.0879 74.5649 47.6191 79.0338 42.1065 79.0338C36.5939 79.0338 32.125 74.5649 32.125 69.0523ZM42.1065 62.7005C38.5984 62.7005 35.7546 65.5443 35.7546 69.0523C35.7546 72.5604 38.5984 75.4042 42.1065 75.4042C45.6145 75.4042 48.4583 72.5604 48.4583 69.0523C48.4583 65.5443 45.6145 62.7005 42.1065 62.7005Z" fill="#C1DDFF"/>
<path fill-rule="evenodd" clip-rule="evenodd" d="M225.249 52.6693C226.642 52.6693 227.771 51.5404 227.771 50.1477C227.771 48.7551 226.642 47.6261 225.249 47.6261C223.857 47.6261 222.728 48.7551 222.728 50.1477C222.728 51.5404 223.857 52.6693 225.249 52.6693Z" fill="#435BFD"/>
<path fill-rule="evenodd" clip-rule="evenodd" d="M58.3765 142.077C59.88 142.077 61.0987 140.859 61.0987 139.355C61.0987 137.852 59.88 136.633 58.3765 136.633C56.8731 136.633 55.6543 137.852 55.6543 139.355C55.6543 140.859 56.8731 142.077 58.3765 142.077Z" fill="#435BFD"/>
<path fill-rule="evenodd" clip-rule="evenodd" d="M52.0877 28.2941L38.4766 28.2941V24.8914L52.0877 24.8914V28.2941Z" fill="#435BFD"/>
<path fill-rule="evenodd" clip-rule="evenodd" d="M44.1475 33.9654L44.1475 20.3543L47.5503 20.3543L47.5503 33.9654L44.1475 33.9654Z" fill="#435BFD"/>
<path fill-rule="evenodd" clip-rule="evenodd" d="M310.167 28.746C310.167 28.746 279.712 83.9623 252.67 95.3112C245.935 98.1376 238.712 100.292 231 101.773C234.949 102.745 238.757 103.799 242.424 104.935C246.201 106.105 249.829 107.363 253.307 108.707C283.655 120.44 310.167 163.823 310.167 163.823V28.746Z" fill="url(#paint0_linear)"/>
<path d="M345 22H368.995L377 32.849V63.52H345V22Z" fill="white" stroke="#445BFD" stroke-width="2"/>
<path d="M368.846 22.3188V32.8692H376.692" stroke="#445BFD" stroke-width="2"/>
<path d="M349.231 46.901H371.03" stroke="#435BFD" stroke-width="2"/>
<path d="M349.231 54.8138H371.03" stroke="#435BFD" stroke-width="2"/>
<path d="M349.231 40.307H364.146" stroke="#435BFD" stroke-width="2"/>
<path fill-rule="evenodd" clip-rule="evenodd" d="M349.231 30.2316H351.152C351.629 30.2316 352 30.3344 352.265 30.54C352.53 30.7456 352.663 31.0262 352.663 31.3818C352.663 31.7374 352.529 32.019 352.262 32.2264C351.995 32.4339 351.625 32.5376 351.152 32.5376H350.033V34.1879H349.231V30.2316ZM351.059 31.9819C351.337 31.9819 351.547 31.931 351.69 31.8291C351.833 31.7272 351.905 31.58 351.905 31.3873C351.905 31.191 351.834 31.0419 351.693 30.94C351.552 30.8382 351.341 30.7872 351.059 30.7872H350.033V31.9819H351.059ZM353.372 30.2316H355.001C355.726 30.2316 356.289 30.4038 356.689 30.7483C357.089 31.0929 357.289 31.5781 357.289 32.2042C357.289 32.834 357.089 33.322 356.689 33.6684C356.289 34.0147 355.726 34.1879 355.001 34.1879H353.372V30.2316ZM354.951 33.6045C355.97 33.6045 356.48 33.1377 356.48 32.2042C356.48 31.2781 355.97 30.815 354.951 30.815H354.174V33.6045H354.951ZM358.109 34.1879V30.2316H361V30.8039H358.905V31.8875H360.876V32.4654H358.905V34.1879H358.109Z" fill="#445BFD"/>
<path d="M345 73.68H368.995L377 84.529V115.2H345V73.68Z" fill="white" stroke="#445BFD" stroke-width="2"/>
<path d="M368.846 73.9988V84.5491H376.692" stroke="#445BFD" stroke-width="2"/>
<path d="M349.231 98.581H371.03" stroke="#435BFD" stroke-width="2"/>
<path d="M349.231 106.494H371.03" stroke="#435BFD" stroke-width="2"/>
<path d="M349.231 91.9871H364.146" stroke="#435BFD" stroke-width="2"/>
<path fill-rule="evenodd" clip-rule="evenodd" d="M349.231 81.9115H351.152C351.629 81.9115 352 82.0143 352.265 82.2199C352.53 82.4255 352.663 82.7061 352.663 83.0618C352.663 83.4174 352.529 83.6989 352.262 83.9064C351.995 84.1138 351.625 84.2176 351.152 84.2176H350.033V85.8679H349.231V81.9115ZM351.059 83.6618C351.337 83.6618 351.547 83.6109 351.69 83.509C351.833 83.4072 351.905 83.2599 351.905 83.0673C351.905 82.8709 351.834 82.7218 351.693 82.62C351.552 82.5181 351.341 82.4672 351.059 82.4672H350.033V83.6618H351.059ZM353.372 81.9115H355.001C355.726 81.9115 356.289 82.0838 356.689 82.4283C357.089 82.7728 357.289 83.2581 357.289 83.8841C357.289 84.5139 357.089 85.0019 356.689 85.3483C356.289 85.6947 355.726 85.8679 355.001 85.8679H353.372V81.9115ZM354.951 85.2843C355.97 85.2843 356.48 84.8176 356.48 83.8841C356.48 82.9579 355.97 82.4949 354.951 82.4949H354.174V85.2843H354.951ZM358.109 85.8679V81.9115H361V82.4838H358.905V83.5674H360.876V84.1453H358.905V85.8679H358.109Z" fill="#445BFD"/>
<path d="M345 125.36H368.995L377 136.209V166.88H345V125.36Z" fill="white" stroke="#445BFD" stroke-width="2"/>
<path d="M368.846 125.679V136.229H376.692" stroke="#445BFD" stroke-width="2"/>
<path d="M349.231 150.261H371.03" stroke="#435BFD" stroke-width="2"/>
<path d="M349.231 158.174H371.03" stroke="#435BFD" stroke-width="2"/>
<path d="M349.231 143.667H364.146" stroke="#435BFD" stroke-width="2"/>
<path fill-rule="evenodd" clip-rule="evenodd" d="M349.231 133.591H351.152C351.629 133.591 352 133.694 352.265 133.9C352.53 134.105 352.663 134.386 352.663 134.742C352.663 135.097 352.529 135.379 352.262 135.586C351.995 135.794 351.625 135.897 351.152 135.897H350.033V137.548H349.231V133.591ZM351.059 135.342C351.337 135.342 351.547 135.291 351.69 135.189C351.833 135.087 351.905 134.94 351.905 134.747C351.905 134.551 351.834 134.402 351.693 134.3C351.552 134.198 351.341 134.147 351.059 134.147H350.033V135.342H351.059ZM353.372 133.591H355.001C355.726 133.591 356.289 133.764 356.689 134.108C357.089 134.453 357.289 134.938 357.289 135.564C357.289 136.194 357.089 136.682 356.689 137.028C356.289 137.375 355.726 137.548 355.001 137.548H353.372V133.591ZM354.951 136.964C355.97 136.964 356.48 136.498 356.48 135.564C356.48 134.638 355.97 134.175 354.951 134.175H354.174V136.964H354.951ZM358.109 137.548V133.591H361V134.164H358.905V135.247H360.876V135.825H358.905V137.548H358.109Z" fill="#445BFD"/>
<rect x="367" y="45" width="19" height="19" fill="white" stroke="#445BFD" stroke-width="2"/>
<rect x="367" y="97" width="19" height="19" fill="white" stroke="#445BFD" stroke-width="2"/>
<rect x="367" y="154" width="19" height="19" fill="white" stroke="#445BFD" stroke-width="2"/>
<path d="M378.706 49.9075V59H376.134V51.8949H374.446V49.9075H378.706Z" fill="#445BFD"/>
<path d="M380.581 108.961V111H373.502V109.389L376.905 106.207C377.234 105.895 377.455 105.631 377.567 105.415C377.68 105.189 377.736 104.964 377.736 104.739C377.736 104.445 377.637 104.215 377.438 104.051C377.238 103.886 376.948 103.804 376.567 103.804C376.23 103.804 375.918 103.882 375.632 104.038C375.355 104.185 375.125 104.401 374.944 104.687L373.034 103.622C373.389 103.033 373.887 102.57 374.528 102.232C375.169 101.895 375.926 101.726 376.801 101.726C377.494 101.726 378.104 101.838 378.633 102.063C379.169 102.289 379.585 102.613 379.88 103.038C380.183 103.453 380.334 103.938 380.334 104.492C380.334 104.986 380.226 105.454 380.009 105.895C379.802 106.328 379.395 106.822 378.788 107.376L377.074 108.961H380.581Z" fill="#445BFD"/>
<path d="M378.192 162.545C378.945 162.7 379.521 163.012 379.919 163.48C380.326 163.939 380.53 164.497 380.53 165.155C380.53 165.692 380.382 166.19 380.088 166.649C379.802 167.108 379.361 167.48 378.763 167.766C378.174 168.043 377.442 168.182 376.568 168.182C375.927 168.182 375.291 168.104 374.658 167.948C374.035 167.792 373.494 167.571 373.035 167.286L373.97 165.35C374.325 165.593 374.723 165.779 375.165 165.909C375.615 166.039 376.057 166.104 376.49 166.104C376.932 166.104 377.282 166.021 377.542 165.857C377.802 165.692 377.932 165.458 377.932 165.155C377.932 164.567 377.468 164.272 376.542 164.272H375.464V162.648L377.087 160.895H373.502V158.908H380.075V160.518L378.192 162.545Z" fill="#445BFD"/>
<defs>
<linearGradient id="paint0_linear" x1="231" y1="163.823" x2="310.167" y2="163.823" gradientUnits="userSpaceOnUse">
<stop stop-color="#445BFD"/>
<stop offset="1" stop-color="#445BFD" stop-opacity="0"/>
</linearGradient>
</defs>
</svg>
