<svg width="449" height="188" viewBox="0 0 449 188" fill="none" xmlns="http://www.w3.org/2000/svg">
<rect width="449" height="187" fill="white"/>
<line x1="82.3706" y1="185.887" x2="161.249" y2="185.887" stroke="#445BFD" stroke-width="2.4318"/>
<line x1="369.605" y1="185.887" x2="383" y2="185.887" stroke="#445BFD" stroke-width="2.4318"/>
<line x1="176.131" y1="185.887" x2="360.676" y2="185.887" stroke="#445BFD" stroke-width="2.4318"/>
<path d="M305.61 58.1127H303.9H149.343C143.589 58.1127 138.925 62.7769 138.925 68.5305V172.709H302.034H316.028V68.5305C316.028 62.7769 311.364 58.1127 305.61 58.1127Z" fill="white" stroke="#445BFD" stroke-width="2.4318"/>
<path d="M305.61 71.507H295.6H150.831V172.709H294.06H305.61V71.507Z" fill="#E7F2FF" stroke="#445BFD" stroke-width="2.4318"/>
<path d="M295.192 39.5094H323.469C324.958 29.3396 323.767 9 310.075 9" stroke="#445BFD" stroke-width="2.4318"/>
<path d="M293.704 23.8153C293.704 13.1483 304.37 9.49384 310.075 9H177.62C166.904 9 163.233 15.9138 162.737 19.3707V172.709H291.472C291.472 164.346 291.549 154.343 291.673 143.527C291.756 136.31 291.861 128.73 291.979 121.033C292.093 113.57 292.219 105.998 292.35 98.539C292.415 94.8545 292.48 91.1979 292.546 87.5959C293.118 56.3863 293.704 29.2823 293.704 23.8153Z" fill="white" stroke="#445BFD" stroke-width="2.4318"/>
<path d="M253.521 172.709H112.136V178.662C112.136 182.772 115.468 186.103 119.578 186.103H264.683L253.521 172.709Z" fill="white" stroke="#445BFD" stroke-width="2.4318"/>
<path d="M175.957 91.2434H278.092" stroke="#9BC8FF" stroke-width="2.4318" stroke-linecap="round"/>
<path d="M228 125H277" stroke="#9BC8FF" stroke-width="2.4318" stroke-linecap="round"/>
<path d="M175.957 41.3916H217.297" stroke="#445BFD" stroke-width="2.4318" stroke-linecap="round"/>
<path d="M176 107H277" stroke="#9BC8FF" stroke-width="2.4318" stroke-linecap="round"/>
<path d="M228 141H277" stroke="#9BC8FF" stroke-width="2.4318" stroke-linecap="round"/>
<path d="M175.957 62.0619H217.297" stroke="#445BFD" stroke-width="2.4318" stroke-linecap="round"/>
<path d="M176.858 131.521C178.178 131.521 179.324 131.743 180.296 132.188C181.268 132.618 182.019 133.243 182.546 134.063C183.074 134.868 183.338 135.82 183.338 136.917C183.338 138.015 183.074 138.966 182.546 139.772C182.019 140.577 181.268 141.203 180.296 141.647C179.324 142.078 178.178 142.293 176.858 142.293H174.316V146.106H170.191V131.521H176.858ZM176.608 139.043C177.456 139.043 178.094 138.862 178.525 138.501C178.956 138.126 179.171 137.598 179.171 136.917C179.171 136.237 178.956 135.709 178.525 135.334C178.094 134.959 177.456 134.771 176.608 134.771H174.316V139.043H176.608ZM185.35 131.521H192.246C193.844 131.521 195.26 131.82 196.497 132.417C197.733 133.014 198.691 133.861 199.372 134.959C200.053 136.056 200.393 137.341 200.393 138.813C200.393 140.286 200.053 141.571 199.372 142.668C198.691 143.765 197.733 144.613 196.497 145.21C195.26 145.807 193.844 146.106 192.246 146.106H185.35V131.521ZM192.08 142.814C193.33 142.814 194.33 142.46 195.08 141.751C195.844 141.043 196.226 140.063 196.226 138.813C196.226 137.563 195.844 136.584 195.08 135.876C194.33 135.167 193.33 134.813 192.08 134.813H189.475V142.814H192.08ZM206.689 134.709V137.917H213.127V141.105H206.689V146.106H202.563V131.521H214.002V134.709H206.689Z" fill="#445BFD"/>
<rect x="162.582" y="121.641" width="55.0657" height="34.23" stroke="#445BFD" stroke-width="2.4318"/>
<rect x="224.592" y="25.5848" width="53.5775" height="46.1361" fill="white" stroke="#445BFD" stroke-width="2.4318"/>
<path d="M224.592 61.6816L237.822 49.5427C238.393 49.0186 239.27 49.0207 239.839 49.5473L260.568 68.7445M250.824 56.7375L259.572 48.8105C260.138 48.2982 260.999 48.2964 261.566 48.8064L276.681 62.3878" stroke="#445BFD" stroke-width="2.4318"/>
<circle cx="264.775" cy="36.0027" r="5.95305" fill="#C1DDFF"/>
<path d="M173.155 174.197H199.944C199.944 176.663 197.945 178.662 195.479 178.662H177.62C175.154 178.662 173.155 176.663 173.155 174.197Z" fill="#445BFD"/>
<path d="M246.08 172.709H316.028V174.197C316.028 180.773 310.698 186.103 304.122 186.103H257.986C251.411 186.103 246.08 180.773 246.08 174.197V172.709Z" fill="white" stroke="#445BFD" stroke-width="2.4318"/>
<path fill-rule="evenodd" clip-rule="evenodd" d="M334.483 70.6143C338.921 70.6143 342.52 67.0161 342.52 62.5776C342.52 58.1391 338.921 54.541 334.483 54.541C330.044 54.541 326.446 58.1391 326.446 62.5776C326.446 67.0161 330.044 70.6143 334.483 70.6143Z" stroke="#435BFD" stroke-width="2.4318"/>
<path fill-rule="evenodd" clip-rule="evenodd" d="M348.77 36.6817C350.25 36.6817 351.449 35.4823 351.449 34.0028C351.449 32.5233 350.25 31.324 348.77 31.324C347.291 31.324 346.091 32.5233 346.091 34.0028C346.091 35.4823 347.291 36.6817 348.77 36.6817Z" fill="#C1DDFF"/>
<path fill-rule="evenodd" clip-rule="evenodd" d="M351.374 153.734V159.315L354.723 159.315V153.734H359.188V150.385H354.723V145.92L351.374 145.92V150.385H345.793V153.734H351.374Z" fill="#435BFD"/>
<path fill-rule="evenodd" clip-rule="evenodd" d="M96.9229 84.4506C96.9229 79.0258 101.321 74.6281 106.745 74.6281C112.17 74.6281 116.568 79.0258 116.568 84.4506C116.568 89.8754 112.17 94.2731 106.745 94.2731C101.321 94.2731 96.9229 89.8754 96.9229 84.4506ZM106.745 78.1999C103.293 78.1999 100.495 80.9984 100.495 84.4506C100.495 87.9028 103.293 90.7013 106.745 90.7013C110.198 90.7013 112.996 87.9028 112.996 84.4506C112.996 80.9984 110.198 78.1999 106.745 78.1999Z" fill="#C1DDFF"/>
<path fill-rule="evenodd" clip-rule="evenodd" d="M351.449 79.8413C352.928 79.8413 354.128 78.6419 354.128 77.1624C354.128 75.6829 352.928 74.4835 351.449 74.4835C349.969 74.4835 348.77 75.6829 348.77 77.1624C348.77 78.6419 349.969 79.8413 351.449 79.8413Z" fill="#435BFD"/>
<path fill-rule="evenodd" clip-rule="evenodd" d="M123.447 157.529C124.926 157.529 126.126 156.33 126.126 154.85C126.126 153.371 124.926 152.171 123.447 152.171C121.967 152.171 120.768 153.371 120.768 154.85C120.768 156.33 121.967 157.529 123.447 157.529Z" fill="#435BFD"/>
<path fill-rule="evenodd" clip-rule="evenodd" d="M116.568 44.3414H103.173V40.9928H116.568V44.3414Z" fill="#435BFD"/>
<path fill-rule="evenodd" clip-rule="evenodd" d="M108.754 49.9223L108.754 36.528L112.103 36.528L112.103 49.9223L108.754 49.9223Z" fill="#435BFD"/>
<rect x="173" y="82" width="107" height="31" rx="2" fill="#ABB5FF"/>
</svg>
