<svg width="449" height="187" viewBox="0 0 449 187" fill="none" xmlns="http://www.w3.org/2000/svg">
<rect width="449" height="187" fill="white"/>
<line x1="67.5071" y1="180.539" x2="151.859" y2="180.539" stroke="#445BFD" stroke-width="2"/>
<line x1="374.676" y1="180.539" x2="389" y2="180.539" stroke="#445BFD" stroke-width="2"/>
<line x1="167.775" y1="180.539" x2="365.127" y2="180.539" stroke="#445BFD" stroke-width="2"/>
<path d="M306.24 44.666H304.411H139.127C132.974 44.666 127.986 49.6539 127.986 55.8069V167.215H302.415H317.381V55.8069C317.381 49.6539 312.393 44.666 306.24 44.666Z" fill="white" stroke="#445BFD" stroke-width="2"/>
<path d="M306.24 58.9901H295.534H140.718V167.216H293.887H306.24V58.9901Z" fill="#E7F2FF" stroke="#445BFD" stroke-width="2"/>
<path d="M250.536 167.215H99.3384V173.582C99.3384 177.977 102.901 181.539 107.296 181.539H262.472L250.536 167.215Z" fill="white" stroke="#445BFD" stroke-width="2"/>
<path d="M164.592 168.807H193.239C193.239 171.444 191.102 173.582 188.465 173.582H169.366C166.729 173.582 164.592 171.444 164.592 168.807Z" fill="#445BFD"/>
<path d="M242.577 167.215H317.38V168.807C317.38 175.839 311.68 181.539 304.648 181.539H255.31C248.278 181.539 242.577 175.839 242.577 168.807V167.215Z" fill="white" stroke="#445BFD" stroke-width="2"/>
<path fill-rule="evenodd" clip-rule="evenodd" d="M302.367 29.8294C305.14 29.8294 307.389 27.5808 307.389 24.8071C307.389 22.0334 305.14 19.7849 302.367 19.7849C299.593 19.7849 297.344 22.0334 297.344 24.8071C297.344 27.5808 299.593 29.8294 302.367 29.8294Z" stroke="#435BFD" stroke-width="2"/>
<path fill-rule="evenodd" clip-rule="evenodd" d="M352.395 21.7478C353.977 21.7478 355.259 20.4652 355.259 18.883C355.259 17.3008 353.977 16.0182 352.395 16.0182C350.812 16.0182 349.53 17.3008 349.53 18.883C349.53 20.4652 350.812 21.7478 352.395 21.7478Z" fill="#C1DDFF"/>
<path fill-rule="evenodd" clip-rule="evenodd" d="M355.18 146.923L355.18 152.892H358.761V146.923H363.535V143.342H358.761V138.568L355.18 138.568L355.18 143.342H349.211V146.923H355.18Z" fill="#435BFD"/>
<path fill-rule="evenodd" clip-rule="evenodd" d="M92.9719 32.2528C92.9719 26.4514 97.6748 21.7485 103.476 21.7485C109.277 21.7485 113.98 26.4514 113.98 32.2528C113.98 38.0541 109.277 42.757 103.476 42.757C97.6748 42.757 92.9719 38.0541 92.9719 32.2528ZM103.476 25.5683C99.7844 25.5683 96.7916 28.561 96.7916 32.2528C96.7916 35.9445 99.7844 38.9373 103.476 38.9373C107.168 38.9373 110.161 35.9445 110.161 32.2528C110.161 28.561 107.168 25.5683 103.476 25.5683Z" fill="#C1DDFF"/>
<path fill-rule="evenodd" clip-rule="evenodd" d="M355.259 67.9028C356.841 67.9028 358.124 66.6202 358.124 65.038C358.124 63.4558 356.841 62.1732 355.259 62.1732C353.677 62.1732 352.394 63.4558 352.394 65.038C352.394 66.6202 353.677 67.9028 355.259 67.9028Z" fill="#435BFD"/>
<path fill-rule="evenodd" clip-rule="evenodd" d="M111.434 150.982C113.016 150.982 114.299 149.7 114.299 148.117C114.299 146.535 113.016 145.253 111.434 145.253C109.852 145.253 108.569 146.535 108.569 148.117C108.569 149.7 109.852 150.982 111.434 150.982Z" fill="#435BFD"/>
<path fill-rule="evenodd" clip-rule="evenodd" d="M84.3904 88.452H70.0664V84.871H84.3904V88.452Z" fill="#435BFD"/>
<path fill-rule="evenodd" clip-rule="evenodd" d="M76.0342 94.4204L76.0342 80.0964L79.6152 80.0964L79.6152 94.4204L76.0342 94.4204Z" fill="#435BFD"/>
<rect x="173.739" y="36.2167" width="90.5444" height="77.9688" fill="white" stroke="#445BFD" stroke-width="2"/>
<path d="M173.739 97.2191L195.869 76.9137C196.963 75.9101 198.644 75.914 199.733 76.9226L234.536 109.155M218.071 88.8638L232.631 75.6706C233.713 74.6895 235.363 74.686 236.45 75.6626L261.769 98.4128" stroke="#445BFD" stroke-width="2"/>
<circle cx="241.647" cy="53.8225" r="10.0605" fill="#C1DDFF"/>
<path d="M274.914 27.3621C261.325 12.6773 241.752 3.46265 219.995 3.46265C194.311 3.46265 171.67 16.3037 158.325 35.8259M164.135 124.957C177.753 140.244 197.73 149.893 219.995 149.893C242.259 149.893 262.237 140.244 275.855 124.957" stroke="#445BFD" stroke-width="2"/>
<path d="M156.313 9.24269L156.38 36.9633L183.25 30.1489" stroke="#445BFD" stroke-width="2"/>
<path d="M267.905 149.925L276.532 123.581L248.881 121.628" stroke="#445BFD" stroke-width="2"/>
</svg>
