<svg width="449" height="187" viewBox="0 0 449 187" fill="none" xmlns="http://www.w3.org/2000/svg">
<rect width="449" height="187" fill="white"/>
<rect x="166.623" y="131.242" width="31.0233" height="41.3644" fill="#99A6FF"/>
<path fill-rule="evenodd" clip-rule="evenodd" d="M197.647 139.232C190.637 139.232 184.955 144.914 184.955 151.924C184.955 158.933 190.637 164.615 197.647 164.615C204.656 164.615 210.338 158.933 210.338 151.924C210.338 144.914 204.656 139.232 197.647 139.232ZM182.762 151.924C182.762 143.703 189.426 137.039 197.647 137.039C205.867 137.039 212.531 143.703 212.531 151.924C212.531 160.144 205.867 166.809 197.647 166.809C189.426 166.809 182.762 160.144 182.762 151.924Z" fill="#99A6FF"/>
<path d="M27.6959 156.892H191.43C191.43 165.458 184.485 172.403 175.918 172.403H43.2076C34.6407 172.403 27.6959 165.458 27.6959 156.892Z" fill="#F6FBFF"/>
<path d="M29.4193 165.509H187.983C186.97 169.561 183.329 172.403 179.153 172.403H41.8579C36.8005 172.403 32.0998 169.798 29.4193 165.509Z" fill="#C1DDFF"/>
<path d="M43.2075 51.7571H177.642V156.892H43.2075V51.7571Z" fill="#DDECFF"/>
<path d="M42.3458 148.274V50.8953H63.8898M154.374 50.8953H178.504V154.306M36.3135 171.541C33.441 170.392 27.6959 165.682 27.6959 156.03C35.2794 156.03 65.9005 156.03 80.2632 156.03M92.3278 156.03H192.292C191.43 161.2 187.811 171.541 180.227 171.541" stroke="#445BFD" stroke-width="2.19324" stroke-linecap="round"/>
<line x1="12" y1="172.828" x2="437.488" y2="172.828" stroke="#445BFD" stroke-width="2.14143"/>
<rect x="50.1017" y="62.0982" width="122.37" height="86.1758" fill="white"/>
<rect x="63.8896" y="131.242" width="91.3464" height="12.0646" rx="6.03231" fill="#F6FBFF"/>
<rect x="63.8896" y="131.242" width="49.982" height="12.0646" rx="6.03231" fill="#435BFD"/>
<rect x="217.283" y="84.4972" width="9.68969" height="9.68969" fill="#D1D7FF"/>
<rect x="217.283" y="106.299" width="9.68969" height="9.68969" fill="#D1D7FF"/>
<rect x="243.387" y="84.6341" width="9.68969" height="9.68969" fill="#8897FF"/>
<rect x="243.387" y="106.436" width="9.68969" height="9.68969" fill="#8897FF"/>
<rect x="268.992" y="84.6341" width="9.68969" height="9.68969" fill="#445BFD"/>
<rect x="268.992" y="106.436" width="9.68969" height="9.68969" fill="#445BFD"/>
<path fill-rule="evenodd" clip-rule="evenodd" d="M17.4832 64.5675C17.4832 60.5703 20.7236 57.3298 24.7208 57.3298C28.7181 57.3298 31.9585 60.5703 31.9585 64.5675C31.9585 68.5648 28.7181 71.8052 24.7208 71.8052C20.7236 71.8052 17.4832 68.5648 17.4832 64.5675ZM24.7208 59.9617C22.1771 59.9617 20.115 62.0238 20.115 64.5675C20.115 67.1112 22.1771 69.1733 24.7208 69.1733C27.2646 69.1733 29.3266 67.1112 29.3266 64.5675C29.3266 62.0238 27.2646 59.9617 24.7208 59.9617Z" fill="#C1DDFF"/>
<path fill-rule="evenodd" clip-rule="evenodd" d="M194.477 65.8832C197.748 65.8832 200.399 63.232 200.399 59.9615C200.399 56.691 197.748 54.0397 194.477 54.0397C191.207 54.0397 188.556 56.691 188.556 59.9615C188.556 63.232 191.207 65.8832 194.477 65.8832Z" stroke="#435BFD" stroke-width="2.63189"/>
<path fill-rule="evenodd" clip-rule="evenodd" d="M40.5121 44.1701C41.6023 44.1701 42.486 43.2863 42.486 42.1961C42.486 41.106 41.6023 40.2222 40.5121 40.2222C39.422 40.2222 38.5382 41.106 38.5382 42.1961C38.5382 43.2863 39.422 44.1701 40.5121 44.1701Z" fill="#435BFD"/>
<path fill-rule="evenodd" clip-rule="evenodd" d="M205.005 40.8802C206.095 40.8802 206.979 39.9964 206.979 38.9063C206.979 37.8161 206.095 36.9324 205.005 36.9324C203.915 36.9324 203.031 37.8161 203.031 38.9063C203.031 39.9964 203.915 40.8802 205.005 40.8802Z" fill="#C1DDFF"/>
<path fill-rule="evenodd" clip-rule="evenodd" d="M30.2039 146.375C31.2941 146.375 32.1778 145.491 32.1778 144.401C32.1778 143.311 31.2941 142.427 30.2039 142.427C29.1137 142.427 28.23 143.311 28.23 144.401C28.23 145.491 29.1137 146.375 30.2039 146.375Z" fill="#435BFD"/>
<path fill-rule="evenodd" clip-rule="evenodd" d="M31.9584 35.0133H22.0889V32.5459H31.9584V35.0133Z" fill="#435BFD"/>
<path fill-rule="evenodd" clip-rule="evenodd" d="M26.2012 39.1256L26.2012 29.256L28.6686 29.256L28.6686 39.1256L26.2012 39.1256Z" fill="#435BFD"/>
<path fill-rule="evenodd" clip-rule="evenodd" d="M206.924 127.129V131.242H209.391V127.129H212.681V124.662H209.391V121.372L206.924 121.372V124.662H202.812V127.129H206.924Z" fill="#435BFD"/>
<path d="M322.185 171.993H403.861V114.663V76.9659L382.657 57.3321H367.539H352.421H337.303H322.185V171.993Z" fill="white" stroke="#445BFD" stroke-width="2.19324"/>
<path d="M321.314 69.4443L303.912 71.0593L321.676 146.154" stroke="#445BFD" stroke-width="2.19324" stroke-linecap="round"/>
<path d="M404.607 92.4292L416.652 93.9566L404.245 169.139" stroke="#445BFD" stroke-width="2.19324" stroke-linecap="round"/>
<path d="M322.888 164.726H402.827V171.186H322.887L322.888 164.726Z" fill="#C1DDFF"/>
<line x1="333.309" y1="149.884" x2="356.338" y2="149.884" stroke="#9BC8FF" stroke-width="2.19324" stroke-linecap="round"/>
<path d="M333.309 137.821H356.338" stroke="#9BC8FF" stroke-width="2.19324" stroke-linecap="round"/>
<path d="M332.213 114.792H392.527" stroke="#445BFD" stroke-width="2.19324" stroke-linecap="round"/>
<path d="M332.213 124.662H392.527" stroke="#445BFD" stroke-width="2.19324" stroke-linecap="round"/>
<path d="M373.438 139.881C374.41 139.881 375.254 140.045 375.971 140.373C376.687 140.69 377.24 141.15 377.629 141.754C378.018 142.348 378.212 143.049 378.212 143.858C378.212 144.666 378.018 145.367 377.629 145.961C377.24 146.555 376.687 147.015 375.971 147.343C375.254 147.66 374.41 147.819 373.438 147.819H371.565V150.628H368.525V139.881H373.438ZM373.254 145.424C373.878 145.424 374.349 145.291 374.666 145.024C374.983 144.748 375.142 144.359 375.142 143.858C375.142 143.356 374.983 142.967 374.666 142.691C374.349 142.414 373.878 142.276 373.254 142.276H371.565V145.424H373.254ZM379.695 139.881H384.776C385.953 139.881 386.997 140.101 387.908 140.541C388.819 140.982 389.525 141.606 390.027 142.414C390.528 143.223 390.779 144.17 390.779 145.255C390.779 146.34 390.528 147.286 390.027 148.095C389.525 148.903 388.819 149.528 387.908 149.968C386.997 150.408 385.953 150.628 384.776 150.628H379.695V139.881ZM384.653 148.202C385.575 148.202 386.312 147.941 386.864 147.419C387.427 146.897 387.709 146.176 387.709 145.255C387.709 144.334 387.427 143.612 386.864 143.09C386.312 142.568 385.575 142.307 384.653 142.307H382.734V148.202H384.653ZM395.418 142.23V144.595H400.162V146.943H395.418V150.628H392.379V139.881H400.807V142.23H395.418Z" fill="#445BFD"/>
<rect x="362.918" y="132.338" width="40.5749" height="25.2222" stroke="#445BFD" stroke-width="2.19324"/>
<path fill-rule="evenodd" clip-rule="evenodd" d="M412.266 71.0913C412.266 67.094 415.506 63.8536 419.504 63.8536C423.501 63.8536 426.741 67.094 426.741 71.0913C426.741 75.0885 423.501 78.3289 419.504 78.3289C415.506 78.3289 412.266 75.0885 412.266 71.0913ZM419.504 66.4855C416.96 66.4855 414.898 68.5475 414.898 71.0913C414.898 73.635 416.96 75.6971 419.504 75.6971C422.047 75.6971 424.109 73.635 424.109 71.0913C424.109 68.5475 422.047 66.4855 419.504 66.4855Z" fill="#9BC8FF"/>
<path fill-rule="evenodd" clip-rule="evenodd" d="M306.991 137.383C308.081 137.383 308.964 136.499 308.964 135.409C308.964 134.319 308.081 133.435 306.991 133.435C305.9 133.435 305.017 134.319 305.017 135.409C305.017 136.499 305.9 137.383 306.991 137.383Z" fill="#435BFD"/>
<path fill-rule="evenodd" clip-rule="evenodd" d="M319.602 44.6087C320.51 44.6087 321.247 43.8722 321.247 42.9638C321.247 42.0553 320.51 41.3188 319.602 41.3188C318.693 41.3188 317.957 42.0553 317.957 42.9638C317.957 43.8722 318.693 44.6087 319.602 44.6087Z" fill="#435BFD"/>
<path fill-rule="evenodd" clip-rule="evenodd" d="M430.031 52.01C431.122 52.01 432.005 51.1262 432.005 50.036C432.005 48.9459 431.122 48.0621 430.031 48.0621C428.941 48.0621 428.057 48.9459 428.057 50.036C428.057 51.1262 428.941 52.01 430.031 52.01Z" fill="#435BFD"/>
<path fill-rule="evenodd" clip-rule="evenodd" d="M305.894 157.835H296.024V155.367H305.894V157.835Z" fill="#9BC8FF"/>
<path fill-rule="evenodd" clip-rule="evenodd" d="M300.137 161.947L300.137 152.077L302.604 152.077L302.604 161.947L300.137 161.947Z" fill="#9BC8FF"/>
<path fill-rule="evenodd" clip-rule="evenodd" d="M431.95 138.259V142.371H434.418V138.259H437.707V135.792H434.418V132.502L431.95 132.502V135.792H427.838V138.259H431.95Z" fill="#435BFD"/>
<rect x="332.213" y="69.8309" width="39.4783" height="33.9952" fill="white" stroke="#445BFD" stroke-width="2.19324"/>
<path d="M382.07 56.9628L382.07 78.0556L404.041 78.0556" stroke="#445BFD" stroke-width="2.19324"/>
<path d="M332.213 96.4286L341.961 87.4842C342.382 87.098 343.028 87.0995 343.447 87.4876L358.721 101.633M351.542 92.7856L357.988 86.9447C358.404 86.5672 359.039 86.5659 359.457 86.9416L370.594 96.9491" stroke="#445BFD" stroke-width="2.19324"/>
<circle cx="361.822" cy="77.5073" r="4.38648" fill="#C1DDFF"/>
<path d="M70.1208 126.855H149.077V75.8624V42.3329L128.579 24.8696H113.965H99.35H84.7354H70.1208V126.855Z" fill="white" stroke="#445BFD" stroke-width="2.11562"/>
<path d="M70.7988 119.628H147.909V125.859H70.7985L70.7988 119.628Z" fill="#C1DDFF"/>
<line x1="104.959" y1="53.4205" x2="137.115" y2="53.4205" stroke="#9BC8FF" stroke-width="2.11562" stroke-linecap="round"/>
<line x1="80.0345" y1="100.656" x2="102.844" y2="100.656" stroke="#9BC8FF" stroke-width="2.11562" stroke-linecap="round"/>
<path d="M80.5344 89.2512H102.344" stroke="#9BC8FF" stroke-width="2.11562" stroke-linecap="round"/>
<path d="M78.9767 67.4421H138.173" stroke="#445BFD" stroke-width="2.11562" stroke-linecap="round"/>
<path d="M78.9767 76.7889H138.173" stroke="#445BFD" stroke-width="2.11562" stroke-linecap="round"/>
<path d="M128.462 24.9953L128.462 42.4155L148.529 42.4155" stroke="#445BFD" stroke-width="2.11562"/>
<path d="M91.6833 37.7789L92.4158 55.6195C92.5736 59.4644 89.4888 62.6624 85.6407 62.6432V62.6432C81.9145 62.6245 78.9089 59.5887 78.9276 55.8625L79.095 22.4039C79.1155 18.3148 82.4469 15.0166 86.536 15.0371V15.0371C90.2147 15.0555 93.3219 17.772 93.8315 21.4153L94.2285 24.2537" stroke="#445BFD" stroke-width="2.11562" stroke-linecap="round"/>
<path d="M120.254 101.714H118.596V104.57H115.556V93.8232H120.469C121.441 93.8232 122.286 93.987 123.002 94.3145C123.719 94.6318 124.271 95.0924 124.66 95.6962C125.049 96.2899 125.244 96.991 125.244 97.7995C125.244 98.5774 125.059 99.258 124.691 99.8414C124.333 100.415 123.816 100.865 123.14 101.192L125.459 104.57H122.204L120.254 101.714ZM122.173 97.7995C122.173 97.298 122.014 96.9091 121.697 96.6327C121.38 96.3564 120.909 96.2182 120.285 96.2182H118.596V99.3655H120.285C120.909 99.3655 121.38 99.2325 121.697 98.9663C122.014 98.69 122.173 98.3011 122.173 97.7995ZM129.058 96.2336H125.757V93.8232H135.384V96.2336H132.098V104.57H129.058V96.2336ZM139.556 96.1722V98.5365H144.3V100.885H139.556V104.57H136.516V93.8232H144.945V96.1722H139.556Z" fill="#445BFD"/>
<rect x="109.599" y="86.2803" width="39.4783" height="25.2222" stroke="#445BFD" stroke-width="2.11562"/>
</svg>
