<svg width="449" height="187" viewBox="0 0 449 187" fill="none" xmlns="http://www.w3.org/2000/svg">
<rect width="449" height="187" fill="white"/>
<line x1="79.4719" y1="182.97" x2="158.836" y2="182.97" stroke="#445BFD" stroke-width="2.44677"/>
<line x1="368.475" y1="182.97" x2="381.952" y2="182.97" stroke="#445BFD" stroke-width="2.44677"/>
<line x1="173.81" y1="182.97" x2="359.49" y2="182.97" stroke="#445BFD" stroke-width="2.44677"/>
<path d="M304.086 54.415H302.365H146.856C141.067 54.415 136.374 59.108 136.374 64.897V169.717H300.487H314.568V64.897C314.568 59.108 309.875 54.415 304.086 54.415Z" fill="white" stroke="#445BFD" stroke-width="2.44677"/>
<path d="M304.086 67.8918H294.014H148.354V169.717H292.464H304.086V67.8918Z" fill="#E7F2FF" stroke="#445BFD" stroke-width="2.44677"/>
<path d="M293.604 35.6972H322.055C323.552 25.4648 322.354 5 308.578 5" stroke="#445BFD" stroke-width="2.44677"/>
<path d="M292.106 19.9065C292.106 9.17382 302.838 5.49688 308.578 5H175.307C164.526 5 160.832 11.9564 160.333 15.4346V169.717H289.86C289.86 161.302 289.937 151.238 290.062 140.356C290.146 133.094 290.251 125.467 290.37 117.723C290.485 110.214 290.612 102.595 290.743 95.0903C290.808 91.3832 290.875 87.704 290.941 84.0798C291.516 52.678 292.106 25.4072 292.106 19.9065Z" fill="white" stroke="#445BFD" stroke-width="2.44677"/>
<rect x="283.738" y="96.3137" width="8.56371" height="52.6057" fill="white"/>
<path d="M251.676 169.717H109.42V175.707C109.42 179.842 112.772 183.194 116.907 183.194H262.906L251.676 169.717Z" fill="white" stroke="#445BFD" stroke-width="2.44677"/>
<path d="M173.633 87.75H276.398" stroke="#9BC8FF" stroke-width="2.44677" stroke-linecap="round"/>
<path d="M173.633 37.5911H215.228" stroke="#445BFD" stroke-width="2.44677" stroke-linecap="round"/>
<path d="M173.633 103.654H276.398" stroke="#9BC8FF" stroke-width="2.44677" stroke-linecap="round"/>
<path d="M173.633 58.3887H215.228" stroke="#445BFD" stroke-width="2.44677" stroke-linecap="round"/>
<path d="M174.541 129.152C175.869 129.152 177.022 129.376 178 129.823C178.978 130.256 179.733 130.885 180.264 131.71C180.795 132.52 181.061 133.478 181.061 134.582C181.061 135.686 180.795 136.643 180.264 137.454C179.733 138.264 178.978 138.893 178 139.341C177.022 139.774 175.869 139.99 174.541 139.99H171.983V143.827H167.832V129.152H174.541ZM174.289 136.72C175.142 136.72 175.785 136.538 176.218 136.175C176.651 135.798 176.868 135.267 176.868 134.582C176.868 133.897 176.651 133.366 176.218 132.989C175.785 132.611 175.142 132.423 174.289 132.423H171.983V136.72H174.289ZM183.084 129.152H190.024C191.631 129.152 193.056 129.453 194.3 130.054C195.544 130.655 196.508 131.507 197.193 132.611C197.878 133.715 198.22 135.008 198.22 136.49C198.22 137.971 197.878 139.264 197.193 140.368C196.508 141.472 195.544 142.324 194.3 142.925C193.056 143.526 191.631 143.827 190.024 143.827H183.084V129.152ZM189.856 140.515C191.114 140.515 192.12 140.158 192.875 139.445C193.643 138.733 194.028 137.747 194.028 136.49C194.028 135.232 193.643 134.246 192.875 133.534C192.12 132.821 191.114 132.464 189.856 132.464H187.235V140.515H189.856ZM204.555 132.36V135.588H211.033V138.796H204.555V143.827H200.404V129.152H211.914V132.36H204.555Z" fill="#445BFD"/>
<rect x="160.176" y="118.335" width="55.4048" height="34.4408" stroke="#445BFD" stroke-width="2.44677"/>
<rect x="222.569" y="21.687" width="53.9073" height="46.4202" fill="white" stroke="#445BFD" stroke-width="2.44677"/>
<path d="M222.569 58.006L235.879 45.7923C236.454 45.2651 237.337 45.2671 237.909 45.797L258.765 65.1124M248.962 53.0315L257.764 45.0557C258.333 44.5403 259.199 44.5385 259.77 45.0515L274.979 58.7166" stroke="#445BFD" stroke-width="2.44677"/>
<circle cx="262.999" cy="32.169" r="5.9897" fill="#C1DDFF"/>
<path d="M170.815 171.214H197.769C197.769 173.695 195.757 175.707 193.276 175.707H175.307C172.826 175.707 170.815 173.695 170.815 171.214Z" fill="#445BFD"/>
<path d="M244.188 169.717H314.568V171.214C314.568 177.83 309.204 183.194 302.588 183.194H256.168C249.552 183.194 244.188 177.83 244.188 171.214V169.717Z" fill="white" stroke="#445BFD" stroke-width="2.44677"/>
<path fill-rule="evenodd" clip-rule="evenodd" d="M364.004 53.7633C368.47 53.7633 372.09 50.143 372.09 45.6772C372.09 41.2113 368.47 37.5911 364.004 37.5911C359.538 37.5911 355.918 41.2113 355.918 45.6772C355.918 50.143 359.538 53.7633 364.004 53.7633Z" stroke="#435BFD" stroke-width="2.44677"/>
<path fill-rule="evenodd" clip-rule="evenodd" d="M347.511 32.852C349 32.852 350.207 31.6453 350.207 30.1567C350.207 28.6681 349 27.4613 347.511 27.4613C346.023 27.4613 344.816 28.6681 344.816 30.1567C344.816 31.6453 346.023 32.852 347.511 32.852Z" fill="#C1DDFF"/>
<path fill-rule="evenodd" clip-rule="evenodd" d="M367.615 138.862V144.477H370.984V138.862H375.477V135.492H370.984V131H367.615V135.492H362V138.862H367.615Z" fill="#435BFD"/>
<path fill-rule="evenodd" clip-rule="evenodd" d="M103.503 73.4149C103.503 67.9566 107.928 63.5319 113.386 63.5319C118.844 63.5319 123.269 67.9566 123.269 73.4149C123.269 78.8731 118.844 83.2979 113.386 83.2979C107.928 83.2979 103.503 78.8731 103.503 73.4149ZM113.386 67.1257C109.913 67.1257 107.097 69.9414 107.097 73.4149C107.097 76.8883 109.913 79.7041 113.386 79.7041C116.859 79.7041 119.675 76.8883 119.675 73.4149C119.675 69.9414 116.859 67.1257 113.386 67.1257Z" fill="#C1DDFF"/>
<path fill-rule="evenodd" clip-rule="evenodd" d="M384.305 88.2472C385.793 88.2472 387 87.0404 387 85.5518C387 84.0632 385.793 82.8564 384.305 82.8564C382.816 82.8564 381.609 84.0632 381.609 85.5518C381.609 87.0404 382.816 88.2472 384.305 88.2472Z" fill="#435BFD"/>
<path fill-rule="evenodd" clip-rule="evenodd" d="M120.801 154.443C122.289 154.443 123.496 153.237 123.496 151.748C123.496 150.259 122.289 149.053 120.801 149.053C119.312 149.053 118.105 150.259 118.105 151.748C118.105 153.237 119.312 154.443 120.801 154.443Z" fill="#435BFD"/>
<path fill-rule="evenodd" clip-rule="evenodd" d="M123.269 33.0587H109.792V29.6895L123.269 29.6895V33.0587Z" fill="#435BFD"/>
<path fill-rule="evenodd" clip-rule="evenodd" d="M115.407 38.6741L115.407 25.1973L118.776 25.1973L118.776 38.6741L115.407 38.6741Z" fill="#435BFD"/>
<path d="M331.59 66.9495C332.645 65.8728 334.373 65.855 335.45 66.9097L346.369 77.606C347.445 78.6608 347.463 80.3886 346.408 81.4653L295.508 133.425L280.69 118.909L331.59 66.9495Z" fill="white" stroke="#445BFD" stroke-width="2"/>
<path d="M277.425 139.412C276.434 139.7 275.494 138.825 275.711 137.816L279.378 120.691C279.601 119.65 280.876 119.254 281.65 119.985L294.65 132.271C295.417 132.996 295.106 134.279 294.093 134.573L277.425 139.412Z" fill="white" stroke="#445BFD" stroke-width="2"/>
<line x1="322.333" y1="75.2094" x2="337.343" y2="90.2191" stroke="#445BFD" stroke-width="2"/>
<path d="M231.5 121C227.833 125.667 221.6 136.8 226 144C231.5 153 246 118.5 253.5 130.5C261 142.5 261.5 161 279 148" stroke="#445BFD" stroke-width="2.44677"/>
</svg>
