<svg width="449" height="187" viewBox="0 0 449 187" fill="none" xmlns="http://www.w3.org/2000/svg">
<rect width="449" height="187" fill="white"/>
<line x1="79.3708" y1="182.983" x2="158.249" y2="182.983" stroke="#445BFD" stroke-width="2.4318"/>
<line x1="366.606" y1="182.983" x2="380" y2="182.983" stroke="#445BFD" stroke-width="2.4318"/>
<line x1="173.131" y1="182.983" x2="357.676" y2="182.983" stroke="#445BFD" stroke-width="2.4318"/>
<path d="M302.61 55.2085H300.9H146.343C140.589 55.2085 135.925 59.8727 135.925 65.6263V169.805H299.034H313.028V65.6263C313.028 59.8727 308.364 55.2085 302.61 55.2085Z" fill="white" stroke="#445BFD" stroke-width="2.4318"/>
<path d="M302.61 68.6028H292.6H147.831V169.805H291.06H302.61V68.6028Z" fill="#E7F2FF" stroke="#445BFD" stroke-width="2.4318"/>
<path d="M292.193 36.6052H320.47C321.958 26.4354 320.767 6.09583 307.075 6.09583" stroke="#445BFD" stroke-width="2.4318"/>
<path d="M290.704 20.9111C290.704 10.2441 301.37 6.58967 307.075 6.09583H174.62C163.904 6.09583 160.233 13.0096 159.737 16.4665V169.805H288.472C288.472 161.442 288.548 151.439 288.673 140.623C288.756 133.406 288.861 125.826 288.978 118.129C289.093 110.666 289.219 103.094 289.35 95.6348C289.414 91.9504 289.48 88.2937 289.546 84.6917C290.118 53.4821 290.704 26.3781 290.704 20.9111Z" fill="white" stroke="#445BFD" stroke-width="2.4318"/>
<rect x="161" y="97" width="127" height="73" fill="#BDDBFC"/>
<path d="M250.521 169.805H109.136V175.758C109.136 179.867 112.468 183.199 116.578 183.199H261.683L250.521 169.805Z" fill="white" stroke="#445BFD" stroke-width="2.4318"/>
<path d="M172.956 88.3392H275.092" stroke="#9BC8FF" stroke-width="2.4318" stroke-linecap="round"/>
<path d="M225 122H274" stroke="#9BC8FF" stroke-width="2.4318" stroke-linecap="round"/>
<path d="M172.956 38.4874H214.297" stroke="#445BFD" stroke-width="2.4318" stroke-linecap="round"/>
<path d="M173 104H274" stroke="#9BC8FF" stroke-width="2.4318" stroke-linecap="round"/>
<path d="M225 138H274" stroke="#9BC8FF" stroke-width="2.4318" stroke-linecap="round"/>
<path d="M172.956 59.1577H214.297" stroke="#445BFD" stroke-width="2.4318" stroke-linecap="round"/>
<path d="M173.858 128.617C175.178 128.617 176.324 128.839 177.296 129.283C178.268 129.714 179.018 130.339 179.546 131.159C180.074 131.964 180.338 132.916 180.338 134.013C180.338 135.11 180.074 136.062 179.546 136.868C179.018 137.673 178.268 138.298 177.296 138.743C176.324 139.173 175.178 139.389 173.858 139.389H171.316V143.202H167.191V128.617H173.858ZM173.608 136.138C174.455 136.138 175.094 135.958 175.525 135.597C175.955 135.222 176.171 134.694 176.171 134.013C176.171 133.332 175.955 132.805 175.525 132.43C175.094 132.055 174.455 131.867 173.608 131.867H171.316V136.138H173.608ZM182.349 128.617H189.246C190.843 128.617 192.26 128.915 193.496 129.513C194.733 130.11 195.691 130.957 196.372 132.055C197.052 133.152 197.393 134.437 197.393 135.909C197.393 137.382 197.052 138.666 196.372 139.764C195.691 140.861 194.733 141.708 193.496 142.306C192.26 142.903 190.843 143.202 189.246 143.202H182.349V128.617ZM189.079 139.91C190.329 139.91 191.33 139.555 192.08 138.847C192.844 138.139 193.226 137.159 193.226 135.909C193.226 134.659 192.844 133.68 192.08 132.971C191.33 132.263 190.329 131.909 189.079 131.909H186.475V139.91H189.079ZM203.689 131.805V135.013H210.127V138.201H203.689V143.202H199.563V128.617H211.002V131.805H203.689Z" fill="#445BFD"/>
<rect x="159.581" y="118.737" width="55.0657" height="34.23" stroke="#445BFD" stroke-width="2.4318"/>
<rect x="221.592" y="22.6807" width="53.5775" height="46.1361" fill="white" stroke="#445BFD" stroke-width="2.4318"/>
<path d="M221.592 58.7774L234.822 46.6385C235.393 46.1145 236.271 46.1165 236.839 46.6431L257.568 65.8403M247.824 53.8333L256.573 45.9064C257.138 45.3941 257.999 45.3923 258.567 45.9022L273.682 59.4837" stroke="#445BFD" stroke-width="2.4318"/>
<circle cx="261.775" cy="33.0986" r="5.95305" fill="#C1DDFF"/>
<path d="M170.155 171.293H196.944C196.944 173.759 194.945 175.758 192.479 175.758H174.62C172.154 175.758 170.155 173.759 170.155 171.293Z" fill="#445BFD"/>
<path d="M243.08 169.805H313.028V171.293C313.028 177.869 307.698 183.199 301.122 183.199H254.986C248.411 183.199 243.08 177.869 243.08 171.293V169.805Z" fill="white" stroke="#445BFD" stroke-width="2.4318"/>
<path fill-rule="evenodd" clip-rule="evenodd" d="M331.483 67.7101C335.921 67.7101 339.519 64.112 339.519 59.6735C339.519 55.235 335.921 51.6368 331.483 51.6368C327.044 51.6368 323.446 55.235 323.446 59.6735C323.446 64.112 327.044 67.7101 331.483 67.7101Z" stroke="#435BFD" stroke-width="2.4318"/>
<path fill-rule="evenodd" clip-rule="evenodd" d="M345.77 33.7775C347.25 33.7775 348.449 32.5782 348.449 31.0987C348.449 29.6192 347.25 28.4198 345.77 28.4198C344.291 28.4198 343.091 29.6192 343.091 31.0987C343.091 32.5782 344.291 33.7775 345.77 33.7775Z" fill="#C1DDFF"/>
<path fill-rule="evenodd" clip-rule="evenodd" d="M348.375 150.829V156.41L351.723 156.41V150.829H356.188V147.481H351.723V143.016L348.375 143.016V147.481H342.794V150.829H348.375Z" fill="#435BFD"/>
<path fill-rule="evenodd" clip-rule="evenodd" d="M93.9229 81.5464C93.9229 76.1216 98.3206 71.7239 103.745 71.7239C109.17 71.7239 113.568 76.1216 113.568 81.5464C113.568 86.9712 109.17 91.3689 103.745 91.3689C98.3206 91.3689 93.9229 86.9712 93.9229 81.5464ZM103.745 75.2957C100.293 75.2957 97.4947 78.0942 97.4947 81.5464C97.4947 84.9986 100.293 87.7971 103.745 87.7971C107.198 87.7971 109.996 84.9986 109.996 81.5464C109.996 78.0942 107.198 75.2957 103.745 75.2957Z" fill="#C1DDFF"/>
<path fill-rule="evenodd" clip-rule="evenodd" d="M348.449 76.9371C349.928 76.9371 351.128 75.7377 351.128 74.2582C351.128 72.7787 349.928 71.5793 348.449 71.5793C346.969 71.5793 345.77 72.7787 345.77 74.2582C345.77 75.7377 346.969 76.9371 348.449 76.9371Z" fill="#435BFD"/>
<path fill-rule="evenodd" clip-rule="evenodd" d="M120.447 154.625C121.926 154.625 123.126 153.425 123.126 151.946C123.126 150.466 121.926 149.267 120.447 149.267C118.967 149.267 117.768 150.466 117.768 151.946C117.768 153.425 118.967 154.625 120.447 154.625Z" fill="#435BFD"/>
<path fill-rule="evenodd" clip-rule="evenodd" d="M113.568 41.4372H100.173V38.0886H113.568V41.4372Z" fill="#435BFD"/>
<path fill-rule="evenodd" clip-rule="evenodd" d="M105.754 47.0181L105.754 33.6238L109.103 33.6238L109.103 47.0181L105.754 47.0181Z" fill="#435BFD"/>
<line x1="118.216" y1="96.7841" x2="334.784" y2="96.7841" stroke="#445BFD" stroke-width="2.4318" stroke-linecap="round" stroke-dasharray="4 4"/>
</svg>
