<svg width="449" height="187" viewBox="0 0 449 187" fill="none" xmlns="http://www.w3.org/2000/svg">
<rect width="449" height="187" fill="white"/>
<rect x="166" y="125" width="28.2899" height="37.7199" fill="#99A6FF"/>
<path fill-rule="evenodd" clip-rule="evenodd" d="M194.29 132.287C187.898 132.287 182.717 137.468 182.717 143.86C182.717 150.252 187.898 155.433 194.29 155.433C200.682 155.433 205.863 150.252 205.863 143.86C205.863 137.468 200.682 132.287 194.29 132.287ZM180.717 143.86C180.717 136.364 186.794 130.287 194.29 130.287C201.786 130.287 207.863 136.364 207.863 143.86C207.863 151.356 201.786 157.433 194.29 157.433C186.794 157.433 180.717 151.356 180.717 143.86Z" fill="#99A6FF"/>
<path d="M39.313 148.39H188.621C188.621 156.202 182.288 162.535 174.476 162.535H53.458C45.6459 162.535 39.313 156.202 39.313 148.39Z" fill="#F6FBFF"/>
<path d="M40.8845 156.248H185.478C184.554 159.943 181.234 162.535 177.426 162.535H52.2272C47.6154 162.535 43.3288 160.159 40.8845 156.248Z" fill="#C1DDFF"/>
<path d="M53.458 52.5186H176.048V148.39H53.458V52.5186Z" fill="#DDECFF"/>
<path d="M52.6721 140.532V51.7327H72.3179M154.83 51.7327H176.834V146.033M47.1713 161.749C44.5519 160.701 39.313 156.406 39.313 147.604C46.2283 147.604 74.1515 147.604 87.2487 147.604M98.2504 147.604H189.407C188.621 152.319 185.321 161.749 178.405 161.749" stroke="#445BFD" stroke-width="2" stroke-linecap="round"/>
<line x1="25" y1="162.899" x2="432" y2="162.899" stroke="#445BFD" stroke-width="2"/>
<rect x="59.7446" y="61.9485" width="111.588" height="78.5832" fill="white"/>
<rect x="72.3179" y="125" width="83.2982" height="11.0016" rx="5.50082" fill="#F6FBFF"/>
<rect x="72.3179" y="125" width="45.5782" height="11.0016" rx="5.50082" fill="#435BFD"/>
<rect x="212.196" y="82.374" width="8.83597" height="8.83597" fill="#D1D7FF"/>
<rect x="212.196" y="102.255" width="8.83597" height="8.83597" fill="#D1D7FF"/>
<rect x="236" y="82.4989" width="8.83597" height="8.83597" fill="#8897FF"/>
<rect x="236" y="102.38" width="8.83597" height="8.83597" fill="#8897FF"/>
<rect x="259.349" y="82.4989" width="8.83597" height="8.83597" fill="#445BFD"/>
<rect x="259.349" y="102.38" width="8.83597" height="8.83597" fill="#445BFD"/>
<path fill-rule="evenodd" clip-rule="evenodd" d="M30 64.2003C30 60.5552 32.9549 57.6003 36.6 57.6003C40.2451 57.6003 43.2 60.5552 43.2 64.2003C43.2 67.8454 40.2451 70.8003 36.6 70.8003C32.9549 70.8003 30 67.8454 30 64.2003ZM36.6 60.0003C34.2804 60.0003 32.4 61.8807 32.4 64.2003C32.4 66.5199 34.2804 68.4003 36.6 68.4003C38.9196 68.4003 40.8 66.5199 40.8 64.2003C40.8 61.8807 38.9196 60.0003 36.6 60.0003Z" fill="#C1DDFF"/>
<path fill-rule="evenodd" clip-rule="evenodd" d="M191.4 65.4001C194.382 65.4001 196.8 62.9824 196.8 60.0001C196.8 57.0178 194.382 54.6001 191.4 54.6001C188.418 54.6001 186 57.0178 186 60.0001C186 62.9824 188.418 65.4001 191.4 65.4001Z" stroke="#435BFD" stroke-width="2.4"/>
<path fill-rule="evenodd" clip-rule="evenodd" d="M51 45.6C51.9941 45.6 52.8 44.7941 52.8 43.8C52.8 42.8059 51.9941 42 51 42C50.0058 42 49.2 42.8059 49.2 43.8C49.2 44.7941 50.0058 45.6 51 45.6Z" fill="#435BFD"/>
<path fill-rule="evenodd" clip-rule="evenodd" d="M201 42.6C201.994 42.6 202.8 41.7941 202.8 40.8C202.8 39.8059 201.994 39 201 39C200.006 39 199.2 39.8059 199.2 40.8C199.2 41.7941 200.006 42.6 201 42.6Z" fill="#C1DDFF"/>
<path fill-rule="evenodd" clip-rule="evenodd" d="M41.6 138.8C42.5942 138.8 43.4 137.994 43.4 137C43.4 136.006 42.5942 135.2 41.6 135.2C40.6059 135.2 39.8 136.006 39.8 137C39.8 137.994 40.6059 138.8 41.6 138.8Z" fill="#435BFD"/>
<path fill-rule="evenodd" clip-rule="evenodd" d="M43.2 37.25H34.2V35H43.2V37.25Z" fill="#435BFD"/>
<path fill-rule="evenodd" clip-rule="evenodd" d="M37.95 41L37.95 32L40.2 32L40.2 41L37.95 41Z" fill="#435BFD"/>
<path fill-rule="evenodd" clip-rule="evenodd" d="M202.75 121.25L202.75 125H205V121.25H208V119H205V116H202.75L202.75 119H199V121.25H202.75Z" fill="#435BFD"/>
<path d="M307.856 162.161H382.336V109.882V75.5063L363 57.6024H349.214H335.428H321.642H307.856V162.161Z" fill="white" stroke="#445BFD" stroke-width="2"/>
<path d="M307.062 68.6474L291.192 70.12L307.392 138.599" stroke="#445BFD" stroke-width="2" stroke-linecap="round"/>
<path d="M383.015 89.6072L394 91L382.685 159.558" stroke="#445BFD" stroke-width="2" stroke-linecap="round"/>
<path d="M308.496 155.534H381.393V161.425H308.496L308.496 155.534Z" fill="#C1DDFF"/>
<line x1="318" y1="142" x2="339" y2="142" stroke="#9BC8FF" stroke-width="2" stroke-linecap="round"/>
<path d="M318 131H339" stroke="#9BC8FF" stroke-width="2" stroke-linecap="round"/>
<path d="M317 110H372" stroke="#445BFD" stroke-width="2" stroke-linecap="round"/>
<path d="M317 119H372" stroke="#445BFD" stroke-width="2" stroke-linecap="round"/>
<path d="M354.593 133.2C355.479 133.2 356.249 133.349 356.903 133.648C357.556 133.937 358.06 134.357 358.415 134.908C358.769 135.449 358.947 136.089 358.947 136.826C358.947 137.563 358.769 138.203 358.415 138.744C358.06 139.285 357.556 139.705 356.903 140.004C356.249 140.293 355.479 140.438 354.593 140.438H352.885V143H350.113V133.2H354.593ZM354.425 138.254C354.994 138.254 355.423 138.133 355.713 137.89C356.002 137.638 356.147 137.283 356.147 136.826C356.147 136.369 356.002 136.014 355.713 135.762C355.423 135.51 354.994 135.384 354.425 135.384H352.885V138.254H354.425ZM360.298 133.2H364.932C366.006 133.2 366.958 133.401 367.788 133.802C368.619 134.203 369.263 134.773 369.72 135.51C370.178 136.247 370.406 137.111 370.406 138.1C370.406 139.089 370.178 139.953 369.72 140.69C369.263 141.427 368.619 141.997 367.788 142.398C366.958 142.799 366.006 143 364.932 143H360.298V133.2ZM364.82 140.788C365.66 140.788 366.332 140.55 366.836 140.074C367.35 139.598 367.606 138.94 367.606 138.1C367.606 137.26 367.35 136.602 366.836 136.126C366.332 135.65 365.66 135.412 364.82 135.412H363.07V140.788H364.82ZM374.637 135.342V137.498H378.963V139.64H374.637V143H371.865V133.2H379.551V135.342H374.637Z" fill="#445BFD"/>
<rect x="345" y="126" width="37" height="23" stroke="#445BFD" stroke-width="2"/>
<path fill-rule="evenodd" clip-rule="evenodd" d="M390 70.1493C390 66.5042 392.955 63.5493 396.6 63.5493C400.245 63.5493 403.2 66.5042 403.2 70.1493C403.2 73.7943 400.245 76.7493 396.6 76.7493C392.955 76.7493 390 73.7943 390 70.1493ZM396.6 65.9493C394.28 65.9493 392.4 67.8297 392.4 70.1493C392.4 72.4689 394.28 74.3493 396.6 74.3493C398.92 74.3493 400.8 72.4689 400.8 70.1493C400.8 67.8297 398.92 65.9493 396.6 65.9493Z" fill="#9BC8FF"/>
<path fill-rule="evenodd" clip-rule="evenodd" d="M294 130.6C294.994 130.6 295.8 129.794 295.8 128.8C295.8 127.806 294.994 127 294 127C293.006 127 292.2 127.806 292.2 128.8C292.2 129.794 293.006 130.6 294 130.6Z" fill="#435BFD"/>
<path fill-rule="evenodd" clip-rule="evenodd" d="M305.5 46C306.328 46 307 45.3284 307 44.5C307 43.6716 306.328 43 305.5 43C304.672 43 304 43.6716 304 44.5C304 45.3284 304.672 46 305.5 46Z" fill="#435BFD"/>
<path fill-rule="evenodd" clip-rule="evenodd" d="M406.2 52.7492C407.194 52.7492 408 51.9433 408 50.9492C408 49.9551 407.194 49.1492 406.2 49.1492C405.206 49.1492 404.4 49.9551 404.4 50.9492C404.4 51.9433 405.206 52.7492 406.2 52.7492Z" fill="#435BFD"/>
<path fill-rule="evenodd" clip-rule="evenodd" d="M293 149.25H284V147H293V149.25Z" fill="#9BC8FF"/>
<path fill-rule="evenodd" clip-rule="evenodd" d="M287.75 153L287.75 144L290 144L290 153L287.75 153Z" fill="#9BC8FF"/>
<path fill-rule="evenodd" clip-rule="evenodd" d="M407.95 131.399L407.95 135.149H410.2V131.399H413.2V129.149H410.2V126.149H407.95L407.95 129.149H404.2V131.399H407.95Z" fill="#435BFD"/>
<rect x="317" y="69" width="36" height="31" fill="white" stroke="#445BFD" stroke-width="2"/>
<path d="M362.465 57.2656L362.465 76.5L382.5 76.5" stroke="#445BFD" stroke-width="2"/>
<path d="M317 93.2542L325.889 85.0978C326.273 84.7457 326.863 84.7471 327.245 85.101L341.173 98M334.626 89.9322L340.504 84.6059C340.884 84.2617 341.463 84.2605 341.844 84.6031L352 93.7288" stroke="#445BFD" stroke-width="2"/>
<circle cx="344" cy="76" r="4" fill="#C1DDFF"/>
<path d="M78 121H150V74.5V43.9247L131.308 28H117.981H104.654H91.3269H78V121Z" fill="white" stroke="#445BFD" stroke-width="1.92922"/>
<path d="M78.6183 114.41H148.935V120.092H78.6179L78.6183 114.41Z" fill="#C1DDFF"/>
<line x1="109.769" y1="54.0354" x2="139.092" y2="54.0354" stroke="#9BC8FF" stroke-width="1.92922" stroke-linecap="round"/>
<line x1="87.0403" y1="97.109" x2="107.84" y2="97.109" stroke="#9BC8FF" stroke-width="1.92922" stroke-linecap="round"/>
<path d="M87.4961 86.7093H107.384" stroke="#9BC8FF" stroke-width="1.92922" stroke-linecap="round"/>
<path d="M86.0757 66.8217H140.056" stroke="#445BFD" stroke-width="1.92922" stroke-linecap="round"/>
<path d="M86.0757 75.3449H140.056" stroke="#445BFD" stroke-width="1.92922" stroke-linecap="round"/>
<path d="M131.2 28.1147L131.2 44L149.5 44" stroke="#445BFD" stroke-width="1.92922"/>
<path d="M97.6626 39.772L98.3306 56.0407C98.4745 59.5468 95.6615 62.4631 92.1525 62.4455V62.4455C88.7546 62.4285 86.0138 59.6602 86.0308 56.2623L86.1835 25.7515C86.2022 22.0228 89.2401 19.0151 92.9688 19.0338V19.0338C96.3234 19.0506 99.1569 21.5278 99.6216 24.8501L99.9836 27.4384" stroke="#445BFD" stroke-width="1.92922" stroke-linecap="round"/>
<path d="M121.442 93.398H118.432V91.2H127.21V93.398H124.214V101H121.442V93.398ZM134.007 101L131.977 97.962L129.975 101H126.811L130.381 96.044L126.965 91.2H130.087L132.047 94.028L133.979 91.2H136.975L133.559 95.932L137.199 101H134.007ZM139.803 93.398H136.793V91.2H145.571V93.398H142.575V101H139.803V93.398Z" fill="#445BFD"/>
<rect x="114" y="84" width="36" height="23" stroke="#445BFD" stroke-width="1.92922"/>
</svg>
