<svg width="449" height="187" viewBox="0 0 449 187" fill="none" xmlns="http://www.w3.org/2000/svg">
<rect width="449" height="187" fill="white"/>
<line x1="78.4719" y1="181.705" x2="157.836" y2="181.705" stroke="#445BFD" stroke-width="2.44677"/>
<line x1="367.475" y1="181.705" x2="380.952" y2="181.705" stroke="#445BFD" stroke-width="2.44677"/>
<line x1="172.81" y1="181.705" x2="358.49" y2="181.705" stroke="#445BFD" stroke-width="2.44677"/>
<path d="M303.086 54.1495H301.365H145.856C140.067 54.1495 135.374 58.8424 135.374 64.6315V169.451H299.487H313.568V64.6315C313.568 58.8424 308.875 54.1495 303.086 54.1495Z" fill="white" stroke="#445BFD" stroke-width="2.44677"/>
<path d="M303.086 67.6263H293.014H147.354V169.451H291.464H303.086V67.6263Z" fill="#E7F2FF" stroke="#445BFD" stroke-width="2.44677"/>
<path d="M292.604 35.4317H321.055C322.552 25.1993 321.354 4.7345 307.578 4.7345" stroke="#445BFD" stroke-width="2.44677"/>
<path d="M291.106 19.641C291.106 8.90832 301.838 5.23138 307.578 4.7345H174.307C163.526 4.7345 159.832 11.6909 159.333 15.1691V169.451H288.86C288.86 161.037 288.937 150.973 289.062 140.09C289.146 132.828 289.251 125.202 289.37 117.457C289.485 109.949 289.612 102.33 289.743 94.8248C289.808 91.1177 289.875 87.4385 289.941 83.8143C290.516 52.4125 291.106 25.1417 291.106 19.641Z" fill="white" stroke="#445BFD" stroke-width="2.44677"/>
<rect x="282.738" y="96.0482" width="8.56371" height="52.6057" fill="white"/>
<path d="M250.676 169.451H108.42V175.441C108.42 179.576 111.772 182.928 115.907 182.928H261.906L250.676 169.451Z" fill="white" stroke="#445BFD" stroke-width="2.44677"/>
<path d="M172.633 87.4845H275.398" stroke="#9BC8FF" stroke-width="2.44677" stroke-linecap="round"/>
<path d="M225.239 121.739H257.047" stroke="#9BC8FF" stroke-width="2.44677" stroke-linecap="round"/>
<path d="M172.633 37.3255H214.228" stroke="#445BFD" stroke-width="2.44677" stroke-linecap="round"/>
<path d="M172.633 103.388H275.398" stroke="#9BC8FF" stroke-width="2.44677" stroke-linecap="round"/>
<path d="M225.239 137.643H244.813" stroke="#9BC8FF" stroke-width="2.44677" stroke-linecap="round"/>
<path d="M172.633 58.1232H214.228" stroke="#445BFD" stroke-width="2.44677" stroke-linecap="round"/>
<path d="M173.541 128.887C174.869 128.887 176.022 129.11 177 129.557C177.978 129.991 178.733 130.62 179.264 131.444C179.795 132.255 180.061 133.212 180.061 134.316C180.061 135.42 179.795 136.378 179.264 137.188C178.733 137.999 177.978 138.628 177 139.075C176.022 139.508 174.869 139.725 173.541 139.725H170.983V143.561H166.832V128.887H173.541ZM173.289 136.455C174.142 136.455 174.785 136.273 175.218 135.91C175.651 135.532 175.868 135.001 175.868 134.316C175.868 133.631 175.651 133.1 175.218 132.723C174.785 132.346 174.142 132.157 173.289 132.157H170.983V136.455H173.289ZM182.084 128.887H189.024C190.631 128.887 192.056 129.187 193.3 129.788C194.544 130.389 195.508 131.242 196.193 132.346C196.878 133.45 197.22 134.743 197.22 136.224C197.22 137.705 196.878 138.998 196.193 140.102C195.508 141.206 194.544 142.059 193.3 142.66C192.056 143.261 190.631 143.561 189.024 143.561H182.084V128.887ZM188.856 140.249C190.114 140.249 191.12 139.893 191.875 139.18C192.643 138.467 193.028 137.482 193.028 136.224C193.028 134.966 192.643 133.981 191.875 133.268C191.12 132.555 190.114 132.199 188.856 132.199H186.235V140.249H188.856ZM203.555 132.094V135.323H210.033V138.53H203.555V143.561H199.404V128.887H210.914V132.094H203.555Z" fill="#445BFD"/>
<rect x="159.176" y="118.069" width="55.4048" height="34.4408" stroke="#445BFD" stroke-width="2.44677"/>
<rect x="221.569" y="21.4215" width="53.9073" height="46.4202" fill="white" stroke="#445BFD" stroke-width="2.44677"/>
<path d="M221.569 57.7405L234.879 45.5268C235.454 44.9996 236.337 45.0016 236.909 45.5315L257.765 64.8469M247.962 52.766L256.764 44.7902C257.333 44.2748 258.199 44.273 258.77 44.786L273.979 58.4511" stroke="#445BFD" stroke-width="2.44677"/>
<circle cx="261.999" cy="31.9035" r="5.9897" fill="#C1DDFF"/>
<path d="M169.815 170.949H196.769C196.769 173.43 194.757 175.441 192.276 175.441H174.307C171.826 175.441 169.815 173.43 169.815 170.949Z" fill="#445BFD"/>
<path d="M243.188 169.451H313.568V170.949C313.568 177.565 308.204 182.928 301.588 182.928H255.168C248.552 182.928 243.188 177.565 243.188 170.949V169.451Z" fill="white" stroke="#445BFD" stroke-width="2.44677"/>
<path fill-rule="evenodd" clip-rule="evenodd" d="M363.004 53.4977C367.47 53.4977 371.09 49.8774 371.09 45.4116C371.09 40.9458 367.47 37.3255 363.004 37.3255C358.538 37.3255 354.918 40.9458 354.918 45.4116C354.918 49.8774 358.538 53.4977 363.004 53.4977Z" stroke="#435BFD" stroke-width="2.44677"/>
<path fill-rule="evenodd" clip-rule="evenodd" d="M346.511 32.5866C348 32.5866 349.207 31.3798 349.207 29.8912C349.207 28.4026 348 27.1959 346.511 27.1959C345.023 27.1959 343.816 28.4026 343.816 29.8912C343.816 31.3798 345.023 32.5866 346.511 32.5866Z" fill="#C1DDFF"/>
<path fill-rule="evenodd" clip-rule="evenodd" d="M349.131 150.359V155.975H352.5V150.359H356.993V146.99H352.5V142.498L349.131 142.498V146.99H343.516V150.359H349.131Z" fill="#435BFD"/>
<path fill-rule="evenodd" clip-rule="evenodd" d="M102.503 73.1494C102.503 67.6912 106.928 63.2664 112.386 63.2664C117.844 63.2664 122.269 67.6912 122.269 73.1494C122.269 78.6077 117.844 83.0324 112.386 83.0324C106.928 83.0324 102.503 78.6077 102.503 73.1494ZM112.386 66.8602C108.913 66.8602 106.097 69.676 106.097 73.1494C106.097 76.6229 108.913 79.4386 112.386 79.4386C115.859 79.4386 118.675 76.6229 118.675 73.1494C118.675 69.676 115.859 66.8602 112.386 66.8602Z" fill="#C1DDFF"/>
<path fill-rule="evenodd" clip-rule="evenodd" d="M383.305 87.9817C384.793 87.9817 386 86.7749 386 85.2863C386 83.7977 384.793 82.5909 383.305 82.5909C381.816 82.5909 380.609 83.7977 380.609 85.2863C380.609 86.7749 381.816 87.9817 383.305 87.9817Z" fill="#435BFD"/>
<path fill-rule="evenodd" clip-rule="evenodd" d="M119.801 154.178C121.289 154.178 122.496 152.971 122.496 151.482C122.496 149.994 121.289 148.787 119.801 148.787C118.312 148.787 117.105 149.994 117.105 151.482C117.105 152.971 118.312 154.178 119.801 154.178Z" fill="#435BFD"/>
<path fill-rule="evenodd" clip-rule="evenodd" d="M122.269 32.7932H108.792V29.424L122.269 29.424V32.7932Z" fill="#435BFD"/>
<path fill-rule="evenodd" clip-rule="evenodd" d="M114.407 38.4086L114.407 24.9318L117.776 24.9318L117.776 38.4086L114.407 38.4086Z" fill="#435BFD"/>
<path d="M263.223 126.223H328.777V181.777H263.223V126.223Z" fill="white" stroke="#445BFD" stroke-width="2.44677"/>
<path d="M291 127V107C291 93.7452 301.745 83 315 83V83C328.255 83 339 93.7452 339 107V110.895" stroke="#445BFD" stroke-width="2.44677"/>
<circle cx="296.5" cy="143.5" r="6.5" fill="#445BFD"/>
<rect x="294" y="147" width="4" height="15" fill="#445BFD"/>
</svg>
