<svg xmlns="http://www.w3.org/2000/svg" width="25" height="22" viewBox="0 0 25 22">
    <path fill="#DFDFE0" fill-rule="nonzero" d="M9 22H0v-9.465c0-1.706.176-3.311.527-4.818.351-1.506.892-2.828 1.622-3.965a8.477 8.477 0 0 1 2.797-2.729C6.08.341 7.406 0 8.919 0v4.264c-.919 0-1.676.241-2.27.724-.595.484-1.081 1.123-1.46 1.919-.378.796-.635 1.691-.77 2.686a21.839 21.839 0 0 0-.203 2.942H9V22zm16 0h-9v-9.465c0-1.706.176-3.311.527-4.818.351-1.506.892-2.828 1.622-3.965a8.477 8.477 0 0 1 2.797-2.729C22.08.341 23.406 0 24.919 0v4.264c-.919 0-1.676.241-2.27.724-.595.484-1.081 1.123-1.46 1.919-.378.796-.635 1.691-.77 2.686a21.839 21.839 0 0 0-.203 2.942H25V22z"/>
</svg>
